# Blender 5.2.0 LTS
# www.blender.org
mtllib halfTube.mtl
o BézierCurve
v -2.000000 0.000000 1.000000
v -2.000000 -0.500000 0.866025
v -2.000000 -0.866025 0.500000
v -2.000000 -1.000000 0.000000
v -2.000000 -0.866025 -0.500000
v -2.000000 -0.500000 -0.866025
v -2.000000 -0.000000 -1.000000
v -1.662408 0.000000 1.000000
v -1.662408 -0.500000 0.866025
v -1.662408 -0.866025 0.500000
v -1.662408 -1.000000 0.000000
v -1.662408 -0.866025 -0.500000
v -1.662408 -0.500000 -0.866025
v -1.662408 -0.000000 -1.000000
v -1.351546 0.000000 1.000000
v -1.351546 -0.500000 0.866025
v -1.351546 -0.866025 0.500000
v -1.351546 -1.000000 0.000000
v -1.351546 -0.866025 -0.500000
v -1.351546 -0.500000 -0.866025
v -1.351546 -0.000000 -1.000000
v -1.059629 0.000000 1.000000
v -1.059629 -0.500000 0.866025
v -1.059629 -0.866025 0.500000
v -1.059629 -1.000000 0.000000
v -1.059629 -0.866025 -0.500000
v -1.059629 -0.500000 -0.866025
v -1.059629 -0.000000 -1.000000
v -0.778868 0.000000 1.000000
v -0.778868 -0.500000 0.866025
v -0.778868 -0.866025 0.500000
v -0.778868 -1.000000 0.000000
v -0.778868 -0.866025 -0.500000
v -0.778868 -0.500000 -0.866025
v -0.778868 -0.000000 -1.000000
v -0.501477 0.000000 1.000000
v -0.501477 -0.500000 0.866025
v -0.501477 -0.866025 0.500000
v -0.501477 -1.000000 0.000000
v -0.501477 -0.866025 -0.500000
v -0.501477 -0.500000 -0.866025
v -0.501477 -0.000000 -1.000000
v -0.219670 0.000000 1.000000
v -0.219670 -0.500000 0.866025
v -0.219670 -0.866025 0.500000
v -0.219670 -1.000000 0.000000
v -0.219670 -0.866025 -0.500000
v -0.219670 -0.500000 -0.866025
v -0.219670 -0.000000 -1.000000
v 0.074342 0.000000 1.000000
v 0.074342 -0.500000 0.866025
v 0.074342 -0.866025 0.500000
v 0.074342 -1.000000 0.000000
v 0.074342 -0.866025 -0.500000
v 0.074342 -0.500000 -0.866025
v 0.074342 -0.000000 -1.000000
v 0.388344 0.000000 1.000000
v 0.388344 -0.500000 0.866025
v 0.388344 -0.866025 0.500000
v 0.388344 -1.000000 0.000000
v 0.388344 -0.866025 -0.500000
v 0.388344 -0.500000 -0.866025
v 0.388344 -0.000000 -1.000000
v 0.730124 0.000000 1.000000
v 0.730124 -0.500000 0.866025
v 0.730124 -0.866025 0.500000
v 0.730124 -1.000000 0.000000
v 0.730124 -0.866025 -0.500000
v 0.730124 -0.500000 -0.866025
v 0.730124 -0.000000 -1.000000
v 1.107469 0.000000 1.000000
v 1.107469 -0.500000 0.866025
v 1.107469 -0.866025 0.500000
v 1.107469 -1.000000 0.000000
v 1.107469 -0.866025 -0.500000
v 1.107469 -0.500000 -0.866025
v 1.107469 -0.000000 -1.000000
v 1.528165 0.000000 1.000000
v 1.528165 -0.500000 0.866025
v 1.528165 -0.866025 0.500000
v 1.528165 -1.000000 0.000000
v 1.528165 -0.866025 -0.500000
v 1.528165 -0.500000 -0.866025
v 1.528165 -0.000000 -1.000000
v 2.000000 0.000000 1.000000
v 2.000000 -0.500000 0.866025
v 2.000000 -0.866025 0.500000
v 2.000000 -1.000000 0.000000
v 2.000000 -0.866025 -0.500000
v 2.000000 -0.500000 -0.866025
v 2.000000 -0.000000 -1.000000
v -2.000000 -0.100000 1.000000
v -2.000000 -0.600000 0.866025
v -1.662408 -0.600000 0.866025
v -1.662408 -0.100000 1.000000
v -2.000000 -0.966025 0.500000
v -1.662408 -0.966025 0.500000
v -2.000000 -1.100000 0.000000
v -1.662408 -1.100000 0.000000
v -2.000000 -0.966025 -0.500000
v -1.662408 -0.966025 -0.500000
v -2.000000 -0.600000 -0.866025
v -1.662408 -0.600000 -0.866025
v -2.000000 -0.100000 -1.000000
v -1.662408 -0.100000 -1.000000
v -1.351546 -0.600000 0.866025
v -1.351546 -0.100000 1.000000
v -1.351546 -0.966025 0.500000
v -1.351546 -1.100000 0.000000
v -1.351546 -0.966025 -0.500000
v -1.351546 -0.600000 -0.866025
v -1.351546 -0.100000 -1.000000
v -1.059629 -0.600000 0.866025
v -1.059629 -0.100000 1.000000
v -1.059629 -0.966025 0.500000
v -1.059629 -1.100000 0.000000
v -1.059629 -0.966025 -0.500000
v -1.059629 -0.600000 -0.866025
v -1.059629 -0.100000 -1.000000
v -0.778868 -0.600000 0.866025
v -0.778868 -0.100000 1.000000
v -0.778868 -0.966025 0.500000
v -0.778868 -1.100000 0.000000
v -0.778868 -0.966025 -0.500000
v -0.778868 -0.600000 -0.866025
v -0.778868 -0.100000 -1.000000
v -0.501477 -0.600000 0.866025
v -0.501477 -0.100000 1.000000
v -0.501477 -0.966025 0.500000
v -0.501477 -1.100000 0.000000
v -0.501477 -0.966025 -0.500000
v -0.501477 -0.600000 -0.866025
v -0.501477 -0.100000 -1.000000
v -0.219670 -0.600000 0.866025
v -0.219670 -0.100000 1.000000
v -0.219670 -0.966025 0.500000
v -0.219670 -1.100000 0.000000
v -0.219670 -0.966025 -0.500000
v -0.219670 -0.600000 -0.866025
v -0.219670 -0.100000 -1.000000
v 0.074342 -0.600000 0.866025
v 0.074342 -0.100000 1.000000
v 0.074342 -0.966025 0.500000
v 0.074342 -1.100000 0.000000
v 0.074342 -0.966025 -0.500000
v 0.074342 -0.600000 -0.866025
v 0.074342 -0.100000 -1.000000
v 0.388344 -0.600000 0.866025
v 0.388344 -0.100000 1.000000
v 0.388344 -0.966025 0.500000
v 0.388344 -1.100000 0.000000
v 0.388344 -0.966025 -0.500000
v 0.388344 -0.600000 -0.866025
v 0.388344 -0.100000 -1.000000
v 0.730124 -0.600000 0.866025
v 0.730124 -0.100000 1.000000
v 0.730124 -0.966025 0.500000
v 0.730124 -1.100000 0.000000
v 0.730124 -0.966025 -0.500000
v 0.730124 -0.600000 -0.866025
v 0.730124 -0.100000 -1.000000
v 1.107469 -0.600000 0.866025
v 1.107469 -0.100000 1.000000
v 1.107469 -0.966025 0.500000
v 1.107469 -1.100000 0.000000
v 1.107469 -0.966025 -0.500000
v 1.107469 -0.600000 -0.866025
v 1.107469 -0.100000 -1.000000
v 1.528165 -0.600000 0.866025
v 1.528165 -0.100000 1.000000
v 1.528165 -0.966025 0.500000
v 1.528165 -1.100000 0.000000
v 1.528165 -0.966025 -0.500000
v 1.528165 -0.600000 -0.866025
v 1.528165 -0.100000 -1.000000
v 2.000000 -0.600000 0.866025
v 2.000000 -0.100000 1.000000
v 2.000000 -0.966025 0.500000
v 2.000000 -1.100000 0.000000
v 2.000000 -0.966025 -0.500000
v 2.000000 -0.600000 -0.866025
v 2.000000 -0.100000 -1.000000
vn -0.3041 0.9445 0.1243
vn -0.5170 0.4280 -0.7413
vn -0.5169 0.7413 -0.4280
vn -0.5170 0.8560 -0.0000
vn -0.5169 0.7413 0.4280
vn -0.5170 0.4280 0.7413
vn -0.3041 0.9445 -0.1243
vn -0.0000 0.9914 0.1305
vn -0.0000 0.5000 -0.8660
vn -0.0000 0.8660 -0.5000
vn -0.0000 1.0000 -0.0000
vn -0.0000 0.8660 0.5000
vn -0.0000 0.5000 0.8660
vn -0.0000 0.9914 -0.1305
vn 0.3041 0.9445 0.1243
vn 0.5170 0.4280 -0.7413
vn 0.5169 0.7413 -0.4280
vn 0.5170 0.8560 -0.0000
vn 0.5169 0.7413 0.4280
vn 0.5170 0.4280 0.7413
vn 0.3041 0.9445 -0.1243
vn -0.4196 -0.1185 0.8999
vn -0.3961 -0.4591 0.7952
vn -0.0000 -0.5000 0.8660
vn -0.0000 -0.1305 0.9914
vn -0.3961 -0.7952 0.4591
vn -0.0000 -0.8660 0.5000
vn -0.3961 -0.9182 -0.0000
vn -0.0000 -1.0000 -0.0000
vn -0.3961 -0.7952 -0.4591
vn -0.0000 -0.8660 -0.5000
vn -0.3961 -0.4591 -0.7952
vn -0.0000 -0.5000 -0.8660
vn -0.4196 -0.1185 -0.8999
vn -0.0000 -0.1305 -0.9914
vn 0.3961 -0.4591 0.7952
vn 0.4196 -0.1185 0.8999
vn 0.3961 -0.7952 0.4591
vn 0.3961 -0.9182 -0.0000
vn 0.3961 -0.7952 -0.4591
vn 0.3961 -0.4591 -0.7952
vn 0.4196 -0.1185 -0.8999
vt 0.000000 0.166667
vt 0.000000 0.000000
vt 0.083333 0.000000
vt 0.083333 0.166667
vt 0.000000 0.333333
vt 0.083333 0.333333
vt 0.000000 0.500000
vt 0.083333 0.500000
vt 0.000000 0.666667
vt 0.083333 0.666667
vt 0.000000 0.833333
vt 0.083333 0.833333
vt 0.000000 1.000000
vt 0.083333 1.000000
vt 0.166667 0.000000
vt 0.166667 0.166667
vt 0.166667 0.333333
vt 0.166667 0.500000
vt 0.166667 0.666667
vt 0.166667 0.833333
vt 0.166667 1.000000
vt 0.250000 0.000000
vt 0.250000 0.166667
vt 0.250000 0.333333
vt 0.250000 0.500000
vt 0.250000 0.666667
vt 0.250000 0.833333
vt 0.250000 1.000000
vt 0.333333 0.000000
vt 0.333333 0.166667
vt 0.333333 0.333333
vt 0.333333 0.500000
vt 0.333333 0.666667
vt 0.333333 0.833333
vt 0.333333 1.000000
vt 0.416667 0.000000
vt 0.416667 0.166667
vt 0.416667 0.333333
vt 0.416667 0.500000
vt 0.416667 0.666667
vt 0.416667 0.833333
vt 0.416667 1.000000
vt 0.500000 0.000000
vt 0.500000 0.166667
vt 0.500000 0.333333
vt 0.500000 0.500000
vt 0.500000 0.666667
vt 0.500000 0.833333
vt 0.500000 1.000000
vt 0.583333 0.000000
vt 0.583333 0.166667
vt 0.583333 0.333333
vt 0.583333 0.500000
vt 0.583333 0.666667
vt 0.583333 0.833333
vt 0.583333 1.000000
vt 0.666667 0.000000
vt 0.666667 0.166667
vt 0.666667 0.333333
vt 0.666667 0.500000
vt 0.666667 0.666667
vt 0.666667 0.833333
vt 0.666667 1.000000
vt 0.750000 0.000000
vt 0.750000 0.166667
vt 0.750000 0.333333
vt 0.750000 0.500000
vt 0.750000 0.666667
vt 0.750000 0.833333
vt 0.750000 1.000000
vt 0.833333 0.000000
vt 0.833333 0.166667
vt 0.833333 0.333333
vt 0.833333 0.500000
vt 0.833333 0.666667
vt 0.833333 0.833333
vt 0.833333 1.000000
vt 0.916667 0.000000
vt 0.916667 0.166667
vt 0.916667 0.333333
vt 0.916667 0.500000
vt 0.916667 0.666667
vt 0.916667 0.833333
vt 0.916667 1.000000
vt 1.000000 0.000000
vt 1.000000 0.166667
vt 1.000000 0.333333
vt 1.000000 0.500000
vt 1.000000 0.666667
vt 1.000000 0.833333
vt 1.000000 1.000000
s 1
f 2/1/2 1/2/1 8/3/8 9/4/9
f 3/5/3 2/1/2 9/4/9 10/6/10
f 4/7/4 3/5/3 10/6/10 11/8/11
f 5/9/5 4/7/4 11/8/11 12/10/12
f 6/11/6 5/9/5 12/10/12 13/12/13
f 7/13/7 6/11/6 13/12/13 14/14/14
f 9/4/9 8/3/8 15/15/8 16/16/9
f 10/6/10 9/4/9 16/16/9 17/17/10
f 11/8/11 10/6/10 17/17/10 18/18/11
f 12/10/12 11/8/11 18/18/11 19/19/12
f 13/12/13 12/10/12 19/19/12 20/20/13
f 14/14/14 13/12/13 20/20/13 21/21/14
f 16/16/9 15/15/8 22/22/8 23/23/9
f 17/17/10 16/16/9 23/23/9 24/24/10
f 18/18/11 17/17/10 24/24/10 25/25/11
f 19/19/12 18/18/11 25/25/11 26/26/12
f 20/20/13 19/19/12 26/26/12 27/27/13
f 21/21/14 20/20/13 27/27/13 28/28/14
f 23/23/9 22/22/8 29/29/8 30/30/9
f 24/24/10 23/23/9 30/30/9 31/31/10
f 25/25/11 24/24/10 31/31/10 32/32/11
f 26/26/12 25/25/11 32/32/11 33/33/12
f 27/27/13 26/26/12 33/33/12 34/34/13
f 28/28/14 27/27/13 34/34/13 35/35/14
f 30/30/9 29/29/8 36/36/8 37/37/9
f 31/31/10 30/30/9 37/37/9 38/38/10
f 32/32/11 31/31/10 38/38/10 39/39/11
f 33/33/12 32/32/11 39/39/11 40/40/12
f 34/34/13 33/33/12 40/40/12 41/41/13
f 35/35/14 34/34/13 41/41/13 42/42/14
f 37/37/9 36/36/8 43/43/8 44/44/9
f 38/38/10 37/37/9 44/44/9 45/45/10
f 39/39/11 38/38/10 45/45/10 46/46/11
f 40/40/12 39/39/11 46/46/11 47/47/12
f 41/41/13 40/40/12 47/47/12 48/48/13
f 42/42/14 41/41/13 48/48/13 49/49/14
f 44/44/9 43/43/8 50/50/8 51/51/9
f 45/45/10 44/44/9 51/51/9 52/52/10
f 46/46/11 45/45/10 52/52/10 53/53/11
f 47/47/12 46/46/11 53/53/11 54/54/12
f 48/48/13 47/47/12 54/54/12 55/55/13
f 49/49/14 48/48/13 55/55/13 56/56/14
f 51/51/9 50/50/8 57/57/8 58/58/9
f 52/52/10 51/51/9 58/58/9 59/59/10
f 53/53/11 52/52/10 59/59/10 60/60/11
f 54/54/12 53/53/11 60/60/11 61/61/12
f 55/55/13 54/54/12 61/61/12 62/62/13
f 56/56/14 55/55/13 62/62/13 63/63/14
f 58/58/9 57/57/8 64/64/8 65/65/9
f 59/59/10 58/58/9 65/65/9 66/66/10
f 60/60/11 59/59/10 66/66/10 67/67/11
f 61/61/12 60/60/11 67/67/11 68/68/12
f 62/62/13 61/61/12 68/68/12 69/69/13
f 63/63/14 62/62/13 69/69/13 70/70/14
f 65/65/9 64/64/8 71/71/8 72/72/9
f 66/66/10 65/65/9 72/72/9 73/73/10
f 67/67/11 66/66/10 73/73/10 74/74/11
f 68/68/12 67/67/11 74/74/11 75/75/12
f 69/69/13 68/68/12 75/75/12 76/76/13
f 70/70/14 69/69/13 76/76/13 77/77/14
f 72/72/9 71/71/8 78/78/8 79/79/9
f 73/73/10 72/72/9 79/79/9 80/80/10
f 74/74/11 73/73/10 80/80/10 81/81/11
f 75/75/12 74/74/11 81/81/11 82/82/12
f 76/76/13 75/75/12 82/82/12 83/83/13
f 77/77/14 76/76/13 83/83/13 84/84/14
f 79/79/9 78/78/8 85/85/15 86/86/16
f 80/80/10 79/79/9 86/86/16 87/87/17
f 81/81/11 80/80/10 87/87/17 88/88/18
f 82/82/12 81/81/11 88/88/18 89/89/19
f 83/83/13 82/82/12 89/89/19 90/90/20
f 84/84/14 83/83/13 90/90/20 91/91/21
f 93/1/23 94/4/24 95/3/25 92/2/22
f 96/5/26 97/6/27 94/4/24 93/1/23
f 98/7/28 99/8/29 97/6/27 96/5/26
f 100/9/30 101/10/31 99/8/29 98/7/28
f 102/11/32 103/12/33 101/10/31 100/9/30
f 104/13/34 105/14/35 103/12/33 102/11/32
f 94/4/24 106/16/24 107/15/25 95/3/25
f 97/6/27 108/17/27 106/16/24 94/4/24
f 99/8/29 109/18/29 108/17/27 97/6/27
f 101/10/31 110/19/31 109/18/29 99/8/29
f 103/12/33 111/20/33 110/19/31 101/10/31
f 105/14/35 112/21/35 111/20/33 103/12/33
f 106/16/24 113/23/24 114/22/25 107/15/25
f 108/17/27 115/24/27 113/23/24 106/16/24
f 109/18/29 116/25/29 115/24/27 108/17/27
f 110/19/31 117/26/31 116/25/29 109/18/29
f 111/20/33 118/27/33 117/26/31 110/19/31
f 112/21/35 119/28/35 118/27/33 111/20/33
f 113/23/24 120/30/24 121/29/25 114/22/25
f 115/24/27 122/31/27 120/30/24 113/23/24
f 116/25/29 123/32/29 122/31/27 115/24/27
f 117/26/31 124/33/31 123/32/29 116/25/29
f 118/27/33 125/34/33 124/33/31 117/26/31
f 119/28/35 126/35/35 125/34/33 118/27/33
f 120/30/24 127/37/24 128/36/25 121/29/25
f 122/31/27 129/38/27 127/37/24 120/30/24
f 123/32/29 130/39/29 129/38/27 122/31/27
f 124/33/31 131/40/31 130/39/29 123/32/29
f 125/34/33 132/41/33 131/40/31 124/33/31
f 126/35/35 133/42/35 132/41/33 125/34/33
f 127/37/24 134/44/24 135/43/25 128/36/25
f 129/38/27 136/45/27 134/44/24 127/37/24
f 130/39/29 137/46/29 136/45/27 129/38/27
f 131/40/31 138/47/31 137/46/29 130/39/29
f 132/41/33 139/48/33 138/47/31 131/40/31
f 133/42/35 140/49/35 139/48/33 132/41/33
f 134/44/24 141/51/24 142/50/25 135/43/25
f 136/45/27 143/52/27 141/51/24 134/44/24
f 137/46/29 144/53/29 143/52/27 136/45/27
f 138/47/31 145/54/31 144/53/29 137/46/29
f 139/48/33 146/55/33 145/54/31 138/47/31
f 140/49/35 147/56/35 146/55/33 139/48/33
f 141/51/24 148/58/24 149/57/25 142/50/25
f 143/52/27 150/59/27 148/58/24 141/51/24
f 144/53/29 151/60/29 150/59/27 143/52/27
f 145/54/31 152/61/31 151/60/29 144/53/29
f 146/55/33 153/62/33 152/61/31 145/54/31
f 147/56/35 154/63/35 153/62/33 146/55/33
f 148/58/24 155/65/24 156/64/25 149/57/25
f 150/59/27 157/66/27 155/65/24 148/58/24
f 151/60/29 158/67/29 157/66/27 150/59/27
f 152/61/31 159/68/31 158/67/29 151/60/29
f 153/62/33 160/69/33 159/68/31 152/61/31
f 154/63/35 161/70/35 160/69/33 153/62/33
f 155/65/24 162/72/24 163/71/25 156/64/25
f 157/66/27 164/73/27 162/72/24 155/65/24
f 158/67/29 165/74/29 164/73/27 157/66/27
f 159/68/31 166/75/31 165/74/29 158/67/29
f 160/69/33 167/76/33 166/75/31 159/68/31
f 161/70/35 168/77/35 167/76/33 160/69/33
f 162/72/24 169/79/24 170/78/25 163/71/25
f 164/73/27 171/80/27 169/79/24 162/72/24
f 165/74/29 172/81/29 171/80/27 164/73/27
f 166/75/31 173/82/31 172/81/29 165/74/29
f 167/76/33 174/83/33 173/82/31 166/75/31
f 168/77/35 175/84/35 174/83/33 167/76/33
f 169/79/24 176/86/36 177/85/37 170/78/25
f 171/80/27 178/87/38 176/86/36 169/79/24
f 172/81/29 179/88/39 178/87/38 171/80/27
f 173/82/31 180/89/40 179/88/39 172/81/29
f 174/83/33 181/90/41 180/89/40 173/82/31
f 175/84/35 182/91/42 181/90/41 174/83/33
f 64/64/8 57/57/8 149/57/25 156/64/25
f 57/57/8 50/50/8 142/50/25 149/57/25
f 87/87/17 86/86/16 176/86/36 178/87/38
f 50/50/8 43/43/8 135/43/25 142/50/25
f 43/43/8 36/36/8 128/36/25 135/43/25
f 36/36/8 29/29/8 121/29/25 128/36/25
f 29/29/8 22/22/8 114/22/25 121/29/25
f 3/5/3 4/7/4 98/7/28 96/5/26
f 22/22/8 15/15/8 107/15/25 114/22/25
f 88/88/18 87/87/17 178/87/38 179/88/39
f 15/15/8 8/3/8 95/3/25 107/15/25
f 89/89/19 88/88/18 179/88/39 180/89/40
f 4/7/4 5/9/5 100/9/30 98/7/28
f 90/90/20 89/89/19 180/89/40 181/90/41
f 84/84/14 91/91/21 182/91/42 175/84/35
f 77/77/14 84/84/14 175/84/35 168/77/35
f 5/9/5 6/11/6 102/11/32 100/9/30
f 70/70/14 77/77/14 168/77/35 161/70/35
f 1/2/1 2/1/2 93/1/23 92/2/22
f 91/91/21 90/90/20 181/90/41 182/91/42
f 63/63/14 70/70/14 161/70/35 154/63/35
f 56/56/14 63/63/14 154/63/35 147/56/35
f 49/49/14 56/56/14 147/56/35 140/49/35
f 42/42/14 49/49/14 140/49/35 133/42/35
f 35/35/14 42/42/14 133/42/35 126/35/35
f 28/28/14 35/35/14 126/35/35 119/28/35
f 86/86/16 85/85/15 177/85/37 176/86/36
f 6/11/6 7/13/7 104/13/34 102/11/32
f 21/21/14 28/28/14 119/28/35 112/21/35
f 8/3/8 1/2/1 92/2/22 95/3/25
f 14/14/14 21/21/14 112/21/35 105/14/35
f 85/85/15 78/78/8 170/78/25 177/85/37
f 7/13/7 14/14/14 105/14/35 104/13/34
f 78/78/8 71/71/8 163/71/25 170/78/25
f 2/1/2 3/5/3 96/5/26 93/1/23
f 71/71/8 64/64/8 156/64/25 163/71/25
