# Blender 5.2.0 LTS
# www.blender.org
mtllib tubeCorner90.mtl
o BézierCurve
v -2.705584 0.500000 -1.812535
v -2.705584 0.866025 -1.446510
v -2.705584 1.000000 -0.946510
v -2.705584 0.866026 -0.446510
v -2.705584 0.500001 -0.080484
v -2.705584 0.000001 0.053491
v -2.705584 -0.499999 -0.080483
v -2.705584 -0.866025 -0.446508
v -2.705584 -1.000000 -0.946508
v -2.705584 -0.866026 -1.446508
v -2.705584 -0.500001 -1.812534
v -2.705584 -0.000001 -1.946509
v -2.536788 0.500000 -1.812535
v -2.536788 0.866025 -1.446510
v -2.536788 1.000000 -0.946510
v -2.536788 0.866026 -0.446510
v -2.536788 0.500001 -0.080484
v -2.536788 0.000001 0.053491
v -2.536788 -0.499999 -0.080483
v -2.536788 -0.866025 -0.446508
v -2.536788 -1.000000 -0.946508
v -2.536788 -0.866026 -1.446508
v -2.536788 -0.500001 -1.812534
v -2.536788 -0.000001 -1.946509
v -2.381357 0.500000 -1.812535
v -2.381357 0.866025 -1.446510
v -2.381357 1.000000 -0.946510
v -2.381357 0.866026 -0.446510
v -2.381357 0.500001 -0.080484
v -2.381357 0.000001 0.053491
v -2.381357 -0.499999 -0.080483
v -2.381357 -0.866025 -0.446508
v -2.381357 -1.000000 -0.946508
v -2.381357 -0.866026 -1.446508
v -2.381357 -0.500001 -1.812534
v -2.381357 -0.000001 -1.946509
v -2.235398 0.500000 -1.812535
v -2.235398 0.866025 -1.446510
v -2.235398 1.000000 -0.946510
v -2.235398 0.866026 -0.446510
v -2.235398 0.500001 -0.080484
v -2.235398 0.000001 0.053491
v -2.235398 -0.499999 -0.080483
v -2.235398 -0.866025 -0.446508
v -2.235398 -1.000000 -0.946508
v -2.235398 -0.866026 -1.446508
v -2.235398 -0.500001 -1.812534
v -2.235398 -0.000001 -1.946509
v -2.095017 0.500000 -1.812535
v -2.095017 0.866025 -1.446510
v -2.095017 1.000000 -0.946510
v -2.095017 0.866026 -0.446510
v -2.095017 0.500001 -0.080484
v -2.095017 0.000001 0.053491
v -2.095017 -0.499999 -0.080483
v -2.095017 -0.866025 -0.446508
v -2.095017 -1.000000 -0.946508
v -2.095017 -0.866026 -1.446508
v -2.095017 -0.500001 -1.812534
v -2.095017 -0.000001 -1.946509
v -1.956322 0.500000 -1.812535
v -1.956322 0.866025 -1.446510
v -1.956322 1.000000 -0.946510
v -1.956322 0.866026 -0.446510
v -1.956322 0.500001 -0.080484
v -1.956322 0.000001 0.053491
v -1.956322 -0.499999 -0.080483
v -1.956322 -0.866025 -0.446508
v -1.956322 -1.000000 -0.946508
v -1.956322 -0.866026 -1.446508
v -1.956322 -0.500001 -1.812534
v -1.956322 -0.000001 -1.946509
v -1.815418 0.500000 -1.812535
v -1.815418 0.866025 -1.446510
v -1.815418 1.000000 -0.946510
v -1.815418 0.866026 -0.446510
v -1.815418 0.500001 -0.080484
v -1.815418 0.000001 0.053491
v -1.815418 -0.499999 -0.080483
v -1.815418 -0.866025 -0.446508
v -1.815418 -1.000000 -0.946508
v -1.815418 -0.866026 -1.446508
v -1.815418 -0.500001 -1.812534
v -1.815418 -0.000001 -1.946509
v -1.668413 0.500000 -1.812535
v -1.668413 0.866025 -1.446510
v -1.668413 1.000000 -0.946510
v -1.668413 0.866026 -0.446510
v -1.668413 0.500001 -0.080484
v -1.668413 0.000001 0.053491
v -1.668413 -0.499999 -0.080483
v -1.668413 -0.866025 -0.446508
v -1.668413 -1.000000 -0.946508
v -1.668413 -0.866026 -1.446508
v -1.668413 -0.500001 -1.812534
v -1.668413 -0.000001 -1.946509
v -1.511412 0.500000 -1.812535
v -1.511412 0.866025 -1.446510
v -1.511412 1.000000 -0.946510
v -1.511412 0.866026 -0.446510
v -1.511412 0.500001 -0.080484
v -1.511412 0.000001 0.053491
v -1.511412 -0.499999 -0.080483
v -1.511412 -0.866025 -0.446508
v -1.511412 -1.000000 -0.946508
v -1.511412 -0.866026 -1.446508
v -1.511412 -0.500001 -1.812534
v -1.511412 -0.000001 -1.946509
v -1.340522 0.500000 -1.812535
v -1.340522 0.866025 -1.446510
v -1.340522 1.000000 -0.946510
v -1.340522 0.866026 -0.446510
v -1.340522 0.500001 -0.080484
v -1.340522 0.000001 0.053491
v -1.340522 -0.499999 -0.080483
v -1.340522 -0.866025 -0.446508
v -1.340522 -1.000000 -0.946508
v -1.340522 -0.866026 -1.446508
v -1.340522 -0.500001 -1.812534
v -1.340522 -0.000001 -1.946509
v -1.151849 0.500000 -1.812535
v -1.151849 0.866025 -1.446510
v -1.151849 1.000000 -0.946510
v -1.151849 0.866026 -0.446510
v -1.151849 0.500001 -0.080484
v -1.151849 0.000001 0.053491
v -1.151849 -0.499999 -0.080483
v -1.151849 -0.866025 -0.446508
v -1.151849 -1.000000 -0.946508
v -1.151849 -0.866026 -1.446508
v -1.151849 -0.500001 -1.812534
v -1.151849 -0.000001 -1.946509
v -0.941501 0.500000 -1.812535
v -0.941501 0.866025 -1.446510
v -0.941501 1.000000 -0.946510
v -0.941501 0.866026 -0.446510
v -0.941501 0.500001 -0.080484
v -0.941501 0.000001 0.053491
v -0.941501 -0.499999 -0.080483
v -0.941501 -0.866025 -0.446508
v -0.941501 -1.000000 -0.946508
v -0.941501 -0.866026 -1.446508
v -0.941501 -0.500001 -1.812534
v -0.941501 -0.000001 -1.946509
v -0.704579 0.500000 -1.812534
v -0.705003 0.866025 -1.446509
v -0.705584 1.000000 -0.946510
v -0.706164 0.866026 -0.446510
v -0.706588 0.500001 -0.080485
v -0.706744 0.000001 0.053490
v -0.706588 -0.499999 -0.080484
v -0.706164 -0.866025 -0.446509
v -0.705584 -1.000000 -0.946508
v -0.705003 -0.866026 -1.446508
v -0.704579 -0.500001 -1.812534
v -0.704423 -0.000001 -1.946509
v -0.448026 0.500000 -1.811918
v -0.451465 0.866025 -1.445909
v -0.456162 1.000000 -0.945931
v -0.460859 0.866026 -0.445953
v -0.464298 0.500001 -0.079944
v -0.465557 0.000001 0.054025
v -0.464298 -0.499999 -0.079943
v -0.460860 -0.866025 -0.445952
v -0.456162 -1.000000 -0.945930
v -0.451465 -0.866026 -1.445908
v -0.448026 -0.500001 -1.811917
v -0.446768 -0.000001 -1.945887
v -0.183179 0.500000 -1.807483
v -0.194605 0.866025 -1.441636
v -0.210213 1.000000 -0.941880
v -0.225821 0.866026 -0.442124
v -0.237247 0.500001 -0.076277
v -0.241429 0.000001 0.057633
v -0.237247 -0.499999 -0.076276
v -0.225821 -0.866025 -0.442123
v -0.210213 -1.000000 -0.941879
v -0.194605 -0.866026 -1.441635
v -0.183180 -0.500001 -1.807482
v -0.178998 -0.000001 -1.941392
v 0.089092 0.500000 -1.794808
v 0.063606 0.866025 -1.429671
v 0.028791 1.000000 -0.930885
v -0.006023 0.866026 -0.432098
v -0.031509 0.500001 -0.066961
v -0.040838 0.000001 0.066689
v -0.031509 -0.499999 -0.066960
v -0.006023 -0.866025 -0.432097
v 0.028791 -1.000000 -0.930883
v 0.063606 -0.866026 -1.429670
v 0.089092 -0.500001 -1.794807
v 0.098420 -0.000001 -1.928457
v 0.368083 0.500000 -1.768393
v 0.321294 0.866025 -1.405371
v 0.257380 1.000000 -0.909473
v 0.193465 0.866026 -0.413575
v 0.146676 0.500001 -0.050552
v 0.129550 0.000001 0.082324
v 0.146676 -0.499999 -0.050551
v 0.193465 -0.866025 -0.413573
v 0.257379 -1.000000 -0.909471
v 0.321294 -0.866026 -1.405370
v 0.368083 -0.500001 -1.768393
v 0.385209 -0.000001 -1.901268
v 0.654197 0.500000 -1.720831
v 0.577225 0.866025 -1.362991
v 0.472079 1.000000 -0.874172
v 0.366933 0.866026 -0.385352
v 0.289960 0.500001 -0.027512
v 0.261786 0.000001 0.103467
v 0.289960 -0.499999 -0.027511
v 0.366932 -0.866025 -0.385351
v 0.472078 -1.000000 -0.874170
v 0.577224 -0.866026 -1.362990
v 0.654197 -0.500001 -1.720831
v 0.682371 -0.000001 -1.851810
v 0.948138 0.500000 -1.641457
v 0.830336 0.866025 -1.294907
v 0.669417 1.000000 -0.821510
v 0.508497 0.866026 -0.348113
v 0.390695 0.500001 -0.001562
v 0.347577 0.000001 0.125285
v 0.390695 -0.499999 -0.001561
v 0.508496 -0.866025 -0.348111
v 0.669416 -1.000000 -0.821508
v 0.830336 -0.866026 -1.294906
v 0.948138 -0.500001 -1.641457
v 0.991256 -0.000001 -1.768304
v 1.248023 0.500000 -1.515031
v 1.078075 0.866025 -1.190851
v 0.845921 1.000000 -0.748014
v 0.613768 0.866026 -0.305177
v 0.443820 0.500001 0.019002
v 0.381614 0.000001 0.137660
v 0.443819 -0.499999 0.019003
v 0.613767 -0.866025 -0.305176
v 0.845921 -1.000000 -0.748013
v 1.078074 -0.866026 -1.190850
v 1.248023 -0.500001 -1.515030
v 1.310228 -0.000001 -1.633688
v 1.543066 0.500000 -1.323291
v 1.312745 0.866025 -1.038815
v 0.998120 1.000000 -0.650213
v 0.683496 0.866026 -0.261612
v 0.453175 0.500001 0.022865
v 0.368871 0.000001 0.126991
v 0.453174 -0.499999 0.022866
v 0.683495 -0.866025 -0.261610
v 0.998119 -1.000000 -0.650212
v 1.312744 -0.866026 -1.038814
v 1.543065 -0.500001 -1.323291
v 1.627369 -0.000001 -1.427417
v 1.807534 0.500000 -1.054526
v 1.518022 0.866025 -0.830568
v 1.122542 1.000000 -0.524635
v 0.727061 0.866026 -0.218701
v 0.437549 0.500001 0.005257
v 0.331580 0.000001 0.087232
v 0.437548 -0.499999 0.005258
v 0.727060 -0.866025 -0.218701
v 1.122541 -1.000000 -0.524634
v 1.518022 -0.866026 -0.830567
v 1.807534 -0.500001 -1.054526
v 1.913503 -0.000001 -1.136501
v 2.007837 0.500000 -0.717861
v 1.673046 0.866025 -0.569911
v 1.215713 1.000000 -0.367806
v 0.758380 0.866026 -0.165701
v 0.423589 0.500001 -0.017750
v 0.301046 0.000001 0.036404
v 0.423588 -0.499999 -0.017750
v 0.758379 -0.866025 -0.165700
v 1.215712 -1.000000 -0.367805
v 1.673045 -0.866026 -0.569910
v 2.007837 -0.500001 -0.717861
v 2.130379 -0.000001 -0.772015
v 2.124266 0.500000 -0.341552
v 1.764970 0.866025 -0.271689
v 1.274162 1.000000 -0.176255
v 0.783355 0.866026 -0.080820
v 0.424058 0.500001 -0.010957
v 0.292546 0.000001 0.014615
v 0.424057 -0.499999 -0.010957
v 0.783353 -0.866025 -0.080820
v 1.274161 -1.000000 -0.176255
v 1.764969 -0.866026 -0.271689
v 2.124265 -0.500001 -0.341552
v 2.255777 -0.000001 -0.367124
v 2.159605 0.500000 0.015427
v 1.793934 0.866025 0.031514
v 1.294417 1.000000 0.053491
v 0.794900 0.866026 0.075467
v 0.429228 0.500001 0.091555
v 0.295383 0.000001 0.097443
v 0.429227 -0.499999 0.091555
v 0.794899 -0.866025 0.075467
v 1.294415 -1.000000 0.053491
v 1.793932 -0.866026 0.031514
v 2.159605 -0.500001 0.015427
v 2.293450 -0.000001 0.009538
v 2.160442 0.500000 0.303491
v 1.794417 0.866025 0.303491
v 1.294417 1.000000 0.303491
v 0.794417 0.866026 0.303491
v 0.428391 0.500001 0.303491
v 0.294416 0.000001 0.303491
v 0.428391 -0.499999 0.303491
v 0.794415 -0.866025 0.303491
v 1.294415 -1.000000 0.303491
v 1.794415 -0.866026 0.303491
v 2.160441 -0.500001 0.303491
v 2.294416 -0.000001 0.303491
v 2.160442 0.500000 0.553491
v 1.794417 0.866025 0.553491
v 1.294417 1.000000 0.553491
v 0.794417 0.866026 0.553491
v 0.428391 0.500001 0.553491
v 0.294416 0.000001 0.553491
v 0.428391 -0.499999 0.553491
v 0.794415 -0.866025 0.553491
v 1.294415 -1.000000 0.553491
v 1.794415 -0.866026 0.553491
v 2.160441 -0.500001 0.553491
v 2.294416 -0.000001 0.553491
v 2.160442 0.500000 0.803491
v 1.794417 0.866025 0.803491
v 1.294417 1.000000 0.803491
v 0.794417 0.866026 0.803491
v 0.428391 0.500001 0.803491
v 0.294416 0.000001 0.803491
v 0.428391 -0.499999 0.803491
v 0.794415 -0.866025 0.803491
v 1.294415 -1.000000 0.803491
v 1.794415 -0.866026 0.803491
v 2.160441 -0.500001 0.803491
v 2.294416 -0.000001 0.803491
v 2.160442 0.500000 1.053491
v 1.794417 0.866025 1.053491
v 1.294417 1.000000 1.053491
v 0.794417 0.866026 1.053491
v 0.428391 0.500001 1.053491
v 0.294416 0.000001 1.053491
v 0.428391 -0.499999 1.053491
v 0.794415 -0.866025 1.053491
v 1.294415 -1.000000 1.053491
v 1.794415 -0.866026 1.053491
v 2.160441 -0.500001 1.053491
v 2.294416 -0.000001 1.053491
v 2.160442 0.500000 1.303491
v 1.794417 0.866025 1.303491
v 1.294417 1.000000 1.303491
v 0.794417 0.866026 1.303491
v 0.428391 0.500001 1.303491
v 0.294416 0.000001 1.303491
v 0.428391 -0.499999 1.303491
v 0.794415 -0.866025 1.303491
v 1.294415 -1.000000 1.303491
v 1.794415 -0.866026 1.303491
v 2.160441 -0.500001 1.303491
v 2.294416 -0.000001 1.303491
v 2.160442 0.500000 1.553491
v 1.794417 0.866025 1.553491
v 1.294417 1.000000 1.553491
v 0.794417 0.866026 1.553491
v 0.428391 0.500001 1.553491
v 0.294416 0.000001 1.553491
v 0.428391 -0.499999 1.553491
v 0.794415 -0.866025 1.553491
v 1.294415 -1.000000 1.553491
v 1.794415 -0.866026 1.553491
v 2.160441 -0.500001 1.553491
v 2.294416 -0.000001 1.553491
v 2.160442 0.500000 1.803491
v 1.794417 0.866025 1.803491
v 1.294417 1.000000 1.803491
v 0.794417 0.866026 1.803491
v 0.428391 0.500001 1.803491
v 0.294416 0.000001 1.803491
v 0.428391 -0.499999 1.803491
v 0.794415 -0.866025 1.803491
v 1.294415 -1.000000 1.803491
v 1.794415 -0.866026 1.803491
v 2.160441 -0.500001 1.803491
v 2.294416 -0.000001 1.803491
v 2.160442 0.500000 2.053491
v 1.794417 0.866025 2.053491
v 1.294417 1.000000 2.053491
v 0.794417 0.866026 2.053491
v 0.428391 0.500001 2.053491
v 0.294416 0.000001 2.053491
v 0.428391 -0.499999 2.053491
v 0.794415 -0.866025 2.053491
v 1.294415 -1.000000 2.053491
v 1.794415 -0.866026 2.053491
v 2.160441 -0.500001 2.053491
v 2.294416 -0.000001 2.053491
v 2.160442 0.500000 2.303491
v 1.794417 0.866025 2.303491
v 1.294417 1.000000 2.303491
v 0.794417 0.866026 2.303491
v 0.428391 0.500001 2.303491
v 0.294416 0.000001 2.303491
v 0.428391 -0.499999 2.303491
v 0.794415 -0.866025 2.303491
v 1.294415 -1.000000 2.303491
v 1.794415 -0.866026 2.303491
v 2.160441 -0.500001 2.303491
v 2.294416 -0.000001 2.303491
v 2.160442 0.500000 2.553491
v 1.794417 0.866025 2.553491
v 1.294417 1.000000 2.553491
v 0.794417 0.866026 2.553491
v 0.428391 0.500001 2.553491
v 0.294416 0.000001 2.553491
v 0.428391 -0.499999 2.553491
v 0.794415 -0.866025 2.553491
v 1.294415 -1.000000 2.553491
v 1.794415 -0.866026 2.553491
v 2.160441 -0.500001 2.553491
v 2.294416 -0.000001 2.553491
v 2.160442 0.500000 2.803491
v 1.794417 0.866025 2.803491
v 1.294417 1.000000 2.803491
v 0.794417 0.866026 2.803491
v 0.428391 0.500001 2.803491
v 0.294416 0.000001 2.803491
v 0.428391 -0.499999 2.803491
v 0.794415 -0.866025 2.803491
v 1.294415 -1.000000 2.803491
v 1.794415 -0.866026 2.803491
v 2.160441 -0.500001 2.803491
v 2.294416 -0.000001 2.803491
v 2.160442 0.500000 3.053491
v 1.794417 0.866025 3.053491
v 1.294417 1.000000 3.053491
v 0.794417 0.866026 3.053491
v 0.428391 0.500001 3.053491
v 0.294416 0.000001 3.053491
v 0.428391 -0.499999 3.053491
v 0.794415 -0.866025 3.053491
v 1.294415 -1.000000 3.053491
v 1.794415 -0.866026 3.053491
v 2.160441 -0.500001 3.053491
v 2.294416 -0.000001 3.053491
v -2.665247 0.492545 -1.785513
v -2.665247 -0.000001 -1.917490
v -2.498968 0.492545 -1.785513
v -2.498968 -0.000001 -1.917490
v -2.665247 0.853114 -1.424944
v -2.498968 0.853114 -1.424944
v -2.665247 0.985091 -0.932399
v -2.498968 0.985091 -0.932399
v -2.665247 0.853114 -0.439853
v -2.498968 0.853114 -0.439853
v -2.665247 0.492546 -0.079284
v -2.498968 0.492546 -0.079284
v -2.665247 0.000001 0.052693
v -2.498968 0.000001 0.052693
v -2.665247 -0.492545 -0.079284
v -2.498968 -0.492545 -0.079284
v -2.665247 -0.853114 -0.439852
v -2.498968 -0.853114 -0.439852
v -2.665247 -0.985091 -0.932397
v -2.498968 -0.985091 -0.932397
v -2.665247 -0.853115 -1.424943
v -2.498968 -0.853115 -1.424943
v -2.665247 -0.492547 -1.785512
v -2.498968 -0.492547 -1.785512
v -2.345854 0.492545 -1.785513
v -2.345854 -0.000001 -1.917490
v -2.345854 0.853114 -1.424944
v -2.345854 0.985091 -0.932399
v -2.345854 0.853114 -0.439853
v -2.345854 0.492546 -0.079284
v -2.345854 0.000001 0.052693
v -2.345854 -0.492545 -0.079284
v -2.345854 -0.853114 -0.439852
v -2.345854 -0.985091 -0.932397
v -2.345854 -0.853115 -1.424943
v -2.345854 -0.492547 -1.785512
v -2.202071 0.492545 -1.785513
v -2.202071 -0.000001 -1.917490
v -2.202071 0.853114 -1.424944
v -2.202071 0.985091 -0.932399
v -2.202071 0.853114 -0.439853
v -2.202071 0.492546 -0.079284
v -2.202071 0.000001 0.052693
v -2.202071 -0.492545 -0.079284
v -2.202071 -0.853114 -0.439852
v -2.202071 -0.985091 -0.932397
v -2.202071 -0.853115 -1.424943
v -2.202071 -0.492547 -1.785512
v -2.063784 0.492545 -1.785513
v -2.063784 -0.000001 -1.917490
v -2.063784 0.853114 -1.424944
v -2.063784 0.985091 -0.932399
v -2.063784 0.853114 -0.439853
v -2.063784 0.492546 -0.079284
v -2.063784 0.000001 0.052693
v -2.063784 -0.492545 -0.079284
v -2.063784 -0.853114 -0.439852
v -2.063784 -0.985091 -0.932397
v -2.063784 -0.853115 -1.424943
v -2.063784 -0.492547 -1.785512
v -1.927156 0.492545 -1.785513
v -1.927156 -0.000001 -1.917490
v -1.927156 0.853114 -1.424944
v -1.927156 0.985091 -0.932399
v -1.927156 0.853114 -0.439853
v -1.927156 0.492546 -0.079284
v -1.927156 0.000001 0.052693
v -1.927156 -0.492545 -0.079284
v -1.927156 -0.853114 -0.439852
v -1.927156 -0.985091 -0.932397
v -1.927156 -0.853115 -1.424943
v -1.927156 -0.492547 -1.785512
v -1.788353 0.492545 -1.785513
v -1.788353 -0.000001 -1.917490
v -1.788353 0.853114 -1.424944
v -1.788353 0.985091 -0.932399
v -1.788353 0.853114 -0.439853
v -1.788353 0.492546 -0.079284
v -1.788353 0.000001 0.052693
v -1.788353 -0.492545 -0.079284
v -1.788353 -0.853114 -0.439852
v -1.788353 -0.985091 -0.932397
v -1.788353 -0.853115 -1.424943
v -1.788353 -0.492547 -1.785512
v -1.643539 0.492545 -1.785513
v -1.643539 -0.000001 -1.917490
v -1.643539 0.853114 -1.424944
v -1.643539 0.985091 -0.932399
v -1.643539 0.853114 -0.439853
v -1.643539 0.492546 -0.079284
v -1.643539 0.000001 0.052693
v -1.643539 -0.492545 -0.079284
v -1.643539 -0.853114 -0.439852
v -1.643539 -0.985091 -0.932397
v -1.643539 -0.853115 -1.424943
v -1.643539 -0.492547 -1.785512
v -1.488879 0.492545 -1.785513
v -1.488879 -0.000001 -1.917490
v -1.488879 0.853114 -1.424944
v -1.488879 0.985091 -0.932399
v -1.488879 0.853114 -0.439853
v -1.488879 0.492546 -0.079284
v -1.488879 0.000001 0.052693
v -1.488879 -0.492545 -0.079284
v -1.488879 -0.853114 -0.439852
v -1.488879 -0.985091 -0.932397
v -1.488879 -0.853115 -1.424943
v -1.488879 -0.492547 -1.785512
v -1.320536 0.492545 -1.785513
v -1.320536 -0.000001 -1.917490
v -1.320536 0.853114 -1.424944
v -1.320536 0.985091 -0.932399
v -1.320536 0.853114 -0.439853
v -1.320536 0.492546 -0.079284
v -1.320536 0.000001 0.052693
v -1.320536 -0.492545 -0.079284
v -1.320536 -0.853114 -0.439852
v -1.320536 -0.985091 -0.932397
v -1.320536 -0.853115 -1.424943
v -1.320536 -0.492547 -1.785512
v -1.134677 0.492545 -1.785513
v -1.134677 -0.000001 -1.917490
v -1.134677 0.853114 -1.424944
v -1.134677 0.985091 -0.932399
v -1.134677 0.853114 -0.439853
v -1.134677 0.492546 -0.079284
v -1.134677 0.000001 0.052693
v -1.134677 -0.492545 -0.079284
v -1.134677 -0.853114 -0.439852
v -1.134677 -0.985091 -0.932397
v -1.134677 -0.853115 -1.424943
v -1.134677 -0.492547 -1.785512
v -0.927465 0.492545 -1.785513
v -0.927465 -0.000001 -1.917490
v -0.927465 0.853114 -1.424944
v -0.927465 0.985091 -0.932399
v -0.927465 0.853114 -0.439853
v -0.927465 0.492546 -0.079284
v -0.927465 0.000001 0.052693
v -0.927465 -0.492545 -0.079284
v -0.927465 -0.853114 -0.439852
v -0.927465 -0.985091 -0.932397
v -0.927465 -0.853115 -1.424943
v -0.927465 -0.492547 -1.785512
v -0.694075 0.492546 -1.785512
v -0.693922 -0.000001 -1.917489
v -0.694493 0.853114 -1.424944
v -0.695064 0.985092 -0.932399
v -0.695636 0.853115 -0.439853
v -0.696054 0.492546 -0.079285
v -0.696207 0.000001 0.052693
v -0.696054 -0.492545 -0.079284
v -0.695636 -0.853114 -0.439852
v -0.695064 -0.985092 -0.932397
v -0.694493 -0.853115 -1.424943
v -0.694075 -0.492547 -1.785511
v -0.441347 0.492546 -1.784905
v -0.440107 -0.000001 -1.916876
v -0.444734 0.853114 -1.424353
v -0.449362 0.985092 -0.931829
v -0.453989 0.853115 -0.439305
v -0.457376 0.492546 -0.078752
v -0.458616 0.000001 0.053220
v -0.457376 -0.492545 -0.078751
v -0.453989 -0.853114 -0.439303
v -0.449362 -0.985092 -0.931827
v -0.444734 -0.853115 -1.424351
v -0.441347 -0.492547 -1.784904
v -0.180449 0.492545 -1.780536
v -0.176329 -0.000001 -1.912449
v -0.191704 0.853114 -1.420144
v -0.207079 0.985091 -0.927838
v -0.222454 0.853114 -0.435533
v -0.233710 0.492546 -0.075140
v -0.237830 0.000001 0.056774
v -0.233710 -0.492545 -0.075139
v -0.222454 -0.853114 -0.435531
v -0.207079 -0.985091 -0.927837
v -0.191704 -0.853115 -1.420142
v -0.180449 -0.492547 -1.780535
v 0.087764 0.492546 -1.768050
v 0.096953 -0.000001 -1.899707
v 0.062658 0.853114 -1.408357
v 0.028362 0.985091 -0.917007
v -0.005933 0.853114 -0.425656
v -0.031039 0.492546 -0.065963
v -0.040229 0.000001 0.065694
v -0.031039 -0.492545 -0.065962
v -0.005933 -0.853114 -0.425655
v 0.028362 -0.985091 -0.917005
v 0.062658 -0.853115 -1.408355
v 0.087764 -0.492547 -1.768049
v 0.362595 0.492546 -1.742029
v 0.379466 -0.000001 -1.872923
v 0.316504 0.853114 -1.384419
v 0.253542 0.985091 -0.895914
v 0.190580 0.853115 -0.407409
v 0.144489 0.492546 -0.049798
v 0.127618 0.000001 0.081097
v 0.144489 -0.492545 -0.049798
v 0.190580 -0.853114 -0.407408
v 0.253542 -0.985091 -0.895912
v 0.316504 -0.853115 -1.384417
v 0.362595 -0.492547 -1.742028
v 0.644444 0.492546 -1.695176
v 0.672198 -0.000001 -1.824202
v 0.568619 0.853114 -1.342671
v 0.465041 0.985092 -0.861139
v 0.361462 0.853114 -0.379607
v 0.285637 0.492546 -0.027102
v 0.257884 0.000001 0.101925
v 0.285637 -0.492545 -0.027101
v 0.361462 -0.853114 -0.379606
v 0.465040 -0.985092 -0.861138
v 0.568619 -0.853115 -1.342670
v 0.644444 -0.492547 -1.695176
v 0.934002 0.492545 -1.616986
v 0.976478 -0.000001 -1.741941
v 0.817957 0.853114 -1.275602
v 0.659437 0.985091 -0.809262
v 0.500916 0.853115 -0.342923
v 0.384871 0.492546 -0.001539
v 0.342395 0.000001 0.123417
v 0.384870 -0.492545 -0.001538
v 0.500915 -0.853114 -0.342921
v 0.659436 -0.985091 -0.809261
v 0.817957 -0.853115 -1.275600
v 0.934002 -0.492547 -1.616985
v 1.229417 0.492545 -1.492444
v 1.290694 -0.000001 -1.609332
v 1.062002 0.853114 -1.173098
v 0.833310 0.985091 -0.736863
v 0.604617 0.853114 -0.300627
v 0.437203 0.492546 0.018719
v 0.375925 0.000001 0.135608
v 0.437202 -0.492545 0.018720
v 0.604617 -0.853114 -0.300626
v 0.833309 -0.985091 -0.736861
v 1.062001 -0.853115 -1.173097
v 1.229416 -0.492546 -1.492443
v 1.520061 0.492545 -1.303563
v 1.603107 -0.000001 -1.406136
v 1.293174 0.853114 -1.023328
v 0.983240 0.985091 -0.640520
v 0.673306 0.853114 -0.257711
v 0.446418 0.492546 0.022524
v 0.363372 0.000001 0.125098
v 0.446418 -0.492545 0.022525
v 0.673305 -0.853114 -0.257710
v 0.983239 -0.985091 -0.640518
v 1.293173 -0.853115 -1.023327
v 1.520060 -0.492547 -1.303562
v 1.780586 0.492546 -1.038805
v 1.884975 -0.000001 -1.119557
v 1.495391 0.853114 -0.818185
v 1.105806 0.985092 -0.516813
v 0.716222 0.853115 -0.215441
v 0.431026 0.492546 0.005179
v 0.326637 0.000001 0.085932
v 0.431025 -0.492545 0.005180
v 0.716221 -0.853114 -0.215440
v 1.105805 -0.985092 -0.516812
v 1.495390 -0.853115 -0.818184
v 1.780586 -0.492547 -1.038804
v 1.977903 0.492545 -0.707159
v 2.098618 -0.000001 -0.760506
v 1.648103 0.853114 -0.561414
v 1.197589 0.985091 -0.362322
v 0.747074 0.853114 -0.163231
v 0.417274 0.492546 -0.017485
v 0.296558 0.000001 0.035861
v 0.417273 -0.492545 -0.017485
v 0.747072 -0.853114 -0.163230
v 1.197587 -0.985091 -0.362322
v 1.648103 -0.853115 -0.561413
v 1.977903 -0.492547 -0.707159
v 2.092596 0.492545 -0.336460
v 2.222147 -0.000001 -0.361651
v 1.738657 0.853114 -0.267639
v 1.255166 0.985091 -0.173627
v 0.771676 0.853114 -0.079615
v 0.417736 0.492546 -0.010794
v 0.288185 0.000001 0.014397
v 0.417735 -0.492545 -0.010793
v 0.771675 -0.853114 -0.079615
v 1.255165 -0.985091 -0.173627
v 1.738655 -0.853115 -0.267639
v 2.092596 -0.492547 -0.336460
v 2.127409 0.492545 0.015197
v 2.259258 -0.000001 0.009396
v 1.767189 0.853114 0.031045
v 1.275119 0.985091 0.052693
v 0.783049 0.853115 0.074342
v 0.422829 0.492546 0.090190
v 0.290979 0.000001 0.095991
v 0.422828 -0.492545 0.090190
v 0.783048 -0.853114 0.074342
v 1.275118 -0.985091 0.052693
v 1.767187 -0.853115 0.031045
v 2.127408 -0.492547 0.015197
v 2.128233 0.492545 0.298966
v 2.260210 -0.000001 0.298966
v 1.767665 0.853114 0.298966
v 1.275119 0.985091 0.298966
v 0.782573 0.853114 0.298966
v 0.422005 0.492546 0.298966
v 0.290027 0.000001 0.298966
v 0.422004 -0.492545 0.298966
v 0.782572 -0.853114 0.298966
v 1.275118 -0.985091 0.298966
v 1.767663 -0.853115 0.298966
v 2.128232 -0.492547 0.298966
v 2.128233 0.492545 0.545239
v 2.260210 -0.000001 0.545239
v 1.767665 0.853114 0.545239
v 1.275119 0.985091 0.545239
v 0.782573 0.853114 0.545239
v 0.422005 0.492546 0.545239
v 0.290027 0.000001 0.545239
v 0.422004 -0.492545 0.545239
v 0.782572 -0.853114 0.545239
v 1.275118 -0.985091 0.545239
v 1.767663 -0.853115 0.545239
v 2.128232 -0.492547 0.545239
v 2.128233 0.492545 0.791512
v 2.260210 -0.000001 0.791512
v 1.767665 0.853114 0.791512
v 1.275119 0.985091 0.791512
v 0.782573 0.853114 0.791512
v 0.422005 0.492546 0.791512
v 0.290027 0.000001 0.791512
v 0.422004 -0.492545 0.791512
v 0.782572 -0.853114 0.791512
v 1.275118 -0.985091 0.791512
v 1.767663 -0.853115 0.791512
v 2.128232 -0.492547 0.791512
v 2.128233 0.492545 1.037785
v 2.260210 -0.000001 1.037785
v 1.767665 0.853114 1.037785
v 1.275119 0.985091 1.037785
v 0.782573 0.853114 1.037785
v 0.422005 0.492546 1.037785
v 0.290027 0.000001 1.037785
v 0.422004 -0.492545 1.037785
v 0.782572 -0.853114 1.037785
v 1.275118 -0.985091 1.037785
v 1.767663 -0.853115 1.037785
v 2.128232 -0.492547 1.037785
v 2.128233 0.492545 1.284057
v 2.260210 -0.000001 1.284057
v 1.767665 0.853114 1.284057
v 1.275119 0.985091 1.284057
v 0.782573 0.853114 1.284057
v 0.422005 0.492546 1.284057
v 0.290027 0.000001 1.284057
v 0.422004 -0.492545 1.284057
v 0.782572 -0.853114 1.284057
v 1.275118 -0.985091 1.284057
v 1.767663 -0.853115 1.284057
v 2.128232 -0.492547 1.284057
v 2.128233 0.492545 1.530330
v 2.260210 -0.000001 1.530330
v 1.767665 0.853114 1.530330
v 1.275119 0.985091 1.530330
v 0.782573 0.853114 1.530330
v 0.422005 0.492546 1.530330
v 0.290027 0.000001 1.530330
v 0.422004 -0.492545 1.530330
v 0.782572 -0.853114 1.530330
v 1.275118 -0.985091 1.530330
v 1.767663 -0.853115 1.530330
v 2.128232 -0.492547 1.530330
v 2.128233 0.492545 1.776603
v 2.260210 -0.000001 1.776603
v 1.767665 0.853114 1.776603
v 1.275119 0.985091 1.776603
v 0.782573 0.853114 1.776603
v 0.422005 0.492546 1.776603
v 0.290027 0.000001 1.776603
v 0.422004 -0.492545 1.776603
v 0.782572 -0.853114 1.776603
v 1.275118 -0.985091 1.776603
v 1.767663 -0.853115 1.776603
v 2.128232 -0.492547 1.776603
v 2.128233 0.492545 2.022876
v 2.260210 -0.000001 2.022876
v 1.767665 0.853114 2.022876
v 1.275119 0.985091 2.022876
v 0.782573 0.853114 2.022876
v 0.422005 0.492546 2.022876
v 0.290027 0.000001 2.022876
v 0.422004 -0.492545 2.022876
v 0.782572 -0.853114 2.022876
v 1.275118 -0.985091 2.022876
v 1.767663 -0.853115 2.022876
v 2.128232 -0.492547 2.022876
v 2.128233 0.492545 2.269149
v 2.260210 -0.000001 2.269149
v 1.767665 0.853114 2.269149
v 1.275119 0.985091 2.269149
v 0.782573 0.853114 2.269149
v 0.422005 0.492546 2.269149
v 0.290027 0.000001 2.269149
v 0.422004 -0.492545 2.269149
v 0.782572 -0.853114 2.269149
v 1.275118 -0.985091 2.269149
v 1.767663 -0.853115 2.269149
v 2.128232 -0.492547 2.269149
v 2.128233 0.492545 2.515422
v 2.260210 -0.000001 2.515422
v 1.767665 0.853114 2.515422
v 1.275119 0.985091 2.515422
v 0.782573 0.853114 2.515422
v 0.422005 0.492546 2.515422
v 0.290027 0.000001 2.515422
v 0.422004 -0.492545 2.515422
v 0.782572 -0.853114 2.515422
v 1.275118 -0.985091 2.515422
v 1.767663 -0.853115 2.515422
v 2.128232 -0.492547 2.515422
v 2.128233 0.492545 2.761695
v 2.260210 -0.000001 2.761695
v 1.767665 0.853114 2.761695
v 1.275119 0.985091 2.761695
v 0.782573 0.853114 2.761695
v 0.422005 0.492546 2.761695
v 0.290027 0.000001 2.761695
v 0.422004 -0.492545 2.761695
v 0.782572 -0.853114 2.761695
v 1.275118 -0.985091 2.761695
v 1.767663 -0.853115 2.761695
v 2.128232 -0.492547 2.761695
v 2.128233 0.492545 3.007967
v 2.260210 -0.000001 3.007967
v 1.767665 0.853114 3.007967
v 1.275119 0.985091 3.007967
v 0.782573 0.853114 3.007967
v 0.422005 0.492546 3.007967
v 0.290027 0.000001 3.007967
v 0.422004 -0.492545 3.007967
v 0.782572 -0.853114 3.007967
v 1.275118 -0.985091 3.007967
v 1.767663 -0.853115 3.007967
v 2.128232 -0.492547 3.007967
vn 0.9054 -0.2361 0.3529
vn 0.9195 -0.3677 0.1389
vn 0.9372 -0.3285 -0.1169
vn 0.9449 -0.1170 -0.3057
vn 0.9150 0.2175 -0.3398
vn 0.9851 -0.0000 -0.1717
vn 0.9150 -0.2175 -0.3398
vn 0.9449 0.1170 -0.3057
vn 0.9372 0.3285 -0.1169
vn 0.9195 0.3677 0.1389
vn 0.9054 0.2361 0.3529
vn 0.9002 -0.0000 0.4354
vn -0.0000 -0.5000 0.8660
vn -0.0000 -0.8660 0.5000
vn -0.0000 -1.0000 -0.0000
vn -0.0000 -0.8660 -0.5000
vn -0.0000 -0.5000 -0.8660
vn -0.0000 -0.0000 -1.0000
vn -0.0000 0.5000 -0.8660
vn -0.0000 0.8660 -0.5000
vn -0.0000 1.0000 -0.0000
vn -0.0000 0.8660 0.5000
vn -0.0000 0.5000 0.8660
vn -0.0000 -0.0000 1.0000
vn -0.0010 -0.4999 0.8661
vn -0.0006 -0.8659 0.5001
vn -0.0000 -1.0000 0.0002
vn 0.0006 -0.8661 -0.4999
vn 0.0010 -0.5001 -0.8660
vn 0.0011 -0.0000 -1.0000
vn 0.0010 0.5001 -0.8660
vn 0.0006 0.8661 -0.4999
vn -0.0000 1.0000 0.0002
vn -0.0006 0.8659 0.5001
vn -0.0010 0.4999 0.8661
vn -0.0012 -0.0000 1.0000
vn -0.0083 -0.4995 0.8663
vn -0.0048 -0.8655 0.5009
vn -0.0000 -1.0000 0.0012
vn 0.0046 -0.8665 -0.4991
vn 0.0080 -0.5005 -0.8657
vn 0.0092 -0.0000 -1.0000
vn 0.0080 0.5005 -0.8657
vn 0.0046 0.8665 -0.4991
vn -0.0000 1.0000 0.0012
vn -0.0048 0.8655 0.5009
vn -0.0083 0.4995 0.8663
vn -0.0096 -0.0000 1.0000
vn -0.0274 -0.4989 0.8662
vn -0.0158 -0.8650 0.5016
vn -0.0001 -1.0000 0.0024
vn 0.0154 -0.8671 -0.4980
vn 0.0266 -0.5010 -0.8650
vn 0.0306 -0.0000 -0.9995
vn 0.0266 0.5010 -0.8650
vn 0.0154 0.8671 -0.4980
vn -0.0001 1.0000 0.0024
vn -0.0158 0.8650 0.5016
vn -0.0274 0.4989 0.8662
vn -0.0317 -0.0000 0.9995
vn -0.0610 -0.4983 0.8649
vn -0.0353 -0.8643 0.5017
vn -0.0003 -1.0000 0.0039
vn 0.0343 -0.8677 -0.4959
vn 0.0593 -0.5017 -0.8630
vn 0.0684 -0.0000 -0.9977
vn 0.0593 0.5016 -0.8630
vn 0.0343 0.8677 -0.4959
vn -0.0003 1.0000 0.0039
vn -0.0353 0.8643 0.5017
vn -0.0610 0.4983 0.8649
vn -0.0704 -0.0000 0.9975
vn -0.1120 -0.4975 0.8602
vn -0.0650 -0.8635 0.5001
vn -0.0009 -1.0000 0.0057
vn 0.0626 -0.8685 -0.4918
vn 0.1085 -0.5024 -0.8578
vn 0.1250 -0.0000 -0.9922
vn 0.1085 0.5024 -0.8578
vn 0.0626 0.8685 -0.4918
vn -0.0009 1.0000 0.0057
vn -0.0650 0.8635 0.5001
vn -0.1120 0.4975 0.8602
vn -0.1293 -0.0000 0.9916
vn -0.1845 -0.4965 0.8482
vn -0.1073 -0.8625 0.4946
vn -0.0020 -1.0000 0.0078
vn 0.1023 -0.8694 -0.4834
vn 0.1768 -0.5032 -0.8459
vn 0.2034 -0.0000 -0.9791
vn 0.1768 0.5032 -0.8459
vn 0.1023 0.8694 -0.4834
vn -0.0020 1.0000 0.0078
vn -0.1073 0.8625 0.4946
vn -0.1845 0.4965 0.8482
vn -0.2127 -0.0000 0.9771
vn -0.2825 -0.4952 0.8215
vn -0.1649 -0.8612 0.4808
vn -0.0040 -0.9999 0.0103
vn 0.1549 -0.8706 -0.4670
vn 0.2645 -0.5039 -0.8223
vn 0.3010 -0.0000 -0.9536
vn 0.2645 0.5039 -0.8223
vn 0.1549 0.8706 -0.4670
vn -0.0040 0.9999 0.0103
vn -0.1649 0.8612 0.4808
vn -0.2825 0.4952 0.8215
vn -0.3255 -0.0000 0.9456
vn -0.4073 -0.4938 0.7683
vn -0.2389 -0.8597 0.4515
vn -0.0074 -0.9999 0.0125
vn 0.2201 -0.8719 -0.4373
vn 0.0340 -0.6423 -0.7657
vn -0.6986 -0.0000 -0.7155
vn 0.0340 0.6423 -0.7657
vn 0.2201 0.8719 -0.4373
vn -0.0074 0.9999 0.0125
vn -0.2389 0.8597 0.4515
vn -0.4073 0.4938 0.7683
vn -0.4686 -0.0000 0.8834
vn -0.5505 -0.4925 0.6742
vn -0.3243 -0.8583 0.3977
vn -0.0119 -0.9998 0.0136
vn 0.2944 -0.8736 -0.3875
vn -0.5876 -0.8058 -0.0727
vn -0.8247 -0.0000 0.5655
vn -0.5877 0.8058 -0.0727
vn 0.2944 0.8736 -0.3876
vn -0.0119 0.9998 0.0136
vn -0.3243 0.8583 0.3977
vn -0.5505 0.4925 0.6742
vn -0.6326 -0.0000 0.7745
vn -0.6895 -0.4917 0.5319
vn -0.4073 -0.8575 0.3144
vn -0.0161 -0.9998 0.0121
vn 0.3771 -0.8759 -0.3010
vn -0.5015 -0.8063 0.3136
vn -0.7998 -0.0000 0.6003
vn -0.5015 0.8063 0.3136
vn 0.3771 0.8759 -0.3010
vn -0.0161 0.9998 0.0121
vn -0.4073 0.8575 0.3144
vn -0.6895 0.4917 0.5319
vn -0.7918 -0.0000 0.6107
vn -0.7956 -0.4918 0.3537
vn -0.4700 -0.8576 0.2087
vn -0.0179 -0.9998 0.0083
vn 0.4454 -0.8750 -0.1898
vn -0.2597 -0.8978 0.3556
vn -0.8694 -0.0000 0.4941
vn -0.2597 0.8978 0.3556
vn 0.4454 0.8750 -0.1898
vn -0.0179 0.9998 0.0083
vn -0.4700 0.8576 0.2087
vn -0.7956 0.4918 0.3537
vn -0.9137 -0.0000 0.4063
vn -0.8528 -0.4931 0.1721
vn -0.5022 -0.8589 0.1006
vn -0.0166 -0.9999 0.0042
vn 0.4793 -0.8736 -0.0841
vn 0.7186 -0.6887 0.0964
vn 0.3763 -0.0000 0.9265
vn 0.7186 0.6887 0.0964
vn 0.4793 0.8736 -0.0841
vn -0.0166 0.9999 0.0042
vn -0.5022 0.8589 0.1006
vn -0.8528 0.4931 0.1721
vn -0.9802 -0.0000 0.1983
vn -0.8670 -0.4964 0.0439
vn -0.5053 -0.8626 0.0248
vn -0.0072 -1.0000 0.0011
vn 0.4955 -0.8684 -0.0166
vn 0.8651 -0.5012 -0.0209
vn 0.9998 -0.0000 -0.0193
vn 0.8651 0.5012 -0.0209
vn 0.4955 0.8684 -0.0166
vn -0.0072 1.0000 0.0011
vn -0.5053 0.8626 0.0248
vn -0.8670 0.4964 0.0439
vn -0.9987 -0.0000 0.0511
vn -0.8661 -0.4998 0.0012
vn -0.5002 -0.8659 0.0005
vn -0.0000 -1.0000 0.0001
vn 0.5002 -0.8659 0.0006
vn 0.8662 -0.4998 0.0016
vn 1.0000 -0.0000 0.0022
vn 0.8662 0.4998 0.0016
vn 0.5002 0.8659 0.0006
vn -0.0000 1.0000 0.0001
vn -0.5002 0.8659 0.0005
vn -0.8661 0.4998 0.0012
vn -1.0000 -0.0000 0.0015
vn -0.8660 -0.5000 -0.0000
vn -0.5000 -0.8660 -0.0000
vn 0.5000 -0.8660 -0.0000
vn 0.8660 -0.5000 -0.0000
vn 1.0000 -0.0000 -0.0000
vn 0.8660 0.5000 -0.0000
vn 0.5000 0.8660 -0.0000
vn -0.5000 0.8660 -0.0000
vn -0.8660 0.5000 -0.0000
vn -1.0000 -0.0000 -0.0000
vn -0.3564 -0.2430 -0.9022
vn -0.1278 -0.3740 -0.9186
vn 0.1560 -0.3146 -0.9363
vn 0.4291 0.0005 -0.9033
vn 0.2821 0.6789 0.6779
vn -0.1163 -0.0000 0.9932
vn 0.2821 -0.6789 0.6779
vn 0.4291 -0.0005 -0.9033
vn 0.1560 0.3146 -0.9363
vn -0.1278 0.3740 -0.9186
vn -0.3564 0.2430 -0.9022
vn -0.4436 -0.0000 -0.8962
vn 0.3043 0.4871 -0.8186
vn 0.3227 -0.0000 -0.9465
vn 0.2510 0.8495 -0.4640
vn 0.1720 0.9847 0.0280
vn 0.0900 0.8497 0.5195
vn 0.0309 0.4871 0.8728
vn 0.0099 -0.0000 1.0000
vn 0.0309 -0.4871 0.8728
vn 0.0900 -0.8497 0.5195
vn 0.1720 -0.9847 0.0280
vn 0.2510 -0.8495 -0.4640
vn 0.3043 -0.4871 -0.8186
vn 0.0010 0.4999 -0.8661
vn 0.0012 -0.0000 -1.0000
vn 0.0006 0.8659 -0.5001
vn -0.0000 1.0000 -0.0002
vn -0.0006 0.8661 0.4999
vn -0.0010 0.5001 0.8660
vn -0.0011 -0.0000 1.0000
vn -0.0010 -0.5001 0.8660
vn -0.0006 -0.8661 0.4999
vn -0.0000 -1.0000 -0.0002
vn 0.0006 -0.8659 -0.5001
vn 0.0010 -0.4999 -0.8661
vn 0.0083 0.4995 -0.8663
vn 0.0096 -0.0000 -1.0000
vn 0.0048 0.8655 -0.5009
vn -0.0000 1.0000 -0.0012
vn -0.0046 0.8665 0.4991
vn -0.0080 0.5005 0.8657
vn -0.0092 -0.0000 1.0000
vn -0.0080 -0.5005 0.8657
vn -0.0046 -0.8665 0.4991
vn -0.0000 -1.0000 -0.0012
vn 0.0048 -0.8655 -0.5009
vn 0.0083 -0.4995 -0.8663
vn 0.0274 0.4989 -0.8662
vn 0.0317 -0.0000 -0.9995
vn 0.0158 0.8650 -0.5016
vn 0.0001 1.0000 -0.0024
vn -0.0154 0.8671 0.4980
vn -0.0266 0.5010 0.8650
vn -0.0306 -0.0000 0.9995
vn -0.0266 -0.5010 0.8650
vn -0.0154 -0.8671 0.4980
vn 0.0001 -1.0000 -0.0024
vn 0.0158 -0.8650 -0.5016
vn 0.0274 -0.4989 -0.8662
vn 0.0610 0.4983 -0.8649
vn 0.0704 -0.0000 -0.9975
vn 0.0353 0.8643 -0.5017
vn 0.0003 1.0000 -0.0039
vn -0.0343 0.8677 0.4959
vn -0.0593 0.5017 0.8630
vn -0.0684 -0.0000 0.9977
vn -0.0593 -0.5016 0.8630
vn -0.0343 -0.8677 0.4959
vn 0.0003 -1.0000 -0.0039
vn 0.0353 -0.8643 -0.5017
vn 0.0610 -0.4983 -0.8649
vn 0.1120 0.4975 -0.8602
vn 0.1293 -0.0000 -0.9916
vn 0.0650 0.8635 -0.5001
vn 0.0009 1.0000 -0.0057
vn -0.0626 0.8685 0.4918
vn -0.1085 0.5024 0.8578
vn -0.1250 -0.0000 0.9922
vn -0.1085 -0.5024 0.8578
vn -0.0626 -0.8685 0.4918
vn 0.0009 -1.0000 -0.0057
vn 0.0650 -0.8635 -0.5001
vn 0.1120 -0.4975 -0.8602
vn 0.1845 0.4965 -0.8482
vn 0.2127 -0.0000 -0.9771
vn 0.1073 0.8625 -0.4946
vn 0.0020 1.0000 -0.0078
vn -0.1023 0.8694 0.4834
vn -0.1768 0.5032 0.8459
vn -0.2034 -0.0000 0.9791
vn -0.1768 -0.5032 0.8459
vn -0.1023 -0.8694 0.4834
vn 0.0020 -1.0000 -0.0078
vn 0.1073 -0.8625 -0.4946
vn 0.1845 -0.4965 -0.8482
vn 0.2825 0.4952 -0.8215
vn 0.3255 -0.0000 -0.9456
vn 0.1649 0.8612 -0.4808
vn 0.0040 0.9999 -0.0103
vn -0.1549 0.8706 0.4670
vn -0.2645 0.5039 0.8223
vn -0.3010 -0.0000 0.9536
vn -0.2645 -0.5039 0.8223
vn -0.1549 -0.8706 0.4670
vn 0.0040 -0.9999 -0.0103
vn 0.1649 -0.8612 -0.4808
vn 0.2825 -0.4952 -0.8215
vn 0.4073 0.4938 -0.7683
vn 0.4686 -0.0000 -0.8834
vn 0.2389 0.8597 -0.4515
vn 0.0074 0.9999 -0.0125
vn -0.2201 0.8719 0.4373
vn -0.0340 0.6423 0.7657
vn 0.6986 -0.0000 0.7155
vn -0.0340 -0.6423 0.7657
vn -0.2201 -0.8719 0.4373
vn 0.0074 -0.9999 -0.0125
vn 0.2389 -0.8597 -0.4515
vn 0.4073 -0.4938 -0.7683
vn 0.5505 0.4925 -0.6742
vn 0.6326 -0.0000 -0.7745
vn 0.3243 0.8583 -0.3977
vn 0.0119 0.9998 -0.0136
vn -0.2944 0.8736 0.3875
vn 0.5877 0.8058 0.0727
vn 0.8247 -0.0000 -0.5655
vn 0.5877 -0.8058 0.0727
vn -0.2944 -0.8736 0.3876
vn 0.0119 -0.9998 -0.0136
vn 0.3243 -0.8583 -0.3977
vn 0.5505 -0.4925 -0.6742
vn 0.6895 0.4917 -0.5319
vn 0.7918 -0.0000 -0.6107
vn 0.4073 0.8575 -0.3144
vn 0.0161 0.9998 -0.0121
vn -0.3771 0.8759 0.3010
vn 0.5015 0.8063 -0.3136
vn 0.7998 -0.0000 -0.6003
vn 0.5015 -0.8063 -0.3136
vn -0.3771 -0.8759 0.3010
vn 0.0161 -0.9998 -0.0121
vn 0.4073 -0.8575 -0.3144
vn 0.6895 -0.4917 -0.5319
vn 0.7956 0.4918 -0.3537
vn 0.9137 -0.0000 -0.4063
vn 0.4700 0.8576 -0.2087
vn 0.0179 0.9998 -0.0083
vn -0.4454 0.8750 0.1898
vn 0.2597 0.8978 -0.3556
vn 0.8694 -0.0000 -0.4941
vn 0.2597 -0.8978 -0.3556
vn -0.4454 -0.8750 0.1898
vn 0.0179 -0.9998 -0.0083
vn 0.4700 -0.8576 -0.2087
vn 0.7956 -0.4918 -0.3537
vn 0.8528 0.4931 -0.1721
vn 0.9802 -0.0000 -0.1983
vn 0.5022 0.8589 -0.1006
vn 0.0166 0.9999 -0.0042
vn -0.4793 0.8736 0.0841
vn -0.7186 0.6887 -0.0964
vn -0.3763 -0.0000 -0.9265
vn -0.7186 -0.6887 -0.0964
vn -0.4793 -0.8736 0.0841
vn 0.0166 -0.9999 -0.0042
vn 0.5022 -0.8589 -0.1006
vn 0.8528 -0.4931 -0.1721
vn 0.8670 0.4964 -0.0439
vn 0.9987 -0.0000 -0.0511
vn 0.5053 0.8626 -0.0248
vn 0.0072 1.0000 -0.0011
vn -0.4955 0.8684 0.0166
vn -0.8651 0.5012 0.0209
vn -0.9998 -0.0000 0.0193
vn -0.8651 -0.5012 0.0209
vn -0.4955 -0.8684 0.0166
vn 0.0072 -1.0000 -0.0011
vn 0.5053 -0.8626 -0.0248
vn 0.8670 -0.4964 -0.0439
vn 0.8661 0.4998 -0.0012
vn 1.0000 -0.0000 -0.0015
vn 0.5002 0.8659 -0.0005
vn -0.0000 1.0000 -0.0001
vn -0.5002 0.8659 -0.0006
vn -0.8662 0.4998 -0.0016
vn -1.0000 -0.0000 -0.0022
vn -0.8662 -0.4998 -0.0016
vn -0.5002 -0.8659 -0.0006
vn -0.0000 -1.0000 -0.0001
vn 0.5002 -0.8659 -0.0005
vn 0.8661 -0.4998 -0.0012
vn 0.8154 0.4880 -0.3114
vn 0.9427 -0.0000 -0.3335
vn 0.4606 0.8528 -0.2461
vn -0.0337 0.9884 -0.1480
vn -0.5249 0.8498 -0.0471
vn -0.8741 0.4851 0.0233
vn -0.9989 -0.0000 0.0477
vn -0.8741 -0.4851 0.0233
vn -0.5249 -0.8498 -0.0471
vn -0.0337 -0.9884 -0.1480
vn 0.4605 -0.8528 -0.2461
vn 0.8154 -0.4880 -0.3114
vt 0.000000 1.000000
vt 0.000000 0.916667
vt 0.027778 0.916667
vt 0.027778 1.000000
vt 0.000000 0.083333
vt 0.000000 0.000000
vt 0.027778 0.000000
vt 0.027778 0.083333
vt 0.000000 0.166667
vt 0.027778 0.166667
vt 0.000000 0.250000
vt 0.027778 0.250000
vt 0.000000 0.333333
vt 0.027778 0.333333
vt 0.000000 0.416667
vt 0.027778 0.416667
vt 0.000000 0.500000
vt 0.027778 0.500000
vt 0.000000 0.583333
vt 0.027778 0.583333
vt 0.000000 0.666667
vt 0.027778 0.666667
vt 0.000000 0.750000
vt 0.027778 0.750000
vt 0.000000 0.833333
vt 0.027778 0.833333
vt 0.055556 0.916667
vt 0.055556 1.000000
vt 0.055556 0.000000
vt 0.055556 0.083333
vt 0.055556 0.166667
vt 0.055556 0.250000
vt 0.055556 0.333333
vt 0.055556 0.416667
vt 0.055556 0.500000
vt 0.055556 0.583333
vt 0.055556 0.666667
vt 0.055556 0.750000
vt 0.055556 0.833333
vt 0.083333 0.916667
vt 0.083333 1.000000
vt 0.083333 0.000000
vt 0.083333 0.083333
vt 0.083333 0.166667
vt 0.083333 0.250000
vt 0.083333 0.333333
vt 0.083333 0.416667
vt 0.083333 0.500000
vt 0.083333 0.583333
vt 0.083333 0.666667
vt 0.083333 0.750000
vt 0.083333 0.833333
vt 0.111111 0.916667
vt 0.111111 1.000000
vt 0.111111 0.000000
vt 0.111111 0.083333
vt 0.111111 0.166667
vt 0.111111 0.250000
vt 0.111111 0.333333
vt 0.111111 0.416667
vt 0.111111 0.500000
vt 0.111111 0.583333
vt 0.111111 0.666667
vt 0.111111 0.750000
vt 0.111111 0.833333
vt 0.138889 0.916667
vt 0.138889 1.000000
vt 0.138889 0.000000
vt 0.138889 0.083333
vt 0.138889 0.166667
vt 0.138889 0.250000
vt 0.138889 0.333333
vt 0.138889 0.416667
vt 0.138889 0.500000
vt 0.138889 0.583333
vt 0.138889 0.666667
vt 0.138889 0.750000
vt 0.138889 0.833333
vt 0.166667 0.916667
vt 0.166667 1.000000
vt 0.166667 0.000000
vt 0.166667 0.083333
vt 0.166667 0.166667
vt 0.166667 0.250000
vt 0.166667 0.333333
vt 0.166667 0.416667
vt 0.166667 0.500000
vt 0.166667 0.583333
vt 0.166667 0.666667
vt 0.166667 0.750000
vt 0.166667 0.833333
vt 0.194444 0.916667
vt 0.194444 1.000000
vt 0.194444 0.000000
vt 0.194444 0.083333
vt 0.194444 0.166667
vt 0.194444 0.250000
vt 0.194444 0.333333
vt 0.194444 0.416667
vt 0.194444 0.500000
vt 0.194444 0.583333
vt 0.194444 0.666667
vt 0.194444 0.750000
vt 0.194444 0.833333
vt 0.222222 0.916667
vt 0.222222 1.000000
vt 0.222222 0.000000
vt 0.222222 0.083333
vt 0.222222 0.166667
vt 0.222222 0.250000
vt 0.222222 0.333333
vt 0.222222 0.416667
vt 0.222222 0.500000
vt 0.222222 0.583333
vt 0.222222 0.666667
vt 0.222222 0.750000
vt 0.222222 0.833333
vt 0.250000 0.916667
vt 0.250000 1.000000
vt 0.250000 0.000000
vt 0.250000 0.083333
vt 0.250000 0.166667
vt 0.250000 0.250000
vt 0.250000 0.333333
vt 0.250000 0.416667
vt 0.250000 0.500000
vt 0.250000 0.583333
vt 0.250000 0.666667
vt 0.250000 0.750000
vt 0.250000 0.833333
vt 0.277778 0.916667
vt 0.277778 1.000000
vt 0.277778 0.000000
vt 0.277778 0.083333
vt 0.277778 0.166667
vt 0.277778 0.250000
vt 0.277778 0.333333
vt 0.277778 0.416667
vt 0.277778 0.500000
vt 0.277778 0.583333
vt 0.277778 0.666667
vt 0.277778 0.750000
vt 0.277778 0.833333
vt 0.305556 0.916667
vt 0.305556 1.000000
vt 0.305556 0.000000
vt 0.305556 0.083333
vt 0.305556 0.166667
vt 0.305556 0.250000
vt 0.305556 0.333333
vt 0.305556 0.416667
vt 0.305556 0.500000
vt 0.305556 0.583333
vt 0.305556 0.666667
vt 0.305556 0.750000
vt 0.305556 0.833333
vt 0.333333 0.916667
vt 0.333333 1.000000
vt 0.333333 0.000000
vt 0.333333 0.083333
vt 0.333333 0.166667
vt 0.333333 0.250000
vt 0.333333 0.333333
vt 0.333333 0.416667
vt 0.333333 0.500000
vt 0.333333 0.583333
vt 0.333333 0.666667
vt 0.333333 0.750000
vt 0.333333 0.833333
vt 0.361111 0.916667
vt 0.361111 1.000000
vt 0.361111 0.000000
vt 0.361111 0.083333
vt 0.361111 0.166667
vt 0.361111 0.250000
vt 0.361111 0.333333
vt 0.361111 0.416667
vt 0.361111 0.500000
vt 0.361111 0.583333
vt 0.361111 0.666667
vt 0.361111 0.750000
vt 0.361111 0.833333
vt 0.388889 0.916667
vt 0.388889 1.000000
vt 0.388889 0.000000
vt 0.388889 0.083333
vt 0.388889 0.166667
vt 0.388889 0.250000
vt 0.388889 0.333333
vt 0.388889 0.416667
vt 0.388889 0.500000
vt 0.388889 0.583333
vt 0.388889 0.666667
vt 0.388889 0.750000
vt 0.388889 0.833333
vt 0.416667 0.916667
vt 0.416667 1.000000
vt 0.416667 0.000000
vt 0.416667 0.083333
vt 0.416667 0.166667
vt 0.416667 0.250000
vt 0.416667 0.333333
vt 0.416667 0.416667
vt 0.416667 0.500000
vt 0.416667 0.583333
vt 0.416667 0.666667
vt 0.416667 0.750000
vt 0.416667 0.833333
vt 0.444444 0.916667
vt 0.444444 1.000000
vt 0.444444 0.000000
vt 0.444444 0.083333
vt 0.444444 0.166667
vt 0.444444 0.250000
vt 0.444444 0.333333
vt 0.444444 0.416667
vt 0.444444 0.500000
vt 0.444444 0.583333
vt 0.444444 0.666667
vt 0.444444 0.750000
vt 0.444444 0.833333
vt 0.472222 0.916667
vt 0.472222 1.000000
vt 0.472222 0.000000
vt 0.472222 0.083333
vt 0.472222 0.166667
vt 0.472222 0.250000
vt 0.472222 0.333333
vt 0.472222 0.416667
vt 0.472222 0.500000
vt 0.472222 0.583333
vt 0.472222 0.666667
vt 0.472222 0.750000
vt 0.472222 0.833333
vt 0.500000 0.916667
vt 0.500000 1.000000
vt 0.500000 0.000000
vt 0.500000 0.083333
vt 0.500000 0.166667
vt 0.500000 0.250000
vt 0.500000 0.333333
vt 0.500000 0.416667
vt 0.500000 0.500000
vt 0.500000 0.583333
vt 0.500000 0.666667
vt 0.500000 0.750000
vt 0.500000 0.833333
vt 0.527778 0.916667
vt 0.527778 1.000000
vt 0.527778 0.000000
vt 0.527778 0.083333
vt 0.527778 0.166667
vt 0.527778 0.250000
vt 0.527778 0.333333
vt 0.527778 0.416667
vt 0.527778 0.500000
vt 0.527778 0.583333
vt 0.527778 0.666667
vt 0.527778 0.750000
vt 0.527778 0.833333
vt 0.555556 0.916667
vt 0.555556 1.000000
vt 0.555556 0.000000
vt 0.555556 0.083333
vt 0.555556 0.166667
vt 0.555556 0.250000
vt 0.555556 0.333333
vt 0.555556 0.416667
vt 0.555556 0.500000
vt 0.555556 0.583333
vt 0.555556 0.666667
vt 0.555556 0.750000
vt 0.555556 0.833333
vt 0.583333 0.916667
vt 0.583333 1.000000
vt 0.583333 0.000000
vt 0.583333 0.083333
vt 0.583333 0.166667
vt 0.583333 0.250000
vt 0.583333 0.333333
vt 0.583333 0.416667
vt 0.583333 0.500000
vt 0.583333 0.583333
vt 0.583333 0.666667
vt 0.583333 0.750000
vt 0.583333 0.833333
vt 0.611111 0.916667
vt 0.611111 1.000000
vt 0.611111 0.000000
vt 0.611111 0.083333
vt 0.611111 0.166667
vt 0.611111 0.250000
vt 0.611111 0.333333
vt 0.611111 0.416667
vt 0.611111 0.500000
vt 0.611111 0.583333
vt 0.611111 0.666667
vt 0.611111 0.750000
vt 0.611111 0.833333
vt 0.638889 0.916667
vt 0.638889 1.000000
vt 0.638889 0.000000
vt 0.638889 0.083333
vt 0.638889 0.166667
vt 0.638889 0.250000
vt 0.638889 0.333333
vt 0.638889 0.416667
vt 0.638889 0.500000
vt 0.638889 0.583333
vt 0.638889 0.666667
vt 0.638889 0.750000
vt 0.638889 0.833333
vt 0.666667 0.916667
vt 0.666667 1.000000
vt 0.666667 0.000000
vt 0.666667 0.083333
vt 0.666667 0.166667
vt 0.666667 0.250000
vt 0.666667 0.333333
vt 0.666667 0.416667
vt 0.666667 0.500000
vt 0.666667 0.583333
vt 0.666667 0.666667
vt 0.666667 0.750000
vt 0.666667 0.833333
vt 0.694444 0.916667
vt 0.694444 1.000000
vt 0.694444 0.000000
vt 0.694444 0.083333
vt 0.694444 0.166667
vt 0.694444 0.250000
vt 0.694444 0.333333
vt 0.694444 0.416667
vt 0.694444 0.500000
vt 0.694444 0.583333
vt 0.694444 0.666667
vt 0.694444 0.750000
vt 0.694444 0.833333
vt 0.722222 0.916667
vt 0.722222 1.000000
vt 0.722222 0.000000
vt 0.722222 0.083333
vt 0.722222 0.166667
vt 0.722222 0.250000
vt 0.722222 0.333333
vt 0.722222 0.416667
vt 0.722222 0.500000
vt 0.722222 0.583333
vt 0.722222 0.666667
vt 0.722222 0.750000
vt 0.722222 0.833333
vt 0.750000 0.916667
vt 0.750000 1.000000
vt 0.750000 0.000000
vt 0.750000 0.083333
vt 0.750000 0.166667
vt 0.750000 0.250000
vt 0.750000 0.333333
vt 0.750000 0.416667
vt 0.750000 0.500000
vt 0.750000 0.583333
vt 0.750000 0.666667
vt 0.750000 0.750000
vt 0.750000 0.833333
vt 0.777778 0.916667
vt 0.777778 1.000000
vt 0.777778 0.000000
vt 0.777778 0.083333
vt 0.777778 0.166667
vt 0.777778 0.250000
vt 0.777778 0.333333
vt 0.777778 0.416667
vt 0.777778 0.500000
vt 0.777778 0.583333
vt 0.777778 0.666667
vt 0.777778 0.750000
vt 0.777778 0.833333
vt 0.805556 0.916667
vt 0.805556 1.000000
vt 0.805556 0.000000
vt 0.805556 0.083333
vt 0.805556 0.166667
vt 0.805556 0.250000
vt 0.805556 0.333333
vt 0.805556 0.416667
vt 0.805556 0.500000
vt 0.805556 0.583333
vt 0.805556 0.666667
vt 0.805556 0.750000
vt 0.805556 0.833333
vt 0.833333 0.916667
vt 0.833333 1.000000
vt 0.833333 0.000000
vt 0.833333 0.083333
vt 0.833333 0.166667
vt 0.833333 0.250000
vt 0.833333 0.333333
vt 0.833333 0.416667
vt 0.833333 0.500000
vt 0.833333 0.583333
vt 0.833333 0.666667
vt 0.833333 0.750000
vt 0.833333 0.833333
vt 0.861111 0.916667
vt 0.861111 1.000000
vt 0.861111 0.000000
vt 0.861111 0.083333
vt 0.861111 0.166667
vt 0.861111 0.250000
vt 0.861111 0.333333
vt 0.861111 0.416667
vt 0.861111 0.500000
vt 0.861111 0.583333
vt 0.861111 0.666667
vt 0.861111 0.750000
vt 0.861111 0.833333
vt 0.888889 0.916667
vt 0.888889 1.000000
vt 0.888889 0.000000
vt 0.888889 0.083333
vt 0.888889 0.166667
vt 0.888889 0.250000
vt 0.888889 0.333333
vt 0.888889 0.416667
vt 0.888889 0.500000
vt 0.888889 0.583333
vt 0.888889 0.666667
vt 0.888889 0.750000
vt 0.888889 0.833333
vt 0.916667 0.916667
vt 0.916667 1.000000
vt 0.916667 0.000000
vt 0.916667 0.083333
vt 0.916667 0.166667
vt 0.916667 0.250000
vt 0.916667 0.333333
vt 0.916667 0.416667
vt 0.916667 0.500000
vt 0.916667 0.583333
vt 0.916667 0.666667
vt 0.916667 0.750000
vt 0.916667 0.833333
vt 0.944444 0.916667
vt 0.944444 1.000000
vt 0.944444 0.000000
vt 0.944444 0.083333
vt 0.944444 0.166667
vt 0.944444 0.250000
vt 0.944444 0.333333
vt 0.944444 0.416667
vt 0.944444 0.500000
vt 0.944444 0.583333
vt 0.944444 0.666667
vt 0.944444 0.750000
vt 0.944444 0.833333
vt 0.972222 0.916667
vt 0.972222 1.000000
vt 0.972222 0.000000
vt 0.972222 0.083333
vt 0.972222 0.166667
vt 0.972222 0.250000
vt 0.972222 0.333333
vt 0.972222 0.416667
vt 0.972222 0.500000
vt 0.972222 0.583333
vt 0.972222 0.666667
vt 0.972222 0.750000
vt 0.972222 0.833333
vt 1.000000 0.916667
vt 1.000000 1.000000
vt 1.000000 0.000000
vt 1.000000 0.083333
vt 1.000000 0.166667
vt 1.000000 0.250000
vt 1.000000 0.333333
vt 1.000000 0.416667
vt 1.000000 0.500000
vt 1.000000 0.583333
vt 1.000000 0.666667
vt 1.000000 0.750000
vt 1.000000 0.833333
s 1
f 1/1/1 12/2/12 24/3/24 13/4/13
f 2/5/2 1/6/1 13/7/13 14/8/14
f 3/9/3 2/5/2 14/8/14 15/10/15
f 4/11/4 3/9/3 15/10/15 16/12/16
f 5/13/5 4/11/4 16/12/16 17/14/17
f 6/15/6 5/13/5 17/14/17 18/16/18
f 7/17/7 6/15/6 18/16/18 19/18/19
f 8/19/8 7/17/7 19/18/19 20/20/20
f 9/21/9 8/19/8 20/20/20 21/22/21
f 10/23/10 9/21/9 21/22/21 22/24/22
f 11/25/11 10/23/10 22/24/22 23/26/23
f 12/2/12 11/25/11 23/26/23 24/3/24
f 13/4/13 24/3/24 36/27/24 25/28/13
f 14/8/14 13/7/13 25/29/13 26/30/14
f 15/10/15 14/8/14 26/30/14 27/31/15
f 16/12/16 15/10/15 27/31/15 28/32/16
f 17/14/17 16/12/16 28/32/16 29/33/17
f 18/16/18 17/14/17 29/33/17 30/34/18
f 19/18/19 18/16/18 30/34/18 31/35/19
f 20/20/20 19/18/19 31/35/19 32/36/20
f 21/22/21 20/20/20 32/36/20 33/37/21
f 22/24/22 21/22/21 33/37/21 34/38/22
f 23/26/23 22/24/22 34/38/22 35/39/23
f 24/3/24 23/26/23 35/39/23 36/27/24
f 25/28/13 36/27/24 48/40/24 37/41/13
f 26/30/14 25/29/13 37/42/13 38/43/14
f 27/31/15 26/30/14 38/43/14 39/44/15
f 28/32/16 27/31/15 39/44/15 40/45/16
f 29/33/17 28/32/16 40/45/16 41/46/17
f 30/34/18 29/33/17 41/46/17 42/47/18
f 31/35/19 30/34/18 42/47/18 43/48/19
f 32/36/20 31/35/19 43/48/19 44/49/20
f 33/37/21 32/36/20 44/49/20 45/50/21
f 34/38/22 33/37/21 45/50/21 46/51/22
f 35/39/23 34/38/22 46/51/22 47/52/23
f 36/27/24 35/39/23 47/52/23 48/40/24
f 37/41/13 48/40/24 60/53/24 49/54/13
f 38/43/14 37/42/13 49/55/13 50/56/14
f 39/44/15 38/43/14 50/56/14 51/57/15
f 40/45/16 39/44/15 51/57/15 52/58/16
f 41/46/17 40/45/16 52/58/16 53/59/17
f 42/47/18 41/46/17 53/59/17 54/60/18
f 43/48/19 42/47/18 54/60/18 55/61/19
f 44/49/20 43/48/19 55/61/19 56/62/20
f 45/50/21 44/49/20 56/62/20 57/63/21
f 46/51/22 45/50/21 57/63/21 58/64/22
f 47/52/23 46/51/22 58/64/22 59/65/23
f 48/40/24 47/52/23 59/65/23 60/53/24
f 49/54/13 60/53/24 72/66/24 61/67/13
f 50/56/14 49/55/13 61/68/13 62/69/14
f 51/57/15 50/56/14 62/69/14 63/70/15
f 52/58/16 51/57/15 63/70/15 64/71/16
f 53/59/17 52/58/16 64/71/16 65/72/17
f 54/60/18 53/59/17 65/72/17 66/73/18
f 55/61/19 54/60/18 66/73/18 67/74/19
f 56/62/20 55/61/19 67/74/19 68/75/20
f 57/63/21 56/62/20 68/75/20 69/76/21
f 58/64/22 57/63/21 69/76/21 70/77/22
f 59/65/23 58/64/22 70/77/22 71/78/23
f 60/53/24 59/65/23 71/78/23 72/66/24
f 61/67/13 72/66/24 84/79/24 73/80/13
f 62/69/14 61/68/13 73/81/13 74/82/14
f 63/70/15 62/69/14 74/82/14 75/83/15
f 64/71/16 63/70/15 75/83/15 76/84/16
f 65/72/17 64/71/16 76/84/16 77/85/17
f 66/73/18 65/72/17 77/85/17 78/86/18
f 67/74/19 66/73/18 78/86/18 79/87/19
f 68/75/20 67/74/19 79/87/19 80/88/20
f 69/76/21 68/75/20 80/88/20 81/89/21
f 70/77/22 69/76/21 81/89/21 82/90/22
f 71/78/23 70/77/22 82/90/22 83/91/23
f 72/66/24 71/78/23 83/91/23 84/79/24
f 73/80/13 84/79/24 96/92/24 85/93/13
f 74/82/14 73/81/13 85/94/13 86/95/14
f 75/83/15 74/82/14 86/95/14 87/96/15
f 76/84/16 75/83/15 87/96/15 88/97/16
f 77/85/17 76/84/16 88/97/16 89/98/17
f 78/86/18 77/85/17 89/98/17 90/99/18
f 79/87/19 78/86/18 90/99/18 91/100/19
f 80/88/20 79/87/19 91/100/19 92/101/20
f 81/89/21 80/88/20 92/101/20 93/102/21
f 82/90/22 81/89/21 93/102/21 94/103/22
f 83/91/23 82/90/22 94/103/22 95/104/23
f 84/79/24 83/91/23 95/104/23 96/92/24
f 85/93/13 96/92/24 108/105/24 97/106/13
f 86/95/14 85/94/13 97/107/13 98/108/14
f 87/96/15 86/95/14 98/108/14 99/109/15
f 88/97/16 87/96/15 99/109/15 100/110/16
f 89/98/17 88/97/16 100/110/16 101/111/17
f 90/99/18 89/98/17 101/111/17 102/112/18
f 91/100/19 90/99/18 102/112/18 103/113/19
f 92/101/20 91/100/19 103/113/19 104/114/20
f 93/102/21 92/101/20 104/114/20 105/115/21
f 94/103/22 93/102/21 105/115/21 106/116/22
f 95/104/23 94/103/22 106/116/22 107/117/23
f 96/92/24 95/104/23 107/117/23 108/105/24
f 97/106/13 108/105/24 120/118/24 109/119/13
f 98/108/14 97/107/13 109/120/13 110/121/14
f 99/109/15 98/108/14 110/121/14 111/122/15
f 100/110/16 99/109/15 111/122/15 112/123/16
f 101/111/17 100/110/16 112/123/16 113/124/17
f 102/112/18 101/111/17 113/124/17 114/125/18
f 103/113/19 102/112/18 114/125/18 115/126/19
f 104/114/20 103/113/19 115/126/19 116/127/20
f 105/115/21 104/114/20 116/127/20 117/128/21
f 106/116/22 105/115/21 117/128/21 118/129/22
f 107/117/23 106/116/22 118/129/22 119/130/23
f 108/105/24 107/117/23 119/130/23 120/118/24
f 109/119/13 120/118/24 132/131/24 121/132/13
f 110/121/14 109/120/13 121/133/13 122/134/14
f 111/122/15 110/121/14 122/134/14 123/135/15
f 112/123/16 111/122/15 123/135/15 124/136/16
f 113/124/17 112/123/16 124/136/16 125/137/17
f 114/125/18 113/124/17 125/137/17 126/138/18
f 115/126/19 114/125/18 126/138/18 127/139/19
f 116/127/20 115/126/19 127/139/19 128/140/20
f 117/128/21 116/127/20 128/140/20 129/141/21
f 118/129/22 117/128/21 129/141/21 130/142/22
f 119/130/23 118/129/22 130/142/22 131/143/23
f 120/118/24 119/130/23 131/143/23 132/131/24
f 121/132/13 132/131/24 144/144/24 133/145/13
f 122/134/14 121/133/13 133/146/13 134/147/14
f 123/135/15 122/134/14 134/147/14 135/148/15
f 124/136/16 123/135/15 135/148/15 136/149/16
f 125/137/17 124/136/16 136/149/16 137/150/17
f 126/138/18 125/137/17 137/150/17 138/151/18
f 127/139/19 126/138/18 138/151/18 139/152/19
f 128/140/20 127/139/19 139/152/19 140/153/20
f 129/141/21 128/140/20 140/153/20 141/154/21
f 130/142/22 129/141/21 141/154/21 142/155/22
f 131/143/23 130/142/22 142/155/22 143/156/23
f 132/131/24 131/143/23 143/156/23 144/144/24
f 133/145/13 144/144/24 156/157/36 145/158/25
f 134/147/14 133/146/13 145/159/25 146/160/26
f 135/148/15 134/147/14 146/160/26 147/161/27
f 136/149/16 135/148/15 147/161/27 148/162/28
f 137/150/17 136/149/16 148/162/28 149/163/29
f 138/151/18 137/150/17 149/163/29 150/164/30
f 139/152/19 138/151/18 150/164/30 151/165/31
f 140/153/20 139/152/19 151/165/31 152/166/32
f 141/154/21 140/153/20 152/166/32 153/167/33
f 142/155/22 141/154/21 153/167/33 154/168/34
f 143/156/23 142/155/22 154/168/34 155/169/35
f 144/144/24 143/156/23 155/169/35 156/157/36
f 145/158/25 156/157/36 168/170/48 157/171/37
f 146/160/26 145/159/25 157/172/37 158/173/38
f 147/161/27 146/160/26 158/173/38 159/174/39
f 148/162/28 147/161/27 159/174/39 160/175/40
f 149/163/29 148/162/28 160/175/40 161/176/41
f 150/164/30 149/163/29 161/176/41 162/177/42
f 151/165/31 150/164/30 162/177/42 163/178/43
f 152/166/32 151/165/31 163/178/43 164/179/44
f 153/167/33 152/166/32 164/179/44 165/180/45
f 154/168/34 153/167/33 165/180/45 166/181/46
f 155/169/35 154/168/34 166/181/46 167/182/47
f 156/157/36 155/169/35 167/182/47 168/170/48
f 157/171/37 168/170/48 180/183/60 169/184/49
f 158/173/38 157/172/37 169/185/49 170/186/50
f 159/174/39 158/173/38 170/186/50 171/187/51
f 160/175/40 159/174/39 171/187/51 172/188/52
f 161/176/41 160/175/40 172/188/52 173/189/53
f 162/177/42 161/176/41 173/189/53 174/190/54
f 163/178/43 162/177/42 174/190/54 175/191/55
f 164/179/44 163/178/43 175/191/55 176/192/56
f 165/180/45 164/179/44 176/192/56 177/193/57
f 166/181/46 165/180/45 177/193/57 178/194/58
f 167/182/47 166/181/46 178/194/58 179/195/59
f 168/170/48 167/182/47 179/195/59 180/183/60
f 169/184/49 180/183/60 192/196/72 181/197/61
f 170/186/50 169/185/49 181/198/61 182/199/62
f 171/187/51 170/186/50 182/199/62 183/200/63
f 172/188/52 171/187/51 183/200/63 184/201/64
f 173/189/53 172/188/52 184/201/64 185/202/65
f 174/190/54 173/189/53 185/202/65 186/203/66
f 175/191/55 174/190/54 186/203/66 187/204/67
f 176/192/56 175/191/55 187/204/67 188/205/68
f 177/193/57 176/192/56 188/205/68 189/206/69
f 178/194/58 177/193/57 189/206/69 190/207/70
f 179/195/59 178/194/58 190/207/70 191/208/71
f 180/183/60 179/195/59 191/208/71 192/196/72
f 181/197/61 192/196/72 204/209/84 193/210/73
f 182/199/62 181/198/61 193/211/73 194/212/74
f 183/200/63 182/199/62 194/212/74 195/213/75
f 184/201/64 183/200/63 195/213/75 196/214/76
f 185/202/65 184/201/64 196/214/76 197/215/77
f 186/203/66 185/202/65 197/215/77 198/216/78
f 187/204/67 186/203/66 198/216/78 199/217/79
f 188/205/68 187/204/67 199/217/79 200/218/80
f 189/206/69 188/205/68 200/218/80 201/219/81
f 190/207/70 189/206/69 201/219/81 202/220/82
f 191/208/71 190/207/70 202/220/82 203/221/83
f 192/196/72 191/208/71 203/221/83 204/209/84
f 193/210/73 204/209/84 216/222/96 205/223/85
f 194/212/74 193/211/73 205/224/85 206/225/86
f 195/213/75 194/212/74 206/225/86 207/226/87
f 196/214/76 195/213/75 207/226/87 208/227/88
f 197/215/77 196/214/76 208/227/88 209/228/89
f 198/216/78 197/215/77 209/228/89 210/229/90
f 199/217/79 198/216/78 210/229/90 211/230/91
f 200/218/80 199/217/79 211/230/91 212/231/92
f 201/219/81 200/218/80 212/231/92 213/232/93
f 202/220/82 201/219/81 213/232/93 214/233/94
f 203/221/83 202/220/82 214/233/94 215/234/95
f 204/209/84 203/221/83 215/234/95 216/222/96
f 205/223/85 216/222/96 228/235/108 217/236/97
f 206/225/86 205/224/85 217/237/97 218/238/98
f 207/226/87 206/225/86 218/238/98 219/239/99
f 208/227/88 207/226/87 219/239/99 220/240/100
f 209/228/89 208/227/88 220/240/100 221/241/101
f 210/229/90 209/228/89 221/241/101 222/242/102
f 211/230/91 210/229/90 222/242/102 223/243/103
f 212/231/92 211/230/91 223/243/103 224/244/104
f 213/232/93 212/231/92 224/244/104 225/245/105
f 214/233/94 213/232/93 225/245/105 226/246/106
f 215/234/95 214/233/94 226/246/106 227/247/107
f 216/222/96 215/234/95 227/247/107 228/235/108
f 217/236/97 228/235/108 240/248/120 229/249/109
f 218/238/98 217/237/97 229/250/109 230/251/110
f 219/239/99 218/238/98 230/251/110 231/252/111
f 220/240/100 219/239/99 231/252/111 232/253/112
f 221/241/101 220/240/100 232/253/112 233/254/113
f 222/242/102 221/241/101 233/254/113 234/255/114
f 223/243/103 222/242/102 234/255/114 235/256/115
f 224/244/104 223/243/103 235/256/115 236/257/116
f 225/245/105 224/244/104 236/257/116 237/258/117
f 226/246/106 225/245/105 237/258/117 238/259/118
f 227/247/107 226/246/106 238/259/118 239/260/119
f 228/235/108 227/247/107 239/260/119 240/248/120
f 229/249/109 240/248/120 252/261/132 241/262/121
f 230/251/110 229/250/109 241/263/121 242/264/122
f 231/252/111 230/251/110 242/264/122 243/265/123
f 232/253/112 231/252/111 243/265/123 244/266/124
f 233/254/113 232/253/112 244/266/124 245/267/125
f 234/255/114 233/254/113 245/267/125 246/268/126
f 235/256/115 234/255/114 246/268/126 247/269/127
f 236/257/116 235/256/115 247/269/127 248/270/128
f 237/258/117 236/257/116 248/270/128 249/271/129
f 238/259/118 237/258/117 249/271/129 250/272/130
f 239/260/119 238/259/118 250/272/130 251/273/131
f 240/248/120 239/260/119 251/273/131 252/261/132
f 241/262/121 252/261/132 264/274/144 253/275/133
f 242/264/122 241/263/121 253/276/133 254/277/134
f 243/265/123 242/264/122 254/277/134 255/278/135
f 244/266/124 243/265/123 255/278/135 256/279/136
f 245/267/125 244/266/124 256/279/136 257/280/137
f 246/268/126 245/267/125 257/280/137 258/281/138
f 247/269/127 246/268/126 258/281/138 259/282/139
f 248/270/128 247/269/127 259/282/139 260/283/140
f 249/271/129 248/270/128 260/283/140 261/284/141
f 250/272/130 249/271/129 261/284/141 262/285/142
f 251/273/131 250/272/130 262/285/142 263/286/143
f 252/261/132 251/273/131 263/286/143 264/274/144
f 253/275/133 264/274/144 276/287/156 265/288/145
f 254/277/134 253/276/133 265/289/145 266/290/146
f 255/278/135 254/277/134 266/290/146 267/291/147
f 256/279/136 255/278/135 267/291/147 268/292/148
f 257/280/137 256/279/136 268/292/148 269/293/149
f 258/281/138 257/280/137 269/293/149 270/294/150
f 259/282/139 258/281/138 270/294/150 271/295/151
f 260/283/140 259/282/139 271/295/151 272/296/152
f 261/284/141 260/283/140 272/296/152 273/297/153
f 262/285/142 261/284/141 273/297/153 274/298/154
f 263/286/143 262/285/142 274/298/154 275/299/155
f 264/274/144 263/286/143 275/299/155 276/287/156
f 265/288/145 276/287/156 288/300/168 277/301/157
f 266/290/146 265/289/145 277/302/157 278/303/158
f 267/291/147 266/290/146 278/303/158 279/304/159
f 268/292/148 267/291/147 279/304/159 280/305/160
f 269/293/149 268/292/148 280/305/160 281/306/161
f 270/294/150 269/293/149 281/306/161 282/307/162
f 271/295/151 270/294/150 282/307/162 283/308/163
f 272/296/152 271/295/151 283/308/163 284/309/164
f 273/297/153 272/296/152 284/309/164 285/310/165
f 274/298/154 273/297/153 285/310/165 286/311/166
f 275/299/155 274/298/154 286/311/166 287/312/167
f 276/287/156 275/299/155 287/312/167 288/300/168
f 277/301/157 288/300/168 300/313/180 289/314/169
f 278/303/158 277/302/157 289/315/169 290/316/170
f 279/304/159 278/303/158 290/316/170 291/317/171
f 280/305/160 279/304/159 291/317/171 292/318/172
f 281/306/161 280/305/160 292/318/172 293/319/173
f 282/307/162 281/306/161 293/319/173 294/320/174
f 283/308/163 282/307/162 294/320/174 295/321/175
f 284/309/164 283/308/163 295/321/175 296/322/176
f 285/310/165 284/309/164 296/322/176 297/323/177
f 286/311/166 285/310/165 297/323/177 298/324/178
f 287/312/167 286/311/166 298/324/178 299/325/179
f 288/300/168 287/312/167 299/325/179 300/313/180
f 289/314/169 300/313/180 312/326/192 301/327/181
f 290/316/170 289/315/169 301/328/181 302/329/182
f 291/317/171 290/316/170 302/329/182 303/330/183
f 292/318/172 291/317/171 303/330/183 304/331/184
f 293/319/173 292/318/172 304/331/184 305/332/185
f 294/320/174 293/319/173 305/332/185 306/333/186
f 295/321/175 294/320/174 306/333/186 307/334/187
f 296/322/176 295/321/175 307/334/187 308/335/188
f 297/323/177 296/322/176 308/335/188 309/336/189
f 298/324/178 297/323/177 309/336/189 310/337/190
f 299/325/179 298/324/178 310/337/190 311/338/191
f 300/313/180 299/325/179 311/338/191 312/326/192
f 301/327/181 312/326/192 324/339/202 313/340/193
f 302/329/182 301/328/181 313/341/193 314/342/194
f 303/330/183 302/329/182 314/342/194 315/343/15
f 304/331/184 303/330/183 315/343/15 316/344/195
f 305/332/185 304/331/184 316/344/195 317/345/196
f 306/333/186 305/332/185 317/345/196 318/346/197
f 307/334/187 306/333/186 318/346/197 319/347/198
f 308/335/188 307/334/187 319/347/198 320/348/199
f 309/336/189 308/335/188 320/348/199 321/349/21
f 310/337/190 309/336/189 321/349/21 322/350/200
f 311/338/191 310/337/190 322/350/200 323/351/201
f 312/326/192 311/338/191 323/351/201 324/339/202
f 313/340/193 324/339/202 336/352/202 325/353/193
f 314/342/194 313/341/193 325/354/193 326/355/194
f 315/343/15 314/342/194 326/355/194 327/356/15
f 316/344/195 315/343/15 327/356/15 328/357/195
f 317/345/196 316/344/195 328/357/195 329/358/196
f 318/346/197 317/345/196 329/358/196 330/359/197
f 319/347/198 318/346/197 330/359/197 331/360/198
f 320/348/199 319/347/198 331/360/198 332/361/199
f 321/349/21 320/348/199 332/361/199 333/362/21
f 322/350/200 321/349/21 333/362/21 334/363/200
f 323/351/201 322/350/200 334/363/200 335/364/201
f 324/339/202 323/351/201 335/364/201 336/352/202
f 325/353/193 336/352/202 348/365/202 337/366/193
f 326/355/194 325/354/193 337/367/193 338/368/194
f 327/356/15 326/355/194 338/368/194 339/369/15
f 328/357/195 327/356/15 339/369/15 340/370/195
f 329/358/196 328/357/195 340/370/195 341/371/196
f 330/359/197 329/358/196 341/371/196 342/372/197
f 331/360/198 330/359/197 342/372/197 343/373/198
f 332/361/199 331/360/198 343/373/198 344/374/199
f 333/362/21 332/361/199 344/374/199 345/375/21
f 334/363/200 333/362/21 345/375/21 346/376/200
f 335/364/201 334/363/200 346/376/200 347/377/201
f 336/352/202 335/364/201 347/377/201 348/365/202
f 337/366/193 348/365/202 360/378/202 349/379/193
f 338/368/194 337/367/193 349/380/193 350/381/194
f 339/369/15 338/368/194 350/381/194 351/382/15
f 340/370/195 339/369/15 351/382/15 352/383/195
f 341/371/196 340/370/195 352/383/195 353/384/196
f 342/372/197 341/371/196 353/384/196 354/385/197
f 343/373/198 342/372/197 354/385/197 355/386/198
f 344/374/199 343/373/198 355/386/198 356/387/199
f 345/375/21 344/374/199 356/387/199 357/388/21
f 346/376/200 345/375/21 357/388/21 358/389/200
f 347/377/201 346/376/200 358/389/200 359/390/201
f 348/365/202 347/377/201 359/390/201 360/378/202
f 349/379/193 360/378/202 372/391/202 361/392/193
f 350/381/194 349/380/193 361/393/193 362/394/194
f 351/382/15 350/381/194 362/394/194 363/395/15
f 352/383/195 351/382/15 363/395/15 364/396/195
f 353/384/196 352/383/195 364/396/195 365/397/196
f 354/385/197 353/384/196 365/397/196 366/398/197
f 355/386/198 354/385/197 366/398/197 367/399/198
f 356/387/199 355/386/198 367/399/198 368/400/199
f 357/388/21 356/387/199 368/400/199 369/401/21
f 358/389/200 357/388/21 369/401/21 370/402/200
f 359/390/201 358/389/200 370/402/200 371/403/201
f 360/378/202 359/390/201 371/403/201 372/391/202
f 361/392/193 372/391/202 384/404/202 373/405/193
f 362/394/194 361/393/193 373/406/193 374/407/194
f 363/395/15 362/394/194 374/407/194 375/408/15
f 364/396/195 363/395/15 375/408/15 376/409/195
f 365/397/196 364/396/195 376/409/195 377/410/196
f 366/398/197 365/397/196 377/410/196 378/411/197
f 367/399/198 366/398/197 378/411/197 379/412/198
f 368/400/199 367/399/198 379/412/198 380/413/199
f 369/401/21 368/400/199 380/413/199 381/414/21
f 370/402/200 369/401/21 381/414/21 382/415/200
f 371/403/201 370/402/200 382/415/200 383/416/201
f 372/391/202 371/403/201 383/416/201 384/404/202
f 373/405/193 384/404/202 396/417/202 385/418/193
f 374/407/194 373/406/193 385/419/193 386/420/194
f 375/408/15 374/407/194 386/420/194 387/421/15
f 376/409/195 375/408/15 387/421/15 388/422/195
f 377/410/196 376/409/195 388/422/195 389/423/196
f 378/411/197 377/410/196 389/423/196 390/424/197
f 379/412/198 378/411/197 390/424/197 391/425/198
f 380/413/199 379/412/198 391/425/198 392/426/199
f 381/414/21 380/413/199 392/426/199 393/427/21
f 382/415/200 381/414/21 393/427/21 394/428/200
f 383/416/201 382/415/200 394/428/200 395/429/201
f 384/404/202 383/416/201 395/429/201 396/417/202
f 385/418/193 396/417/202 408/430/202 397/431/193
f 386/420/194 385/419/193 397/432/193 398/433/194
f 387/421/15 386/420/194 398/433/194 399/434/15
f 388/422/195 387/421/15 399/434/15 400/435/195
f 389/423/196 388/422/195 400/435/195 401/436/196
f 390/424/197 389/423/196 401/436/196 402/437/197
f 391/425/198 390/424/197 402/437/197 403/438/198
f 392/426/199 391/425/198 403/438/198 404/439/199
f 393/427/21 392/426/199 404/439/199 405/440/21
f 394/428/200 393/427/21 405/440/21 406/441/200
f 395/429/201 394/428/200 406/441/200 407/442/201
f 396/417/202 395/429/201 407/442/201 408/430/202
f 397/431/193 408/430/202 420/443/202 409/444/193
f 398/433/194 397/432/193 409/445/193 410/446/194
f 399/434/15 398/433/194 410/446/194 411/447/15
f 400/435/195 399/434/15 411/447/15 412/448/195
f 401/436/196 400/435/195 412/448/195 413/449/196
f 402/437/197 401/436/196 413/449/196 414/450/197
f 403/438/198 402/437/197 414/450/197 415/451/198
f 404/439/199 403/438/198 415/451/198 416/452/199
f 405/440/21 404/439/199 416/452/199 417/453/21
f 406/441/200 405/440/21 417/453/21 418/454/200
f 407/442/201 406/441/200 418/454/200 419/455/201
f 408/430/202 407/442/201 419/455/201 420/443/202
f 409/444/193 420/443/202 432/456/202 421/457/193
f 410/446/194 409/445/193 421/458/193 422/459/194
f 411/447/15 410/446/194 422/459/194 423/460/15
f 412/448/195 411/447/15 423/460/15 424/461/195
f 413/449/196 412/448/195 424/461/195 425/462/196
f 414/450/197 413/449/196 425/462/196 426/463/197
f 415/451/198 414/450/197 426/463/197 427/464/198
f 416/452/199 415/451/198 427/464/198 428/465/199
f 417/453/21 416/452/199 428/465/199 429/466/21
f 418/454/200 417/453/21 429/466/21 430/467/200
f 419/455/201 418/454/200 430/467/200 431/468/201
f 420/443/202 419/455/201 431/468/201 432/456/202
f 421/457/193 432/456/202 444/469/214 433/470/203
f 422/459/194 421/458/193 433/471/203 434/472/204
f 423/460/15 422/459/194 434/472/204 435/473/205
f 424/461/195 423/460/15 435/473/205 436/474/206
f 425/462/196 424/461/195 436/474/206 437/475/207
f 426/463/197 425/462/196 437/475/207 438/476/208
f 427/464/198 426/463/197 438/476/208 439/477/209
f 428/465/199 427/464/198 439/477/209 440/478/210
f 429/466/21 428/465/199 440/478/210 441/479/211
f 430/467/200 429/466/21 441/479/211 442/480/212
f 431/468/201 430/467/200 442/480/212 443/481/213
f 432/456/202 431/468/201 443/481/213 444/469/214
f 445/1/215 447/4/19 448/3/18 446/2/216
f 449/5/217 450/8/20 447/7/19 445/6/215
f 451/9/218 452/10/21 450/8/20 449/5/217
f 453/11/219 454/12/22 452/10/21 451/9/218
f 455/13/220 456/14/23 454/12/22 453/11/219
f 457/15/221 458/16/24 456/14/23 455/13/220
f 459/17/222 460/18/13 458/16/24 457/15/221
f 461/19/223 462/20/14 460/18/13 459/17/222
f 463/21/224 464/22/15 462/20/14 461/19/223
f 465/23/225 466/24/16 464/22/15 463/21/224
f 467/25/226 468/26/17 466/24/16 465/23/225
f 446/2/216 448/3/18 468/26/17 467/25/226
f 447/4/19 469/28/19 470/27/18 448/3/18
f 450/8/20 471/30/20 469/29/19 447/7/19
f 452/10/21 472/31/21 471/30/20 450/8/20
f 454/12/22 473/32/22 472/31/21 452/10/21
f 456/14/23 474/33/23 473/32/22 454/12/22
f 458/16/24 475/34/24 474/33/23 456/14/23
f 460/18/13 476/35/13 475/34/24 458/16/24
f 462/20/14 477/36/14 476/35/13 460/18/13
f 464/22/15 478/37/15 477/36/14 462/20/14
f 466/24/16 479/38/16 478/37/15 464/22/15
f 468/26/17 480/39/17 479/38/16 466/24/16
f 448/3/18 470/27/18 480/39/17 468/26/17
f 469/28/19 481/41/19 482/40/18 470/27/18
f 471/30/20 483/43/20 481/42/19 469/29/19
f 472/31/21 484/44/21 483/43/20 471/30/20
f 473/32/22 485/45/22 484/44/21 472/31/21
f 474/33/23 486/46/23 485/45/22 473/32/22
f 475/34/24 487/47/24 486/46/23 474/33/23
f 476/35/13 488/48/13 487/47/24 475/34/24
f 477/36/14 489/49/14 488/48/13 476/35/13
f 478/37/15 490/50/15 489/49/14 477/36/14
f 479/38/16 491/51/16 490/50/15 478/37/15
f 480/39/17 492/52/17 491/51/16 479/38/16
f 470/27/18 482/40/18 492/52/17 480/39/17
f 481/41/19 493/54/19 494/53/18 482/40/18
f 483/43/20 495/56/20 493/55/19 481/42/19
f 484/44/21 496/57/21 495/56/20 483/43/20
f 485/45/22 497/58/22 496/57/21 484/44/21
f 486/46/23 498/59/23 497/58/22 485/45/22
f 487/47/24 499/60/24 498/59/23 486/46/23
f 488/48/13 500/61/13 499/60/24 487/47/24
f 489/49/14 501/62/14 500/61/13 488/48/13
f 490/50/15 502/63/15 501/62/14 489/49/14
f 491/51/16 503/64/16 502/63/15 490/50/15
f 492/52/17 504/65/17 503/64/16 491/51/16
f 482/40/18 494/53/18 504/65/17 492/52/17
f 493/54/19 505/67/19 506/66/18 494/53/18
f 495/56/20 507/69/20 505/68/19 493/55/19
f 496/57/21 508/70/21 507/69/20 495/56/20
f 497/58/22 509/71/22 508/70/21 496/57/21
f 498/59/23 510/72/23 509/71/22 497/58/22
f 499/60/24 511/73/24 510/72/23 498/59/23
f 500/61/13 512/74/13 511/73/24 499/60/24
f 501/62/14 513/75/14 512/74/13 500/61/13
f 502/63/15 514/76/15 513/75/14 501/62/14
f 503/64/16 515/77/16 514/76/15 502/63/15
f 504/65/17 516/78/17 515/77/16 503/64/16
f 494/53/18 506/66/18 516/78/17 504/65/17
f 505/67/19 517/80/19 518/79/18 506/66/18
f 507/69/20 519/82/20 517/81/19 505/68/19
f 508/70/21 520/83/21 519/82/20 507/69/20
f 509/71/22 521/84/22 520/83/21 508/70/21
f 510/72/23 522/85/23 521/84/22 509/71/22
f 511/73/24 523/86/24 522/85/23 510/72/23
f 512/74/13 524/87/13 523/86/24 511/73/24
f 513/75/14 525/88/14 524/87/13 512/74/13
f 514/76/15 526/89/15 525/88/14 513/75/14
f 515/77/16 527/90/16 526/89/15 514/76/15
f 516/78/17 528/91/17 527/90/16 515/77/16
f 506/66/18 518/79/18 528/91/17 516/78/17
f 517/80/19 529/93/19 530/92/18 518/79/18
f 519/82/20 531/95/20 529/94/19 517/81/19
f 520/83/21 532/96/21 531/95/20 519/82/20
f 521/84/22 533/97/22 532/96/21 520/83/21
f 522/85/23 534/98/23 533/97/22 521/84/22
f 523/86/24 535/99/24 534/98/23 522/85/23
f 524/87/13 536/100/13 535/99/24 523/86/24
f 525/88/14 537/101/14 536/100/13 524/87/13
f 526/89/15 538/102/15 537/101/14 525/88/14
f 527/90/16 539/103/16 538/102/15 526/89/15
f 528/91/17 540/104/17 539/103/16 527/90/16
f 518/79/18 530/92/18 540/104/17 528/91/17
f 529/93/19 541/106/19 542/105/18 530/92/18
f 531/95/20 543/108/20 541/107/19 529/94/19
f 532/96/21 544/109/21 543/108/20 531/95/20
f 533/97/22 545/110/22 544/109/21 532/96/21
f 534/98/23 546/111/23 545/110/22 533/97/22
f 535/99/24 547/112/24 546/111/23 534/98/23
f 536/100/13 548/113/13 547/112/24 535/99/24
f 537/101/14 549/114/14 548/113/13 536/100/13
f 538/102/15 550/115/15 549/114/14 537/101/14
f 539/103/16 551/116/16 550/115/15 538/102/15
f 540/104/17 552/117/17 551/116/16 539/103/16
f 530/92/18 542/105/18 552/117/17 540/104/17
f 541/106/19 553/119/19 554/118/18 542/105/18
f 543/108/20 555/121/20 553/120/19 541/107/19
f 544/109/21 556/122/21 555/121/20 543/108/20
f 545/110/22 557/123/22 556/122/21 544/109/21
f 546/111/23 558/124/23 557/123/22 545/110/22
f 547/112/24 559/125/24 558/124/23 546/111/23
f 548/113/13 560/126/13 559/125/24 547/112/24
f 549/114/14 561/127/14 560/126/13 548/113/13
f 550/115/15 562/128/15 561/127/14 549/114/14
f 551/116/16 563/129/16 562/128/15 550/115/15
f 552/117/17 564/130/17 563/129/16 551/116/16
f 542/105/18 554/118/18 564/130/17 552/117/17
f 553/119/19 565/132/19 566/131/18 554/118/18
f 555/121/20 567/134/20 565/133/19 553/120/19
f 556/122/21 568/135/21 567/134/20 555/121/20
f 557/123/22 569/136/22 568/135/21 556/122/21
f 558/124/23 570/137/23 569/136/22 557/123/22
f 559/125/24 571/138/24 570/137/23 558/124/23
f 560/126/13 572/139/13 571/138/24 559/125/24
f 561/127/14 573/140/14 572/139/13 560/126/13
f 562/128/15 574/141/15 573/140/14 561/127/14
f 563/129/16 575/142/16 574/141/15 562/128/15
f 564/130/17 576/143/17 575/142/16 563/129/16
f 554/118/18 566/131/18 576/143/17 564/130/17
f 565/132/19 577/145/19 578/144/18 566/131/18
f 567/134/20 579/147/20 577/146/19 565/133/19
f 568/135/21 580/148/21 579/147/20 567/134/20
f 569/136/22 581/149/22 580/148/21 568/135/21
f 570/137/23 582/150/23 581/149/22 569/136/22
f 571/138/24 583/151/24 582/150/23 570/137/23
f 572/139/13 584/152/13 583/151/24 571/138/24
f 573/140/14 585/153/14 584/152/13 572/139/13
f 574/141/15 586/154/15 585/153/14 573/140/14
f 575/142/16 587/155/16 586/154/15 574/141/15
f 576/143/17 588/156/17 587/155/16 575/142/16
f 566/131/18 578/144/18 588/156/17 576/143/17
f 577/145/19 589/158/227 590/157/228 578/144/18
f 579/147/20 591/160/229 589/159/227 577/146/19
f 580/148/21 592/161/230 591/160/229 579/147/20
f 581/149/22 593/162/231 592/161/230 580/148/21
f 582/150/23 594/163/232 593/162/231 581/149/22
f 583/151/24 595/164/233 594/163/232 582/150/23
f 584/152/13 596/165/234 595/164/233 583/151/24
f 585/153/14 597/166/235 596/165/234 584/152/13
f 586/154/15 598/167/236 597/166/235 585/153/14
f 587/155/16 599/168/237 598/167/236 586/154/15
f 588/156/17 600/169/238 599/168/237 587/155/16
f 578/144/18 590/157/228 600/169/238 588/156/17
f 589/158/227 601/171/239 602/170/240 590/157/228
f 591/160/229 603/173/241 601/172/239 589/159/227
f 592/161/230 604/174/242 603/173/241 591/160/229
f 593/162/231 605/175/243 604/174/242 592/161/230
f 594/163/232 606/176/244 605/175/243 593/162/231
f 595/164/233 607/177/245 606/176/244 594/163/232
f 596/165/234 608/178/246 607/177/245 595/164/233
f 597/166/235 609/179/247 608/178/246 596/165/234
f 598/167/236 610/180/248 609/179/247 597/166/235
f 599/168/237 611/181/249 610/180/248 598/167/236
f 600/169/238 612/182/250 611/181/249 599/168/237
f 590/157/228 602/170/240 612/182/250 600/169/238
f 601/171/239 613/184/251 614/183/252 602/170/240
f 603/173/241 615/186/253 613/185/251 601/172/239
f 604/174/242 616/187/254 615/186/253 603/173/241
f 605/175/243 617/188/255 616/187/254 604/174/242
f 606/176/244 618/189/256 617/188/255 605/175/243
f 607/177/245 619/190/257 618/189/256 606/176/244
f 608/178/246 620/191/258 619/190/257 607/177/245
f 609/179/247 621/192/259 620/191/258 608/178/246
f 610/180/248 622/193/260 621/192/259 609/179/247
f 611/181/249 623/194/261 622/193/260 610/180/248
f 612/182/250 624/195/262 623/194/261 611/181/249
f 602/170/240 614/183/252 624/195/262 612/182/250
f 613/184/251 625/197/263 626/196/264 614/183/252
f 615/186/253 627/199/265 625/198/263 613/185/251
f 616/187/254 628/200/266 627/199/265 615/186/253
f 617/188/255 629/201/267 628/200/266 616/187/254
f 618/189/256 630/202/268 629/201/267 617/188/255
f 619/190/257 631/203/269 630/202/268 618/189/256
f 620/191/258 632/204/270 631/203/269 619/190/257
f 621/192/259 633/205/271 632/204/270 620/191/258
f 622/193/260 634/206/272 633/205/271 621/192/259
f 623/194/261 635/207/273 634/206/272 622/193/260
f 624/195/262 636/208/274 635/207/273 623/194/261
f 614/183/252 626/196/264 636/208/274 624/195/262
f 625/197/263 637/210/275 638/209/276 626/196/264
f 627/199/265 639/212/277 637/211/275 625/198/263
f 628/200/266 640/213/278 639/212/277 627/199/265
f 629/201/267 641/214/279 640/213/278 628/200/266
f 630/202/268 642/215/280 641/214/279 629/201/267
f 631/203/269 643/216/281 642/215/280 630/202/268
f 632/204/270 644/217/282 643/216/281 631/203/269
f 633/205/271 645/218/283 644/217/282 632/204/270
f 634/206/272 646/219/284 645/218/283 633/205/271
f 635/207/273 647/220/285 646/219/284 634/206/272
f 636/208/274 648/221/286 647/220/285 635/207/273
f 626/196/264 638/209/276 648/221/286 636/208/274
f 637/210/275 649/223/287 650/222/288 638/209/276
f 639/212/277 651/225/289 649/224/287 637/211/275
f 640/213/278 652/226/290 651/225/289 639/212/277
f 641/214/279 653/227/291 652/226/290 640/213/278
f 642/215/280 654/228/292 653/227/291 641/214/279
f 643/216/281 655/229/293 654/228/292 642/215/280
f 644/217/282 656/230/294 655/229/293 643/216/281
f 645/218/283 657/231/295 656/230/294 644/217/282
f 646/219/284 658/232/296 657/231/295 645/218/283
f 647/220/285 659/233/297 658/232/296 646/219/284
f 648/221/286 660/234/298 659/233/297 647/220/285
f 638/209/276 650/222/288 660/234/298 648/221/286
f 649/223/287 661/236/299 662/235/300 650/222/288
f 651/225/289 663/238/301 661/237/299 649/224/287
f 652/226/290 664/239/302 663/238/301 651/225/289
f 653/227/291 665/240/303 664/239/302 652/226/290
f 654/228/292 666/241/304 665/240/303 653/227/291
f 655/229/293 667/242/305 666/241/304 654/228/292
f 656/230/294 668/243/306 667/242/305 655/229/293
f 657/231/295 669/244/307 668/243/306 656/230/294
f 658/232/296 670/245/308 669/244/307 657/231/295
f 659/233/297 671/246/309 670/245/308 658/232/296
f 660/234/298 672/247/310 671/246/309 659/233/297
f 650/222/288 662/235/300 672/247/310 660/234/298
f 661/236/299 673/249/311 674/248/312 662/235/300
f 663/238/301 675/251/313 673/250/311 661/237/299
f 664/239/302 676/252/314 675/251/313 663/238/301
f 665/240/303 677/253/315 676/252/314 664/239/302
f 666/241/304 678/254/316 677/253/315 665/240/303
f 667/242/305 679/255/317 678/254/316 666/241/304
f 668/243/306 680/256/318 679/255/317 667/242/305
f 669/244/307 681/257/319 680/256/318 668/243/306
f 670/245/308 682/258/320 681/257/319 669/244/307
f 671/246/309 683/259/321 682/258/320 670/245/308
f 672/247/310 684/260/322 683/259/321 671/246/309
f 662/235/300 674/248/312 684/260/322 672/247/310
f 673/249/311 685/262/323 686/261/324 674/248/312
f 675/251/313 687/264/325 685/263/323 673/250/311
f 676/252/314 688/265/326 687/264/325 675/251/313
f 677/253/315 689/266/327 688/265/326 676/252/314
f 678/254/316 690/267/328 689/266/327 677/253/315
f 679/255/317 691/268/329 690/267/328 678/254/316
f 680/256/318 692/269/330 691/268/329 679/255/317
f 681/257/319 693/270/331 692/269/330 680/256/318
f 682/258/320 694/271/332 693/270/331 681/257/319
f 683/259/321 695/272/333 694/271/332 682/258/320
f 684/260/322 696/273/334 695/272/333 683/259/321
f 674/248/312 686/261/324 696/273/334 684/260/322
f 685/262/323 697/275/335 698/274/336 686/261/324
f 687/264/325 699/277/337 697/276/335 685/263/323
f 688/265/326 700/278/338 699/277/337 687/264/325
f 689/266/327 701/279/339 700/278/338 688/265/326
f 690/267/328 702/280/340 701/279/339 689/266/327
f 691/268/329 703/281/341 702/280/340 690/267/328
f 692/269/330 704/282/342 703/281/341 691/268/329
f 693/270/331 705/283/343 704/282/342 692/269/330
f 694/271/332 706/284/344 705/283/343 693/270/331
f 695/272/333 707/285/345 706/284/344 694/271/332
f 696/273/334 708/286/346 707/285/345 695/272/333
f 686/261/324 698/274/336 708/286/346 696/273/334
f 697/275/335 709/288/347 710/287/348 698/274/336
f 699/277/337 711/290/349 709/289/347 697/276/335
f 700/278/338 712/291/350 711/290/349 699/277/337
f 701/279/339 713/292/351 712/291/350 700/278/338
f 702/280/340 714/293/352 713/292/351 701/279/339
f 703/281/341 715/294/353 714/293/352 702/280/340
f 704/282/342 716/295/354 715/294/353 703/281/341
f 705/283/343 717/296/355 716/295/354 704/282/342
f 706/284/344 718/297/356 717/296/355 705/283/343
f 707/285/345 719/298/357 718/297/356 706/284/344
f 708/286/346 720/299/358 719/298/357 707/285/345
f 698/274/336 710/287/348 720/299/358 708/286/346
f 709/288/347 721/301/359 722/300/360 710/287/348
f 711/290/349 723/303/361 721/302/359 709/289/347
f 712/291/350 724/304/362 723/303/361 711/290/349
f 713/292/351 725/305/363 724/304/362 712/291/350
f 714/293/352 726/306/364 725/305/363 713/292/351
f 715/294/353 727/307/365 726/306/364 714/293/352
f 716/295/354 728/308/366 727/307/365 715/294/353
f 717/296/355 729/309/367 728/308/366 716/295/354
f 718/297/356 730/310/368 729/309/367 717/296/355
f 719/298/357 731/311/369 730/310/368 718/297/356
f 720/299/358 732/312/370 731/311/369 719/298/357
f 710/287/348 722/300/360 732/312/370 720/299/358
f 721/301/359 733/314/371 734/313/372 722/300/360
f 723/303/361 735/316/373 733/315/371 721/302/359
f 724/304/362 736/317/374 735/316/373 723/303/361
f 725/305/363 737/318/375 736/317/374 724/304/362
f 726/306/364 738/319/376 737/318/375 725/305/363
f 727/307/365 739/320/377 738/319/376 726/306/364
f 728/308/366 740/321/378 739/320/377 727/307/365
f 729/309/367 741/322/379 740/321/378 728/308/366
f 730/310/368 742/323/380 741/322/379 729/309/367
f 731/311/369 743/324/381 742/323/380 730/310/368
f 732/312/370 744/325/382 743/324/381 731/311/369
f 722/300/360 734/313/372 744/325/382 732/312/370
f 733/314/371 745/327/383 746/326/384 734/313/372
f 735/316/373 747/329/385 745/328/383 733/315/371
f 736/317/374 748/330/386 747/329/385 735/316/373
f 737/318/375 749/331/387 748/330/386 736/317/374
f 738/319/376 750/332/388 749/331/387 737/318/375
f 739/320/377 751/333/389 750/332/388 738/319/376
f 740/321/378 752/334/390 751/333/389 739/320/377
f 741/322/379 753/335/391 752/334/390 740/321/378
f 742/323/380 754/336/392 753/335/391 741/322/379
f 743/324/381 755/337/393 754/336/392 742/323/380
f 744/325/382 756/338/394 755/337/393 743/324/381
f 734/313/372 746/326/384 756/338/394 744/325/382
f 745/327/383 757/340/198 758/339/197 746/326/384
f 747/329/385 759/342/199 757/341/198 745/328/383
f 748/330/386 760/343/21 759/342/199 747/329/385
f 749/331/387 761/344/200 760/343/21 748/330/386
f 750/332/388 762/345/201 761/344/200 749/331/387
f 751/333/389 763/346/202 762/345/201 750/332/388
f 752/334/390 764/347/193 763/346/202 751/333/389
f 753/335/391 765/348/194 764/347/193 752/334/390
f 754/336/392 766/349/15 765/348/194 753/335/391
f 755/337/393 767/350/195 766/349/15 754/336/392
f 756/338/394 768/351/196 767/350/195 755/337/393
f 746/326/384 758/339/197 768/351/196 756/338/394
f 757/340/198 769/353/198 770/352/197 758/339/197
f 759/342/199 771/355/199 769/354/198 757/341/198
f 760/343/21 772/356/21 771/355/199 759/342/199
f 761/344/200 773/357/200 772/356/21 760/343/21
f 762/345/201 774/358/201 773/357/200 761/344/200
f 763/346/202 775/359/202 774/358/201 762/345/201
f 764/347/193 776/360/193 775/359/202 763/346/202
f 765/348/194 777/361/194 776/360/193 764/347/193
f 766/349/15 778/362/15 777/361/194 765/348/194
f 767/350/195 779/363/195 778/362/15 766/349/15
f 768/351/196 780/364/196 779/363/195 767/350/195
f 758/339/197 770/352/197 780/364/196 768/351/196
f 769/353/198 781/366/198 782/365/197 770/352/197
f 771/355/199 783/368/199 781/367/198 769/354/198
f 772/356/21 784/369/21 783/368/199 771/355/199
f 773/357/200 785/370/200 784/369/21 772/356/21
f 774/358/201 786/371/201 785/370/200 773/357/200
f 775/359/202 787/372/202 786/371/201 774/358/201
f 776/360/193 788/373/193 787/372/202 775/359/202
f 777/361/194 789/374/194 788/373/193 776/360/193
f 778/362/15 790/375/15 789/374/194 777/361/194
f 779/363/195 791/376/195 790/375/15 778/362/15
f 780/364/196 792/377/196 791/376/195 779/363/195
f 770/352/197 782/365/197 792/377/196 780/364/196
f 781/366/198 793/379/198 794/378/197 782/365/197
f 783/368/199 795/381/199 793/380/198 781/367/198
f 784/369/21 796/382/21 795/381/199 783/368/199
f 785/370/200 797/383/200 796/382/21 784/369/21
f 786/371/201 798/384/201 797/383/200 785/370/200
f 787/372/202 799/385/202 798/384/201 786/371/201
f 788/373/193 800/386/193 799/385/202 787/372/202
f 789/374/194 801/387/194 800/386/193 788/373/193
f 790/375/15 802/388/15 801/387/194 789/374/194
f 791/376/195 803/389/195 802/388/15 790/375/15
f 792/377/196 804/390/196 803/389/195 791/376/195
f 782/365/197 794/378/197 804/390/196 792/377/196
f 793/379/198 805/392/198 806/391/197 794/378/197
f 795/381/199 807/394/199 805/393/198 793/380/198
f 796/382/21 808/395/21 807/394/199 795/381/199
f 797/383/200 809/396/200 808/395/21 796/382/21
f 798/384/201 810/397/201 809/396/200 797/383/200
f 799/385/202 811/398/202 810/397/201 798/384/201
f 800/386/193 812/399/193 811/398/202 799/385/202
f 801/387/194 813/400/194 812/399/193 800/386/193
f 802/388/15 814/401/15 813/400/194 801/387/194
f 803/389/195 815/402/195 814/401/15 802/388/15
f 804/390/196 816/403/196 815/402/195 803/389/195
f 794/378/197 806/391/197 816/403/196 804/390/196
f 805/392/198 817/405/198 818/404/197 806/391/197
f 807/394/199 819/407/199 817/406/198 805/393/198
f 808/395/21 820/408/21 819/407/199 807/394/199
f 809/396/200 821/409/200 820/408/21 808/395/21
f 810/397/201 822/410/201 821/409/200 809/396/200
f 811/398/202 823/411/202 822/410/201 810/397/201
f 812/399/193 824/412/193 823/411/202 811/398/202
f 813/400/194 825/413/194 824/412/193 812/399/193
f 814/401/15 826/414/15 825/413/194 813/400/194
f 815/402/195 827/415/195 826/414/15 814/401/15
f 816/403/196 828/416/196 827/415/195 815/402/195
f 806/391/197 818/404/197 828/416/196 816/403/196
f 817/405/198 829/418/198 830/417/197 818/404/197
f 819/407/199 831/420/199 829/419/198 817/406/198
f 820/408/21 832/421/21 831/420/199 819/407/199
f 821/409/200 833/422/200 832/421/21 820/408/21
f 822/410/201 834/423/201 833/422/200 821/409/200
f 823/411/202 835/424/202 834/423/201 822/410/201
f 824/412/193 836/425/193 835/424/202 823/411/202
f 825/413/194 837/426/194 836/425/193 824/412/193
f 826/414/15 838/427/15 837/426/194 825/413/194
f 827/415/195 839/428/195 838/427/15 826/414/15
f 828/416/196 840/429/196 839/428/195 827/415/195
f 818/404/197 830/417/197 840/429/196 828/416/196
f 829/418/198 841/431/198 842/430/197 830/417/197
f 831/420/199 843/433/199 841/432/198 829/419/198
f 832/421/21 844/434/21 843/433/199 831/420/199
f 833/422/200 845/435/200 844/434/21 832/421/21
f 834/423/201 846/436/201 845/435/200 833/422/200
f 835/424/202 847/437/202 846/436/201 834/423/201
f 836/425/193 848/438/193 847/437/202 835/424/202
f 837/426/194 849/439/194 848/438/193 836/425/193
f 838/427/15 850/440/15 849/439/194 837/426/194
f 839/428/195 851/441/195 850/440/15 838/427/15
f 840/429/196 852/442/196 851/441/195 839/428/195
f 830/417/197 842/430/197 852/442/196 840/429/196
f 841/431/198 853/444/198 854/443/197 842/430/197
f 843/433/199 855/446/199 853/445/198 841/432/198
f 844/434/21 856/447/21 855/446/199 843/433/199
f 845/435/200 857/448/200 856/447/21 844/434/21
f 846/436/201 858/449/201 857/448/200 845/435/200
f 847/437/202 859/450/202 858/449/201 846/436/201
f 848/438/193 860/451/193 859/450/202 847/437/202
f 849/439/194 861/452/194 860/451/193 848/438/193
f 850/440/15 862/453/15 861/452/194 849/439/194
f 851/441/195 863/454/195 862/453/15 850/440/15
f 852/442/196 864/455/196 863/454/195 851/441/195
f 842/430/197 854/443/197 864/455/196 852/442/196
f 853/444/198 865/457/198 866/456/197 854/443/197
f 855/446/199 867/459/199 865/458/198 853/445/198
f 856/447/21 868/460/21 867/459/199 855/446/199
f 857/448/200 869/461/200 868/460/21 856/447/21
f 858/449/201 870/462/201 869/461/200 857/448/200
f 859/450/202 871/463/202 870/462/201 858/449/201
f 860/451/193 872/464/193 871/463/202 859/450/202
f 861/452/194 873/465/194 872/464/193 860/451/193
f 862/453/15 874/466/15 873/465/194 861/452/194
f 863/454/195 875/467/195 874/466/15 862/453/15
f 864/455/196 876/468/196 875/467/195 863/454/195
f 854/443/197 866/456/197 876/468/196 864/455/196
f 865/457/198 877/470/395 878/469/396 866/456/197
f 867/459/199 879/472/397 877/471/395 865/458/198
f 868/460/21 880/473/398 879/472/397 867/459/199
f 869/461/200 881/474/399 880/473/398 868/460/21
f 870/462/201 882/475/400 881/474/399 869/461/200
f 871/463/202 883/476/401 882/475/400 870/462/201
f 872/464/193 884/477/402 883/476/401 871/463/202
f 873/465/194 885/478/403 884/477/402 872/464/193
f 874/466/15 886/479/404 885/478/403 873/465/194
f 875/467/195 887/480/405 886/479/404 874/466/15
f 876/468/196 888/481/406 887/480/405 875/467/195
f 866/456/197 878/469/396 888/481/406 876/468/196
f 9/21/9 10/23/10 465/23/225 463/21/224
f 442/480/212 441/479/211 886/479/404 887/480/405
f 435/473/205 434/472/204 879/472/397 880/473/398
f 2/5/2 3/9/3 451/9/218 449/5/217
f 7/17/7 8/19/8 461/19/223 459/17/222
f 12/2/12 1/1/1 445/1/215 446/2/216
f 439/477/209 438/476/208 883/476/401 884/477/402
f 443/481/213 442/480/212 887/480/405 888/481/406
f 5/13/5 6/15/6 457/15/221 455/13/220
f 10/23/10 11/25/11 467/25/226 465/23/225
f 436/474/206 435/473/205 880/473/398 881/474/399
f 444/469/214 443/481/213 888/481/406 878/469/396
f 433/470/203 444/469/214 878/469/396 877/470/395
f 440/478/210 439/477/209 884/477/402 885/478/403
f 3/9/3 4/11/4 453/11/219 451/9/218
f 8/19/8 9/21/9 463/21/224 461/19/223
f 437/475/207 436/474/206 881/474/399 882/475/400
f 1/6/1 2/5/2 449/5/217 445/6/215
f 441/479/211 440/478/210 885/478/403 886/479/404
f 6/15/6 7/17/7 459/17/222 457/15/221
f 11/25/11 12/2/12 446/2/216 467/25/226
f 434/472/204 433/471/203 877/471/395 879/472/397
f 438/476/208 437/475/207 882/475/400 883/476/401
f 4/11/4 5/13/5 455/13/220 453/11/219
