# Blender 5.2.0 LTS
# www.blender.org
mtllib tube.mtl
o Cylinder
v 0.000000 -2.000000 -1.000000
v 0.000000 2.000000 -1.000000
v 0.382683 -2.000000 -0.923880
v 0.382683 2.000000 -0.923880
v 0.707107 -2.000000 -0.707107
v 0.707107 2.000000 -0.707107
v 0.923880 -2.000000 -0.382683
v 0.923880 2.000000 -0.382683
v 1.000000 -2.000000 0.000000
v 1.000000 2.000000 0.000000
v 0.923880 -2.000000 0.382683
v 0.923880 2.000000 0.382683
v 0.707107 -2.000000 0.707107
v 0.707107 2.000000 0.707107
v 0.382683 -2.000000 0.923880
v 0.382683 2.000000 0.923880
v 0.000000 -2.000000 1.000000
v 0.000000 2.000000 1.000000
v -0.382683 -2.000000 0.923880
v -0.382683 2.000000 0.923880
v -0.707107 -2.000000 0.707107
v -0.707107 2.000000 0.707107
v -0.923880 -2.000000 0.382683
v -0.923880 2.000000 0.382683
v -1.000000 -2.000000 0.000000
v -1.000000 2.000000 0.000000
v -0.923880 -2.000000 -0.382683
v -0.923880 2.000000 -0.382683
v -0.707107 -2.000000 -0.707107
v -0.707107 2.000000 -0.707107
v -0.382683 -2.000000 -0.923880
v -0.382683 2.000000 -0.923880
v 0.000000 -1.960000 -0.980000
v 0.375030 -1.960000 -0.905402
v 0.375030 1.960000 -0.905402
v 0.000000 1.960000 -0.980000
v 0.692965 -1.960000 -0.692965
v 0.692965 1.960000 -0.692965
v 0.905402 -1.960000 -0.375030
v 0.905402 1.960000 -0.375030
v 0.980000 -1.960000 0.000000
v 0.980000 1.960000 0.000000
v 0.905402 -1.960000 0.375030
v 0.905402 1.960000 0.375030
v 0.692965 -1.960000 0.692965
v 0.692965 1.960000 0.692965
v 0.375030 -1.960000 0.905402
v 0.375030 1.960000 0.905402
v 0.000000 -1.960000 0.980000
v 0.000000 1.960000 0.980000
v -0.375030 -1.960000 0.905402
v -0.375030 1.960000 0.905402
v -0.692965 -1.960000 0.692965
v -0.692965 1.960000 0.692965
v -0.905402 -1.960000 0.375030
v -0.905402 1.960000 0.375030
v -0.980000 -1.960000 0.000000
v -0.980000 1.960000 0.000000
v -0.905402 -1.960000 -0.375030
v -0.905402 1.960000 -0.375030
v -0.692965 -1.960000 -0.692965
v -0.692965 1.960000 -0.692965
v -0.375030 -1.960000 -0.905402
v -0.375030 1.960000 -0.905402
vn -0.1951 -0.0000 0.9808
vn -0.5556 -0.0000 0.8315
vn -0.8315 -0.0000 0.5556
vn -0.9808 -0.0000 0.1951
vn -0.9808 -0.0000 -0.1951
vn -0.8315 -0.0000 -0.5556
vn -0.5556 -0.0000 -0.8315
vn -0.1951 -0.0000 -0.9808
vn 0.1951 -0.0000 -0.9808
vn 0.5556 -0.0000 -0.8315
vn 0.8315 -0.0000 -0.5556
vn 0.9808 -0.0000 -0.1951
vn 0.9808 -0.0000 0.1951
vn 0.8315 -0.0000 0.5556
vn 0.5556 -0.0000 0.8315
vn 0.1951 -0.0000 0.9808
vn -0.1752 -0.4403 0.8806
vn 0.8806 0.4403 0.1752
vn -0.7465 0.4403 -0.4988
vn 0.1752 0.4403 -0.8806
vn 0.8806 -0.4403 0.1752
vn -0.7465 -0.4403 -0.4988
vn 0.1752 -0.4403 -0.8806
vn -0.4988 0.4403 0.7465
vn -0.4988 -0.4403 0.7465
vn 0.7465 0.4403 0.4988
vn -0.4988 0.4403 -0.7465
vn 0.7465 -0.4403 0.4988
vn -0.4988 -0.4403 -0.7465
vn 0.4988 0.4403 -0.7465
vn -0.7465 0.4403 0.4988
vn 0.4988 -0.4403 -0.7465
vn -0.7465 -0.4403 0.4988
vn 0.4988 0.4403 0.7465
vn -0.1752 0.4403 -0.8806
vn 0.4988 -0.4403 0.7465
vn -0.1752 -0.4403 -0.8806
vn 0.7465 0.4403 -0.4988
vn -0.8806 0.4403 0.1752
vn 0.7465 -0.4403 -0.4988
vn -0.8806 -0.4403 0.1752
vn 0.1752 0.4403 0.8806
vn 0.1752 -0.4403 0.8806
vn 0.8806 0.4403 -0.1752
vn -0.8806 0.4403 -0.1752
vn 0.8806 -0.4403 -0.1752
vn -0.8806 -0.4403 -0.1752
vn -0.1752 0.4403 0.8806
vt 1.000000 0.500000
vt 0.937500 0.500000
vt 0.937500 1.000000
vt 1.000000 1.000000
vt 0.875000 0.500000
vt 0.875000 1.000000
vt 0.812500 0.500000
vt 0.812500 1.000000
vt 0.750000 0.500000
vt 0.750000 1.000000
vt 0.687500 0.500000
vt 0.687500 1.000000
vt 0.625000 0.500000
vt 0.625000 1.000000
vt 0.562500 0.500000
vt 0.562500 1.000000
vt 0.500000 0.500000
vt 0.500000 1.000000
vt 0.437500 0.500000
vt 0.437500 1.000000
vt 0.375000 0.500000
vt 0.375000 1.000000
vt 0.312500 0.500000
vt 0.312500 1.000000
vt 0.250000 0.500000
vt 0.250000 1.000000
vt 0.187500 0.500000
vt 0.187500 1.000000
vt 0.125000 0.500000
vt 0.125000 1.000000
vt 0.062500 0.500000
vt 0.062500 1.000000
vt 0.000000 0.500000
vt 0.000000 1.000000
s 0
f 1/1/1 3/2/1 4/3/1 2/4/1
f 3/2/2 5/5/2 6/6/2 4/3/2
f 5/5/3 7/7/3 8/8/3 6/6/3
f 7/7/4 9/9/4 10/10/4 8/8/4
f 9/9/5 11/11/5 12/12/5 10/10/5
f 11/11/6 13/13/6 14/14/6 12/12/6
f 13/13/7 15/15/7 16/16/7 14/14/7
f 15/15/8 17/17/8 18/18/8 16/16/8
f 17/17/9 19/19/9 20/20/9 18/18/9
f 19/19/10 21/21/10 22/22/10 20/20/10
f 21/21/11 23/23/11 24/24/11 22/22/11
f 23/23/12 25/25/12 26/26/12 24/24/12
f 25/25/13 27/27/13 28/28/13 26/26/13
f 27/27/14 29/29/14 30/30/14 28/28/14
f 29/29/15 31/31/15 32/32/15 30/30/15
f 31/31/16 1/33/16 2/34/16 32/32/16
f 33/1/9 36/4/9 35/3/9 34/2/9
f 34/2/10 35/3/10 38/6/10 37/5/10
f 37/5/11 38/6/11 40/8/11 39/7/11
f 39/7/12 40/8/12 42/10/12 41/9/12
f 41/9/13 42/10/13 44/12/13 43/11/13
f 43/11/14 44/12/14 46/14/14 45/13/14
f 45/13/15 46/14/15 48/16/15 47/15/15
f 47/15/16 48/16/16 50/18/16 49/17/16
f 49/17/1 50/18/1 52/20/1 51/19/1
f 51/19/2 52/20/2 54/22/2 53/21/2
f 53/21/3 54/22/3 56/24/3 55/23/3
f 55/23/4 56/24/4 58/26/4 57/25/4
f 57/25/5 58/26/5 60/28/5 59/27/5
f 59/27/6 60/28/6 62/30/6 61/29/6
f 61/29/7 62/30/7 64/32/7 63/31/7
f 63/31/8 64/32/8 36/34/8 33/33/8
f 18/18/17 20/20/17 52/20/17 50/18/17
f 11/11/18 9/9/18 41/9/18 43/11/18
f 29/29/19 27/27/19 59/27/19 61/29/19
f 3/2/20 1/1/20 33/1/20 34/2/20
f 10/10/21 12/12/21 44/12/21 42/10/21
f 28/28/22 30/30/22 62/30/22 60/28/22
f 2/4/23 4/3/23 35/3/23 36/4/23
f 21/21/24 19/19/24 51/19/24 53/21/24
f 20/20/25 22/22/25 54/22/25 52/20/25
f 13/13/26 11/11/26 43/11/26 45/13/26
f 31/31/27 29/29/27 61/29/27 63/31/27
f 12/12/28 14/14/28 46/14/28 44/12/28
f 30/30/29 32/32/29 64/32/29 62/30/29
f 5/5/30 3/2/30 34/2/30 37/5/30
f 23/23/31 21/21/31 53/21/31 55/23/31
f 4/3/32 6/6/32 38/6/32 35/3/32
f 22/22/33 24/24/33 56/24/33 54/22/33
f 15/15/34 13/13/34 45/13/34 47/15/34
f 1/33/35 31/31/35 63/31/35 33/33/35
f 14/14/36 16/16/36 48/16/36 46/14/36
f 32/32/37 2/34/37 36/34/37 64/32/37
f 7/7/38 5/5/38 37/5/38 39/7/38
f 25/25/39 23/23/39 55/23/39 57/25/39
f 6/6/40 8/8/40 40/8/40 38/6/40
f 24/24/41 26/26/41 58/26/41 56/24/41
f 17/17/42 15/15/42 47/15/42 49/17/42
f 16/16/43 18/18/43 50/18/43 48/16/43
f 9/9/44 7/7/44 39/7/44 41/9/44
f 27/27/45 25/25/45 57/25/45 59/27/45
f 8/8/46 10/10/46 42/10/46 40/8/46
f 26/26/47 28/28/47 60/28/47 58/26/47
f 19/19/48 17/17/48 49/17/48 51/19/48
