# Blender v2.80 (sub 75) OBJ File: 'circus.blend'
# www.blender.org
mtllib circus.mtl
o Cone
v 0.000000 3.000000 -2.000000
v 0.390181 3.000000 -1.961571
v 0.765367 3.000000 -1.847759
v 1.111140 3.000000 -1.662939
v 1.414214 3.000000 -1.414214
v 1.662939 3.000000 -1.111140
v 1.847759 3.000000 -0.765367
v 1.961571 3.000000 -0.390181
v 2.000000 3.000000 -0.000000
v 1.961571 3.000000 0.390180
v 1.847759 3.000000 0.765367
v 1.662939 3.000000 1.111140
v 1.414214 3.000000 1.414214
v 1.111140 3.000000 1.662939
v 0.765367 3.000000 1.847759
v 0.390180 3.000000 1.961571
v -0.000001 3.000000 2.000000
v -0.390181 3.000000 1.961570
v -0.765368 3.000000 1.847759
v -1.111141 3.000000 1.662939
v -1.414214 3.000000 1.414213
v -1.662940 3.000000 1.111139
v -1.847760 3.000000 0.765365
v 0.000000 5.000000 0.000000
v -1.961571 3.000000 0.390179
v -2.000000 3.000000 -0.000002
v -1.961570 3.000000 -0.390183
v -1.847758 3.000000 -0.765369
v -1.662938 3.000000 -1.111143
v -1.414212 3.000000 -1.414215
v -1.111138 3.000000 -1.662941
v -0.765364 3.000000 -1.847760
v -0.390178 3.000000 -1.961571
v 0.000000 -3.000000 -2.000000
v 0.000000 3.000000 -2.000000
v 0.390181 -3.000000 -1.961571
v 0.390181 3.000000 -1.961571
v 0.765367 -3.000000 -1.847759
v 0.765367 3.000000 -1.847759
v 1.111140 -3.000000 -1.662939
v 1.111140 3.000000 -1.662939
v 1.414214 -3.000000 -1.414214
v 1.414214 3.000000 -1.414214
v 1.662939 -3.000000 -1.111140
v 1.662939 3.000000 -1.111140
v 1.847759 -3.000000 -0.765367
v 1.847759 3.000000 -0.765367
v 1.961571 -3.000000 -0.390181
v 1.961571 3.000000 -0.390181
v 2.000000 -3.000000 -0.000000
v 2.000000 3.000000 -0.000000
v 1.961571 -3.000000 0.390180
v 1.961571 3.000000 0.390180
v 1.847759 -3.000000 0.765367
v 1.847759 3.000000 0.765367
v 1.662939 -3.000000 1.111140
v 1.662939 3.000000 1.111140
v 1.414214 -3.000000 1.414214
v 1.414214 3.000000 1.414214
v 1.111140 -3.000000 1.662939
v 1.111140 3.000000 1.662939
v 0.765367 -3.000000 1.847759
v 0.765367 3.000000 1.847759
v 0.390180 -3.000000 1.961571
v 0.390180 3.000000 1.961571
v -0.000001 -3.000000 2.000000
v -0.000001 3.000000 2.000000
v -0.390181 -3.000000 1.961570
v -0.390181 3.000000 1.961570
v -0.765368 -3.000000 1.847759
v -0.765368 3.000000 1.847759
v -1.111141 -3.000000 1.662939
v -1.111141 3.000000 1.662939
v -1.414214 -3.000000 1.414213
v -1.414214 3.000000 1.414213
v -1.662940 -3.000000 1.111139
v -1.662940 3.000000 1.111139
v -1.847760 -3.000000 0.765365
v -1.847760 3.000000 0.765365
v -1.961571 -3.000000 0.390179
v -1.961571 3.000000 0.390179
v -2.000000 -3.000000 -0.000002
v -2.000000 3.000000 -0.000002
v -1.961570 -3.000000 -0.390183
v -1.961570 3.000000 -0.390183
v -1.847758 -3.000000 -0.765369
v -1.847758 3.000000 -0.765369
v -1.662938 -3.000000 -1.111143
v -1.662938 3.000000 -1.111143
v -1.414212 -3.000000 -1.414215
v -1.414212 3.000000 -1.414215
v -1.111138 -3.000000 -1.662941
v -1.111138 3.000000 -1.662941
v -0.765364 -3.000000 -1.847760
v -0.765364 3.000000 -1.847760
v -0.390178 -3.000000 -1.961571
v -0.390178 3.000000 -1.961571
v -0.000000 3.142716 2.159642
v 0.322731 3.124484 2.185679
v 0.633059 3.070489 2.262792
v 0.919060 2.982806 2.388016
v 1.169741 2.864805 2.556539
v 1.375470 2.721020 2.761885
v 1.528340 2.556977 2.996163
v 1.622477 2.378980 3.250369
v 1.654264 2.193869 3.514735
v 1.622477 2.008758 3.779100
v 1.528340 1.830761 4.033307
v 1.375470 1.666718 4.267585
v 1.169741 1.522933 4.472931
v 0.919060 1.404932 4.641455
v 0.633059 1.317249 4.766678
v 0.322730 1.263254 4.843791
v -0.000001 1.245022 4.869828
v -0.322732 1.263254 4.843791
v -0.633060 1.317249 4.766678
v -0.919060 1.404932 4.641454
v -1.169742 1.522933 4.472930
v -1.375471 1.666719 4.267584
v -1.528341 1.830762 4.033306
v -0.000000 3.603319 4.501643
v -1.622478 2.008759 3.779100
v -1.654263 2.193870 3.514734
v -1.622477 2.378981 3.250368
v -1.528340 2.556978 2.996162
v -1.375469 2.721021 2.761884
v -1.169739 2.864806 2.556538
v -0.919058 2.982807 2.388015
v -0.633057 3.070490 2.262791
v -0.322728 3.124484 2.185679
v -0.000000 -1.085635 -0.801083
v -0.000000 3.142716 2.159641
v 0.322731 -1.103867 -0.775045
v 0.322731 3.124484 2.185679
v 0.633059 -1.157862 -0.697932
v 0.633059 3.070490 2.262791
v 0.919060 -1.245544 -0.572708
v 0.919060 2.982807 2.388016
v 1.169741 -1.363546 -0.404185
v 1.169741 2.864805 2.556539
v 1.375470 -1.507331 -0.198839
v 1.375470 2.721020 2.761885
v 1.528340 -1.671374 0.035439
v 1.528340 2.556977 2.996163
v 1.622477 -1.849371 0.289646
v 1.622477 2.378980 3.250369
v 1.654264 -2.034482 0.554011
v 1.654264 2.193869 3.514735
v 1.622477 -2.219593 0.818377
v 1.622477 2.008759 3.779100
v 1.528340 -2.397590 1.072583
v 1.528340 1.830761 4.033306
v 1.375470 -2.561633 1.306861
v 1.375470 1.666718 4.267584
v 1.169741 -2.705418 1.512207
v 1.169741 1.522933 4.472931
v 0.919060 -2.823419 1.680730
v 0.919060 1.404932 4.641455
v 0.633059 -2.911102 1.805955
v 0.633059 1.317249 4.766678
v 0.322730 -2.965097 1.883067
v 0.322730 1.263254 4.843791
v -0.000001 -2.983329 1.909105
v -0.000001 1.245022 4.869828
v -0.322732 -2.965097 1.883067
v -0.322732 1.263254 4.843791
v -0.633060 -2.911102 1.805954
v -0.633060 1.317249 4.766678
v -0.919060 -2.823419 1.680730
v -0.919060 1.404932 4.641454
v -1.169742 -2.705417 1.512206
v -1.169742 1.522933 4.472930
v -1.375471 -2.561633 1.306860
v -1.375471 1.666719 4.267584
v -1.528341 -2.397589 1.072582
v -1.528341 1.830762 4.033306
v -1.622478 -2.219592 0.818376
v -1.622478 2.008759 3.779099
v -1.654263 -2.034481 0.554010
v -1.654263 2.193870 3.514733
v -1.622477 -1.849370 0.289644
v -1.622477 2.378981 3.250368
v -1.528340 -1.671373 0.035438
v -1.528340 2.556978 2.996161
v -1.375469 -1.507330 -0.198840
v -1.375469 2.721021 2.761883
v -1.169739 -1.363545 -0.404186
v -1.169739 2.864806 2.556538
v -0.919058 -1.245544 -0.572709
v -0.919058 2.982808 2.388015
v -0.633057 -1.157861 -0.697933
v -0.633057 3.070490 2.262791
v -0.322728 -1.103867 -0.775045
v -0.322728 3.124485 2.185678
v -0.000000 3.142716 -2.159642
v 0.322731 3.124484 -2.185679
v 0.633059 3.070489 -2.262792
v 0.919060 2.982806 -2.388016
v 1.169741 2.864805 -2.556539
v 1.375470 2.721020 -2.761885
v 1.528340 2.556977 -2.996163
v 1.622477 2.378980 -3.250369
v 1.654264 2.193869 -3.514735
v 1.622477 2.008758 -3.779100
v 1.528340 1.830761 -4.033307
v 1.375470 1.666718 -4.267585
v 1.169741 1.522933 -4.472931
v 0.919060 1.404932 -4.641455
v 0.633059 1.317249 -4.766678
v 0.322730 1.263254 -4.843791
v -0.000001 1.245022 -4.869828
v -0.322732 1.263254 -4.843791
v -0.633060 1.317249 -4.766678
v -0.919060 1.404932 -4.641454
v -1.169742 1.522933 -4.472930
v -1.375471 1.666719 -4.267584
v -1.528341 1.830762 -4.033306
v -0.000000 3.603319 -4.501643
v -1.622478 2.008759 -3.779100
v -1.654263 2.193870 -3.514734
v -1.622477 2.378981 -3.250368
v -1.528340 2.556978 -2.996162
v -1.375469 2.721021 -2.761884
v -1.169739 2.864806 -2.556538
v -0.919058 2.982807 -2.388015
v -0.633057 3.070490 -2.262791
v -0.322728 3.124484 -2.185679
v -0.000000 -1.085635 0.801083
v -0.000000 3.142716 -2.159641
v 0.322731 -1.103867 0.775045
v 0.322731 3.124484 -2.185679
v 0.633059 -1.157862 0.697932
v 0.633059 3.070490 -2.262791
v 0.919060 -1.245544 0.572708
v 0.919060 2.982807 -2.388016
v 1.169741 -1.363546 0.404185
v 1.169741 2.864805 -2.556539
v 1.375470 -1.507331 0.198839
v 1.375470 2.721020 -2.761885
v 1.528340 -1.671374 -0.035439
v 1.528340 2.556977 -2.996163
v 1.622477 -1.849371 -0.289646
v 1.622477 2.378980 -3.250369
v 1.654264 -2.034482 -0.554011
v 1.654264 2.193869 -3.514735
v 1.622477 -2.219593 -0.818377
v 1.622477 2.008759 -3.779100
v 1.528340 -2.397590 -1.072583
v 1.528340 1.830761 -4.033306
v 1.375470 -2.561633 -1.306861
v 1.375470 1.666718 -4.267584
v 1.169741 -2.705418 -1.512207
v 1.169741 1.522933 -4.472931
v 0.919060 -2.823419 -1.680730
v 0.919060 1.404932 -4.641455
v 0.633059 -2.911102 -1.805955
v 0.633059 1.317249 -4.766678
v 0.322730 -2.965097 -1.883067
v 0.322730 1.263254 -4.843791
v -0.000001 -2.983329 -1.909105
v -0.000001 1.245022 -4.869828
v -0.322732 -2.965097 -1.883067
v -0.322732 1.263254 -4.843791
v -0.633060 -2.911102 -1.805954
v -0.633060 1.317249 -4.766678
v -0.919060 -2.823419 -1.680730
v -0.919060 1.404932 -4.641454
v -1.169742 -2.705417 -1.512206
v -1.169742 1.522933 -4.472930
v -1.375471 -2.561633 -1.306860
v -1.375471 1.666719 -4.267584
v -1.528341 -2.397589 -1.072582
v -1.528341 1.830762 -4.033306
v -1.622478 -2.219592 -0.818376
v -1.622478 2.008759 -3.779099
v -1.654263 -2.034481 -0.554010
v -1.654263 2.193870 -3.514733
v -1.622477 -1.849370 -0.289644
v -1.622477 2.378981 -3.250368
v -1.528340 -1.671373 -0.035438
v -1.528340 2.556978 -2.996161
v -1.375469 -1.507330 0.198840
v -1.375469 2.721021 -2.761883
v -1.169739 -1.363545 0.404186
v -1.169739 2.864806 -2.556538
v -0.919058 -1.245544 0.572709
v -0.919058 2.982808 -2.388015
v -0.633057 -1.157861 0.697933
v -0.633057 3.070490 -2.262791
v -0.322728 -1.103867 0.775045
v -0.322728 3.124485 -2.185678
v 1.200000 -3.000000 0.000000
v 2.200000 -3.000000 0.000000
v 1.200000 -3.000000 -1.000000
v 2.200000 -3.000000 -1.000000
v 1.200000 -2.999999 1.000000
v 2.200000 -2.999999 1.000000
v 1.200000 -2.414728 0.980785
v 2.200000 -2.414728 0.980785
v 1.200000 -1.851948 0.923879
v 2.200000 -1.851948 0.923879
v 1.200000 -1.333288 0.831469
v 2.200000 -1.333288 0.831469
v 1.200000 -0.878678 0.707106
v 2.200000 -0.878678 0.707106
v 1.200000 -0.505590 0.555570
v 2.200000 -0.505590 0.555570
v 1.200000 -0.228361 0.382683
v 2.200000 -0.228360 0.382683
v 1.200000 -0.057644 0.195089
v 2.200000 -0.057644 0.195089
v 1.200000 0.000000 -0.000001
v 2.200000 0.000000 -0.000001
v 1.200000 -0.057645 -0.195091
v 2.200000 -0.057645 -0.195091
v 1.200000 -0.228363 -0.382684
v 2.200000 -0.228363 -0.382684
v 1.200000 -0.505593 -0.555571
v 2.200000 -0.505593 -0.555571
v 1.200000 -0.878683 -0.707108
v 2.200000 -0.878682 -0.707108
v 1.200000 -1.333292 -0.831470
v 2.200000 -1.333292 -0.831470
v 1.200000 -1.851954 -0.923880
v 2.200000 -1.851954 -0.923880
v 1.200000 -2.414733 -0.980786
v 2.200000 -2.414733 -0.980786
vt 0.750000 0.490000
vt 0.796822 0.485388
vt 0.841844 0.471731
vt 0.883337 0.449553
vt 0.919706 0.419706
vt 0.949553 0.383337
vt 0.971731 0.341844
vt 0.985388 0.296822
vt 0.990000 0.250000
vt 0.985388 0.203178
vt 0.971731 0.158156
vt 0.949553 0.116663
vt 0.919706 0.080294
vt 0.883337 0.050447
vt 0.841844 0.028269
vt 0.796822 0.014612
vt 0.750000 0.010000
vt 0.703178 0.014612
vt 0.658156 0.028269
vt 0.616663 0.050447
vt 0.580294 0.080294
vt 0.550447 0.116663
vt 0.528269 0.158156
vt 0.514611 0.203179
vt 0.510000 0.250000
vt 0.514612 0.296822
vt 0.528269 0.341844
vt 0.550447 0.383337
vt 0.580295 0.419706
vt 0.616663 0.449553
vt 0.658156 0.471731
vt 0.703179 0.485389
vt 1.000000 0.500000
vt 1.000000 1.000000
vt 0.968750 1.000000
vt 0.968750 0.500000
vt 0.937500 1.000000
vt 0.937500 0.500000
vt 0.906250 1.000000
vt 0.906250 0.500000
vt 0.875000 1.000000
vt 0.875000 0.500000
vt 0.843750 1.000000
vt 0.843750 0.500000
vt 0.812500 1.000000
vt 0.812500 0.500000
vt 0.781250 1.000000
vt 0.781250 0.500000
vt 0.750000 1.000000
vt 0.750000 0.500000
vt 0.718750 1.000000
vt 0.718750 0.500000
vt 0.687500 1.000000
vt 0.687500 0.500000
vt 0.656250 1.000000
vt 0.656250 0.500000
vt 0.625000 1.000000
vt 0.625000 0.500000
vt 0.593750 1.000000
vt 0.593750 0.500000
vt 0.562500 1.000000
vt 0.562500 0.500000
vt 0.531250 1.000000
vt 0.531250 0.500000
vt 0.500000 1.000000
vt 0.500000 0.500000
vt 0.468750 1.000000
vt 0.468750 0.500000
vt 0.437500 1.000000
vt 0.437500 0.500000
vt 0.406250 1.000000
vt 0.406250 0.500000
vt 0.375000 1.000000
vt 0.375000 0.500000
vt 0.343750 1.000000
vt 0.343750 0.500000
vt 0.312500 1.000000
vt 0.312500 0.500000
vt 0.281250 1.000000
vt 0.281250 0.500000
vt 0.250000 1.000000
vt 0.250000 0.500000
vt 0.218750 1.000000
vt 0.218750 0.500000
vt 0.187500 1.000000
vt 0.187500 0.500000
vt 0.156250 1.000000
vt 0.156250 0.500000
vt 0.125000 1.000000
vt 0.125000 0.500000
vt 0.093750 1.000000
vt 0.093750 0.500000
vt 0.062500 1.000000
vt 0.062500 0.500000
vt 0.296822 0.485388
vt 0.250000 0.490000
vt 0.203179 0.485389
vt 0.158156 0.471731
vt 0.116663 0.449553
vt 0.080295 0.419706
vt 0.050447 0.383337
vt 0.028269 0.341844
vt 0.014612 0.296822
vt 0.010000 0.250000
vt 0.014612 0.203179
vt 0.028269 0.158156
vt 0.050447 0.116663
vt 0.080294 0.080294
vt 0.116663 0.050447
vt 0.158156 0.028269
vt 0.203178 0.014612
vt 0.250000 0.010000
vt 0.296822 0.014612
vt 0.341844 0.028269
vt 0.383337 0.050447
vt 0.419706 0.080294
vt 0.449553 0.116663
vt 0.471731 0.158156
vt 0.485388 0.203178
vt 0.490000 0.250000
vt 0.485388 0.296822
vt 0.471731 0.341844
vt 0.449553 0.383337
vt 0.419706 0.419706
vt 0.383337 0.449553
vt 0.341844 0.471731
vt 0.031250 1.000000
vt 0.031250 0.500000
vt 0.000000 1.000000
vt 0.000000 0.500000
vt 0.750000 0.490000
vt 0.796822 0.485388
vt 0.841844 0.471731
vt 0.883337 0.449553
vt 0.919706 0.419706
vt 0.949553 0.383337
vt 0.971731 0.341844
vt 0.985388 0.296822
vt 0.990000 0.250000
vt 0.985388 0.203178
vt 0.971731 0.158156
vt 0.949553 0.116663
vt 0.919706 0.080294
vt 0.883337 0.050447
vt 0.841844 0.028269
vt 0.796822 0.014612
vt 0.750000 0.010000
vt 0.703178 0.014612
vt 0.658156 0.028269
vt 0.616663 0.050447
vt 0.580294 0.080294
vt 0.550447 0.116663
vt 0.528269 0.158156
vt 0.514611 0.203179
vt 0.510000 0.250000
vt 0.514612 0.296822
vt 0.528269 0.341844
vt 0.550447 0.383337
vt 0.580295 0.419706
vt 0.616663 0.449553
vt 0.658156 0.471731
vt 0.703179 0.485389
vt 0.750000 0.490000
vt 0.796822 0.485388
vt 0.841844 0.471731
vt 0.883337 0.449553
vt 0.919706 0.419706
vt 0.949553 0.383337
vt 0.971731 0.341844
vt 0.985388 0.296822
vt 0.990000 0.250000
vt 0.985388 0.203178
vt 0.971731 0.158156
vt 0.949553 0.116663
vt 0.919706 0.080294
vt 0.883337 0.050447
vt 0.841844 0.028269
vt 0.796822 0.014612
vt 0.750000 0.010000
vt 0.703178 0.014612
vt 0.658156 0.028269
vt 0.616663 0.050447
vt 0.580294 0.080294
vt 0.550447 0.116663
vt 0.528269 0.158156
vt 0.514611 0.203179
vt 0.510000 0.250000
vt 0.514612 0.296822
vt 0.528269 0.341844
vt 0.550447 0.383337
vt 0.580295 0.419706
vt 0.616663 0.449553
vt 0.658156 0.471731
vt 0.703179 0.485389
vt 1.000000 0.500000
vt 1.000000 1.000000
vt 0.968750 1.000000
vt 0.968750 0.500000
vt 0.937500 1.000000
vt 0.937500 0.500000
vt 0.906250 1.000000
vt 0.906250 0.500000
vt 0.875000 1.000000
vt 0.875000 0.500000
vt 0.843750 1.000000
vt 0.843750 0.500000
vt 0.812500 1.000000
vt 0.812500 0.500000
vt 0.781250 1.000000
vt 0.781250 0.500000
vt 0.750000 1.000000
vt 0.750000 0.500000
vt 0.718750 1.000000
vt 0.718750 0.500000
vt 0.687500 1.000000
vt 0.687500 0.500000
vt 0.656250 1.000000
vt 0.656250 0.500000
vt 0.625000 1.000000
vt 0.625000 0.500000
vt 0.593750 1.000000
vt 0.593750 0.500000
vt 0.562500 1.000000
vt 0.562500 0.500000
vt 0.531250 1.000000
vt 0.531250 0.500000
vt 0.500000 1.000000
vt 0.500000 0.500000
vt 0.468750 1.000000
vt 0.468750 0.500000
vt 0.437500 1.000000
vt 0.437500 0.500000
vt 0.406250 1.000000
vt 0.406250 0.500000
vt 0.375000 1.000000
vt 0.375000 0.500000
vt 0.343750 1.000000
vt 0.343750 0.500000
vt 0.312500 1.000000
vt 0.312500 0.500000
vt 0.281250 1.000000
vt 0.281250 0.500000
vt 0.250000 1.000000
vt 0.250000 0.500000
vt 0.218750 1.000000
vt 0.218750 0.500000
vt 0.187500 1.000000
vt 0.187500 0.500000
vt 0.156250 1.000000
vt 0.156250 0.500000
vt 0.125000 1.000000
vt 0.125000 0.500000
vt 0.093750 1.000000
vt 0.093750 0.500000
vt 0.062500 1.000000
vt 0.062500 0.500000
vt 0.296822 0.485388
vt 0.250000 0.490000
vt 0.203179 0.485389
vt 0.158156 0.471731
vt 0.116663 0.449553
vt 0.080295 0.419706
vt 0.050447 0.383337
vt 0.028269 0.341844
vt 0.014612 0.296822
vt 0.010000 0.250000
vt 0.014612 0.203179
vt 0.028269 0.158156
vt 0.050447 0.116663
vt 0.080294 0.080294
vt 0.116663 0.050447
vt 0.158156 0.028269
vt 0.203178 0.014612
vt 0.250000 0.010000
vt 0.296822 0.014612
vt 0.341844 0.028269
vt 0.383337 0.050447
vt 0.419706 0.080294
vt 0.449553 0.116663
vt 0.471731 0.158156
vt 0.485388 0.203178
vt 0.490000 0.250000
vt 0.485388 0.296822
vt 0.471731 0.341844
vt 0.449553 0.383337
vt 0.419706 0.419706
vt 0.383337 0.449553
vt 0.341844 0.471731
vt 0.031250 1.000000
vt 0.031250 0.500000
vt 0.000000 1.000000
vt 0.000000 0.500000
vt 0.750000 0.490000
vt 0.796822 0.485388
vt 0.841844 0.471731
vt 0.883337 0.449553
vt 0.919706 0.419706
vt 0.949553 0.383337
vt 0.971731 0.341844
vt 0.985388 0.296822
vt 0.990000 0.250000
vt 0.985388 0.203178
vt 0.971731 0.158156
vt 0.949553 0.116663
vt 0.919706 0.080294
vt 0.883337 0.050447
vt 0.841844 0.028269
vt 0.796822 0.014612
vt 0.750000 0.010000
vt 0.703178 0.014612
vt 0.658156 0.028269
vt 0.616663 0.050447
vt 0.580294 0.080294
vt 0.550447 0.116663
vt 0.528269 0.158156
vt 0.514611 0.203179
vt 0.510000 0.250000
vt 0.514612 0.296822
vt 0.528269 0.341844
vt 0.550447 0.383337
vt 0.580295 0.419706
vt 0.616663 0.449553
vt 0.658156 0.471731
vt 0.703179 0.485389
vt 0.750000 0.490000
vt 0.703179 0.485389
vt 0.658156 0.471731
vt 0.616663 0.449553
vt 0.580295 0.419706
vt 0.550447 0.383337
vt 0.528269 0.341844
vt 0.514612 0.296822
vt 0.510000 0.250000
vt 0.514611 0.203179
vt 0.528269 0.158156
vt 0.550447 0.116663
vt 0.580294 0.080294
vt 0.616663 0.050447
vt 0.658156 0.028269
vt 0.703178 0.014612
vt 0.750000 0.010000
vt 0.796822 0.014612
vt 0.841844 0.028269
vt 0.883337 0.050447
vt 0.919706 0.080294
vt 0.949553 0.116663
vt 0.971731 0.158156
vt 0.985388 0.203178
vt 0.990000 0.250000
vt 0.985388 0.296822
vt 0.971731 0.341844
vt 0.949553 0.383337
vt 0.919706 0.419706
vt 0.883337 0.449553
vt 0.841844 0.471731
vt 0.796822 0.485388
vt 1.000000 0.500000
vt 0.968750 0.500000
vt 0.968750 1.000000
vt 1.000000 1.000000
vt 0.937500 0.500000
vt 0.937500 1.000000
vt 0.906250 0.500000
vt 0.906250 1.000000
vt 0.875000 0.500000
vt 0.875000 1.000000
vt 0.843750 0.500000
vt 0.843750 1.000000
vt 0.812500 0.500000
vt 0.812500 1.000000
vt 0.781250 0.500000
vt 0.781250 1.000000
vt 0.750000 0.500000
vt 0.750000 1.000000
vt 0.718750 0.500000
vt 0.718750 1.000000
vt 0.687500 0.500000
vt 0.687500 1.000000
vt 0.656250 0.500000
vt 0.656250 1.000000
vt 0.625000 0.500000
vt 0.625000 1.000000
vt 0.593750 0.500000
vt 0.593750 1.000000
vt 0.562500 0.500000
vt 0.562500 1.000000
vt 0.531250 0.500000
vt 0.531250 1.000000
vt 0.500000 0.500000
vt 0.500000 1.000000
vt 0.468750 0.500000
vt 0.468750 1.000000
vt 0.437500 0.500000
vt 0.437500 1.000000
vt 0.406250 0.500000
vt 0.406250 1.000000
vt 0.375000 0.500000
vt 0.375000 1.000000
vt 0.343750 0.500000
vt 0.343750 1.000000
vt 0.312500 0.500000
vt 0.312500 1.000000
vt 0.281250 0.500000
vt 0.281250 1.000000
vt 0.250000 0.500000
vt 0.250000 1.000000
vt 0.218750 0.500000
vt 0.218750 1.000000
vt 0.187500 0.500000
vt 0.187500 1.000000
vt 0.156250 0.500000
vt 0.156250 1.000000
vt 0.125000 0.500000
vt 0.125000 1.000000
vt 0.093750 0.500000
vt 0.093750 1.000000
vt 0.062500 0.500000
vt 0.062500 1.000000
vt 0.296822 0.485388
vt 0.341844 0.471731
vt 0.383337 0.449553
vt 0.419706 0.419706
vt 0.449553 0.383337
vt 0.471731 0.341844
vt 0.485388 0.296822
vt 0.490000 0.250000
vt 0.485388 0.203178
vt 0.471731 0.158156
vt 0.449553 0.116663
vt 0.419706 0.080294
vt 0.383337 0.050447
vt 0.341844 0.028269
vt 0.296822 0.014612
vt 0.250000 0.010000
vt 0.203178 0.014612
vt 0.158156 0.028269
vt 0.116663 0.050447
vt 0.080294 0.080294
vt 0.050447 0.116663
vt 0.028269 0.158156
vt 0.014612 0.203179
vt 0.010000 0.250000
vt 0.014612 0.296822
vt 0.028269 0.341844
vt 0.050447 0.383337
vt 0.080295 0.419706
vt 0.116663 0.449553
vt 0.158156 0.471731
vt 0.203179 0.485389
vt 0.250000 0.490000
vt 0.031250 0.500000
vt 0.031250 1.000000
vt 0.000000 0.500000
vt 0.000000 1.000000
vt 0.750000 0.490000
vt 0.703179 0.485389
vt 0.658156 0.471731
vt 0.616663 0.449553
vt 0.580295 0.419706
vt 0.550447 0.383337
vt 0.528269 0.341844
vt 0.514612 0.296822
vt 0.510000 0.250000
vt 0.514611 0.203179
vt 0.528269 0.158156
vt 0.550447 0.116663
vt 0.580294 0.080294
vt 0.616663 0.050447
vt 0.658156 0.028269
vt 0.703178 0.014612
vt 0.750000 0.010000
vt 0.796822 0.014612
vt 0.841844 0.028269
vt 0.883337 0.050447
vt 0.919706 0.080294
vt 0.949553 0.116663
vt 0.971731 0.158156
vt 0.985388 0.203178
vt 0.990000 0.250000
vt 0.985388 0.296822
vt 0.971731 0.341844
vt 0.949553 0.383337
vt 0.919706 0.419706
vt 0.883337 0.449553
vt 0.841844 0.471731
vt 0.796822 0.485388
vt 0.250000 0.490000
vt 0.250000 0.250000
vt 0.296822 0.485388
vt 0.341844 0.471731
vt 0.383337 0.449553
vt 0.419706 0.419706
vt 0.449553 0.383337
vt 0.471731 0.341844
vt 0.485388 0.296822
vt 0.490000 0.250000
vt 0.485388 0.203178
vt 0.471731 0.158156
vt 0.449553 0.116663
vt 0.419706 0.080294
vt 0.383337 0.050447
vt 0.341844 0.028269
vt 0.296822 0.014612
vt 0.250000 0.010000
vt 0.203178 0.014612
vt 0.158156 0.028269
vt 0.116663 0.050447
vt 0.080294 0.080294
vt 0.050447 0.116663
vt 0.028269 0.158156
vt 0.014612 0.203179
vt 0.010000 0.250000
vt 0.014612 0.296822
vt 0.028269 0.341844
vt 0.050447 0.383337
vt 0.080295 0.419706
vt 0.116663 0.449553
vt 0.158156 0.471731
vt 0.203179 0.485389
vt 0.250000 0.490000
vt 0.250000 0.250000
vt 0.296822 0.485388
vt 0.341844 0.471731
vt 0.383337 0.449553
vt 0.419706 0.419706
vt 0.449553 0.383337
vt 0.471731 0.341844
vt 0.485388 0.296822
vt 0.490000 0.250000
vt 0.485388 0.203178
vt 0.471731 0.158156
vt 0.449553 0.116663
vt 0.419706 0.080294
vt 0.383337 0.050447
vt 0.341844 0.028269
vt 0.296822 0.014612
vt 0.250000 0.010000
vt 0.203178 0.014612
vt 0.158156 0.028269
vt 0.116663 0.050447
vt 0.080294 0.080294
vt 0.050447 0.116663
vt 0.028269 0.158156
vt 0.014612 0.203179
vt 0.010000 0.250000
vt 0.014612 0.296822
vt 0.028269 0.341844
vt 0.050447 0.383337
vt 0.080295 0.419706
vt 0.116663 0.449553
vt 0.158156 0.471731
vt 0.203179 0.485389
vt 0.250000 0.490000
vt 0.296822 0.485388
vt 0.250000 0.250000
vt 0.341844 0.471731
vt 0.383337 0.449553
vt 0.419706 0.419706
vt 0.449553 0.383337
vt 0.471731 0.341844
vt 0.485388 0.296822
vt 0.490000 0.250000
vt 0.485388 0.203178
vt 0.471731 0.158156
vt 0.449553 0.116663
vt 0.419706 0.080294
vt 0.383337 0.050447
vt 0.341844 0.028269
vt 0.296822 0.014612
vt 0.250000 0.010000
vt 0.203178 0.014612
vt 0.158156 0.028269
vt 0.116663 0.050447
vt 0.080294 0.080294
vt 0.050447 0.116663
vt 0.028269 0.158156
vt 0.014612 0.203179
vt 0.010000 0.250000
vt 0.014612 0.296822
vt 0.028269 0.341844
vt 0.050447 0.383337
vt 0.080295 0.419706
vt 0.116663 0.449553
vt 0.158156 0.471731
vt 0.203179 0.485389
vt 0.750000 0.250000
vt 0.000000 0.500000
vt 0.250000 0.490000
vt 0.250000 0.250000
vt 0.500000 1.000000
vt 0.750000 0.010000
vt 0.703178 0.014612
vt 0.203178 0.014612
vt 0.250000 0.010000
vt 0.500000 0.500000
vt 0.468750 1.000000
vt 0.468750 0.500000
vt 0.658156 0.028269
vt 0.158156 0.028269
vt 0.437500 1.000000
vt 0.437500 0.500000
vt 0.616663 0.050447
vt 0.116663 0.050447
vt 0.406250 1.000000
vt 0.406250 0.500000
vt 0.580294 0.080294
vt 0.080294 0.080294
vt 0.375000 1.000000
vt 0.375000 0.500000
vt 0.550447 0.116663
vt 0.050447 0.116663
vt 0.343750 1.000000
vt 0.343750 0.500000
vt 0.528269 0.158156
vt 0.028269 0.158156
vt 0.312500 1.000000
vt 0.312500 0.500000
vt 0.514611 0.203179
vt 0.014612 0.203179
vt 0.281250 1.000000
vt 0.281250 0.500000
vt 0.510000 0.250000
vt 0.010000 0.250000
vt 0.250000 1.000000
vt 0.250000 0.500000
vt 0.514612 0.296822
vt 0.014612 0.296822
vt 0.218750 1.000000
vt 0.218750 0.500000
vt 0.528269 0.341844
vt 0.028269 0.341844
vt 0.187500 1.000000
vt 0.187500 0.500000
vt 0.550447 0.383337
vt 0.050447 0.383337
vt 0.156250 1.000000
vt 0.156250 0.500000
vt 0.580295 0.419706
vt 0.080295 0.419706
vt 0.125000 1.000000
vt 0.125000 0.500000
vt 0.616663 0.449553
vt 0.116663 0.449553
vt 0.093750 1.000000
vt 0.093750 0.500000
vt 0.658156 0.471731
vt 0.158156 0.471731
vt 0.062500 1.000000
vt 0.062500 0.500000
vt 0.703179 0.485389
vt 0.203179 0.485389
vt 0.031250 1.000000
vt 0.031250 0.500000
vt 0.750000 0.490000
vt 0.000000 1.000000
vn 0.0000 -0.3637 -0.9315
vn 0.1817 -0.3637 -0.9136
vn 0.3565 -0.3637 -0.8606
vn 0.5175 -0.3637 -0.7745
vn 0.6587 -0.3637 -0.6587
vn 0.7745 -0.3637 -0.5175
vn 0.8606 -0.3637 -0.3565
vn 0.9136 -0.3637 -0.1817
vn 0.9315 -0.3637 0.0000
vn 0.9136 -0.3637 0.1817
vn 0.8606 -0.3637 0.3565
vn 0.7745 -0.3637 0.5175
vn 0.6587 -0.3637 0.6587
vn 0.5175 -0.3637 0.7745
vn 0.3565 -0.3637 0.8606
vn 0.1817 -0.3637 0.9136
vn 0.0000 -0.3637 0.9315
vn -0.1817 -0.3637 0.9136
vn -0.3565 -0.3637 0.8606
vn -0.5175 -0.3637 0.7745
vn -0.6587 -0.3637 0.6587
vn -0.7745 -0.3637 0.5175
vn -0.8606 -0.3637 0.3565
vn -0.9136 -0.3637 0.1817
vn -0.9315 -0.3637 0.0000
vn -0.9136 -0.3637 -0.1817
vn -0.8606 -0.3637 -0.3565
vn -0.7745 -0.3637 -0.5175
vn -0.6587 -0.3637 -0.6587
vn -0.5175 -0.3637 -0.7745
vn -0.3565 -0.3637 -0.8606
vn -0.1817 -0.3637 -0.9136
vn 0.0000 -0.6857 -0.7279
vn 0.0000 0.6857 -0.7279
vn 0.1420 0.6857 -0.7139
vn 0.1420 -0.6857 -0.7139
vn 0.2785 0.6857 -0.6725
vn 0.2785 -0.6857 -0.6725
vn 0.4044 0.6857 -0.6052
vn 0.4044 -0.6857 -0.6052
vn 0.5147 0.6857 -0.5147
vn 0.5147 -0.6857 -0.5147
vn 0.6052 0.6857 -0.4044
vn 0.6052 -0.6857 -0.4044
vn 0.6725 0.6857 -0.2785
vn 0.6725 -0.6857 -0.2785
vn 0.7139 0.6857 -0.1420
vn 0.7139 -0.6857 -0.1420
vn 0.7279 0.6857 0.0000
vn 0.7279 -0.6857 0.0000
vn 0.7139 0.6857 0.1420
vn 0.7139 -0.6857 0.1420
vn 0.6725 0.6857 0.2785
vn 0.6725 -0.6857 0.2785
vn 0.6052 0.6857 0.4044
vn 0.6052 -0.6857 0.4044
vn 0.5147 0.6857 0.5147
vn 0.5147 -0.6857 0.5147
vn 0.4044 0.6857 0.6052
vn 0.4044 -0.6857 0.6052
vn 0.2785 0.6857 0.6725
vn 0.2785 -0.6857 0.6725
vn 0.1420 0.6857 0.7139
vn 0.1420 -0.6857 0.7139
vn 0.0000 0.6857 0.7279
vn 0.0000 -0.6857 0.7279
vn -0.1420 0.6857 0.7139
vn -0.1420 -0.6857 0.7139
vn -0.2785 0.6857 0.6725
vn -0.2785 -0.6857 0.6725
vn -0.4044 0.6857 0.6052
vn -0.4044 -0.6857 0.6052
vn -0.5147 0.6857 0.5147
vn -0.5147 -0.6857 0.5147
vn -0.6052 0.6857 0.4044
vn -0.6052 -0.6857 0.4044
vn -0.6725 0.6857 0.2785
vn -0.6725 -0.6857 0.2785
vn -0.7139 0.6857 0.1420
vn -0.7139 -0.6857 0.1420
vn -0.7279 0.6857 0.0000
vn -0.7279 -0.6857 0.0000
vn -0.7139 0.6857 -0.1420
vn -0.7139 -0.6857 -0.1420
vn -0.6725 0.6857 -0.2785
vn -0.6725 -0.6857 -0.2785
vn -0.6052 0.6857 -0.4044
vn -0.6052 -0.6857 -0.4044
vn -0.5147 0.6857 -0.5147
vn -0.5147 -0.6857 -0.5147
vn -0.4044 0.6857 -0.6052
vn -0.4044 -0.6857 -0.6052
vn -0.2785 0.6857 -0.6725
vn -0.2785 -0.6857 -0.6725
vn -0.1420 0.6857 -0.7139
vn -0.1420 -0.6857 -0.7139
vn 0.0000 0.2272 -0.9738
vn 0.1810 0.2170 -0.9592
vn 0.3551 0.1867 -0.9160
vn 0.5156 0.1375 -0.8457
vn 0.6562 0.0713 -0.7512
vn 0.7716 -0.0093 -0.6360
vn 0.8574 -0.1014 -0.5045
vn 0.9102 -0.2012 -0.3619
vn 0.9280 -0.3051 -0.2136
vn 0.9102 -0.4089 -0.0653
vn 0.8574 -0.5088 0.0773
vn 0.7716 -0.6008 0.2087
vn 0.6562 -0.6815 0.3239
vn 0.5156 -0.7477 0.4184
vn 0.3551 -0.7969 0.4887
vn 0.1810 -0.8272 0.5320
vn 0.0000 -0.8374 0.5466
vn -0.1810 -0.8272 0.5320
vn -0.3551 -0.7969 0.4887
vn -0.5156 -0.7477 0.4184
vn -0.6562 -0.6815 0.3239
vn -0.7716 -0.6008 0.2087
vn -0.8574 -0.5088 0.0773
vn -0.9102 -0.4089 -0.0653
vn -0.9280 -0.3051 -0.2136
vn -0.9102 -0.2012 -0.3619
vn -0.8574 -0.1014 -0.5045
vn -0.7716 -0.0093 -0.6360
vn -0.6562 0.0713 -0.7512
vn -0.5156 0.1375 -0.8457
vn -0.3551 0.1867 -0.9160
vn -0.1810 0.2170 -0.9592
vn 0.0000 -0.1442 -0.9895
vn 0.0000 0.9792 -0.2029
vn 0.1420 0.9712 -0.1915
vn 0.1420 -0.1522 -0.9781
vn 0.2785 0.9474 -0.1575
vn 0.2785 -0.1760 -0.9442
vn 0.4044 0.9088 -0.1025
vn 0.4044 -0.2145 -0.8890
vn 0.5147 0.8569 -0.0283
vn 0.5147 -0.2665 -0.8149
vn 0.6052 0.7936 0.0620
vn 0.6052 -0.3297 -0.7245
vn 0.6725 0.7215 0.1651
vn 0.6725 -0.4019 -0.6214
vn 0.7139 0.6431 0.2770
vn 0.7139 -0.4802 -0.5096
vn 0.7279 0.5617 0.3933
vn 0.7279 -0.5617 -0.3933
vn 0.7139 0.4802 0.5096
vn 0.7139 -0.6431 -0.2770
vn 0.6725 0.4019 0.6214
vn 0.6725 -0.7215 -0.1651
vn 0.6052 0.3297 0.7245
vn 0.6052 -0.7936 -0.0620
vn 0.5147 0.2665 0.8149
vn 0.5147 -0.8569 0.0283
vn 0.4044 0.2145 0.8890
vn 0.4044 -0.9088 0.1025
vn 0.2785 0.1760 0.9442
vn 0.2785 -0.9474 0.1575
vn 0.1420 0.1522 0.9781
vn 0.1420 -0.9712 0.1915
vn 0.0000 0.1442 0.9895
vn 0.0000 -0.9792 0.2029
vn -0.1420 0.1522 0.9781
vn -0.1420 -0.9712 0.1915
vn -0.2785 0.1760 0.9442
vn -0.2785 -0.9474 0.1575
vn -0.4044 0.2145 0.8890
vn -0.4044 -0.9088 0.1025
vn -0.5147 0.2665 0.8149
vn -0.5147 -0.8569 0.0283
vn -0.6052 0.3297 0.7245
vn -0.6052 -0.7936 -0.0620
vn -0.6725 0.4019 0.6214
vn -0.6725 -0.7215 -0.1651
vn -0.7139 0.4802 0.5096
vn -0.7139 -0.6431 -0.2770
vn -0.7279 0.5617 0.3933
vn -0.7279 -0.5617 -0.3933
vn -0.7139 0.6431 0.2770
vn -0.7139 -0.4802 -0.5096
vn -0.6725 0.7215 0.1651
vn -0.6725 -0.4019 -0.6214
vn -0.6052 0.7936 0.0620
vn -0.6052 -0.3297 -0.7245
vn -0.5147 0.8569 -0.0283
vn -0.5147 -0.2665 -0.8149
vn -0.4044 0.9088 -0.1025
vn -0.4044 -0.2145 -0.8890
vn -0.2785 0.9474 -0.1575
vn -0.2785 -0.1760 -0.9442
vn -0.1420 0.9712 -0.1915
vn -0.1420 -0.1522 -0.9781
vn 0.0000 0.2272 0.9738
vn -0.1810 0.2170 0.9592
vn -0.3551 0.1867 0.9160
vn -0.5156 0.1375 0.8457
vn -0.6562 0.0713 0.7512
vn -0.7716 -0.0093 0.6360
vn -0.8574 -0.1014 0.5045
vn -0.9102 -0.2012 0.3619
vn -0.9280 -0.3051 0.2136
vn -0.9102 -0.4089 0.0653
vn -0.8574 -0.5088 -0.0773
vn -0.7716 -0.6008 -0.2087
vn -0.6562 -0.6815 -0.3239
vn -0.5156 -0.7477 -0.4184
vn -0.3551 -0.7969 -0.4887
vn -0.1810 -0.8272 -0.5320
vn 0.0000 -0.8374 -0.5466
vn 0.1810 -0.8272 -0.5320
vn 0.3551 -0.7969 -0.4887
vn 0.5156 -0.7477 -0.4184
vn 0.6562 -0.6815 -0.3239
vn 0.7716 -0.6008 -0.2087
vn 0.8574 -0.5088 -0.0773
vn 0.9102 -0.4089 0.0653
vn 0.9280 -0.3051 0.2136
vn 0.9102 -0.2012 0.3619
vn 0.8574 -0.1014 0.5045
vn 0.7716 -0.0093 0.6360
vn 0.6562 0.0713 0.7512
vn 0.5156 0.1375 0.8457
vn 0.3551 0.1867 0.9160
vn 0.1810 0.2170 0.9592
vn 0.0000 -0.1442 0.9895
vn 0.1420 -0.1522 0.9781
vn 0.1420 0.9712 0.1915
vn 0.0000 0.9792 0.2029
vn 0.2785 -0.1760 0.9442
vn 0.2785 0.9474 0.1575
vn 0.4044 -0.2145 0.8890
vn 0.4044 0.9088 0.1025
vn 0.5147 -0.2665 0.8149
vn 0.5147 0.8569 0.0283
vn 0.6052 -0.3297 0.7245
vn 0.6052 0.7936 -0.0620
vn 0.6725 -0.4019 0.6214
vn 0.6725 0.7215 -0.1651
vn 0.7139 -0.4802 0.5096
vn 0.7139 0.6431 -0.2770
vn 0.7279 -0.5617 0.3933
vn 0.7279 0.5617 -0.3933
vn 0.7139 -0.6431 0.2770
vn 0.7139 0.4802 -0.5096
vn 0.6725 -0.7215 0.1651
vn 0.6725 0.4019 -0.6214
vn 0.6052 -0.7936 0.0620
vn 0.6052 0.3297 -0.7245
vn 0.5147 -0.8569 -0.0283
vn 0.5147 0.2665 -0.8149
vn 0.4044 -0.9088 -0.1025
vn 0.4044 0.2145 -0.8890
vn 0.2785 -0.9474 -0.1575
vn 0.2785 0.1760 -0.9442
vn 0.1420 -0.9712 -0.1915
vn 0.1420 0.1522 -0.9781
vn 0.0000 -0.9792 -0.2029
vn 0.0000 0.1442 -0.9895
vn -0.1420 -0.9712 -0.1915
vn -0.1420 0.1522 -0.9781
vn -0.2785 -0.9474 -0.1575
vn -0.2785 0.1760 -0.9442
vn -0.4044 -0.9088 -0.1025
vn -0.4044 0.2145 -0.8890
vn -0.5147 -0.8569 -0.0283
vn -0.5147 0.2665 -0.8149
vn -0.6052 -0.7936 0.0620
vn -0.6052 0.3297 -0.7245
vn -0.6725 -0.7215 0.1651
vn -0.6725 0.4019 -0.6214
vn -0.7139 -0.6431 0.2770
vn -0.7139 0.4802 -0.5096
vn -0.7279 -0.5617 0.3933
vn -0.7279 0.5617 -0.3933
vn -0.7139 -0.4802 0.5096
vn -0.7139 0.6431 -0.2770
vn -0.6725 -0.4019 0.6214
vn -0.6725 0.7215 -0.1651
vn -0.6052 -0.3297 0.7245
vn -0.6052 0.7936 -0.0620
vn -0.5147 -0.2665 0.8149
vn -0.5147 0.8569 0.0283
vn -0.4044 -0.2145 0.8890
vn -0.4044 0.9088 0.1025
vn -0.2785 -0.1760 0.9442
vn -0.2785 0.9474 0.1575
vn -0.1420 0.9712 0.1915
vn -0.1420 -0.1522 0.9781
vn 0.0000 1.0000 0.0000
vn 0.0000 0.8191 0.5736
vn 0.0000 0.8191 -0.5736
vn 0.0000 -1.0000 0.0000
vn -1.0000 0.0000 0.0000
vn 1.0000 0.0000 0.0000
vn 0.0000 0.0328 0.9995
vn 0.0000 0.1006 0.9949
vn 0.0000 0.1754 0.9845
vn 0.0000 0.2639 0.9646
vn 0.0000 0.3763 0.9265
vn -0.0000 0.5292 0.8485
vn -0.0000 0.7396 0.6731
vn 0.0000 0.9590 0.2834
vn 0.0000 0.9590 -0.2834
vn 0.0000 0.7396 -0.6731
vn 0.0000 0.5292 -0.8485
vn -0.0000 0.3763 -0.9265
vn -0.0000 0.2639 -0.9646
vn -0.0000 0.1754 -0.9845
vn -0.0000 0.1006 -0.9949
vn 0.0000 0.0328 -0.9995
usemtl Material.001
s 1
f 1/1/1 2/2/2 3/3/3 4/4/4 5/5/5 6/6/6 7/7/7 8/8/8 9/9/9 10/10/10 11/11/11 12/12/12 13/13/13 14/14/14 15/15/15 16/16/16 17/17/17 18/18/18 19/19/19 20/20/20 21/21/21 22/22/22 23/23/23 25/24/24 26/25/25 27/26/26 28/27/27 29/28/28 30/29/29 31/30/30 32/31/31 33/32/32
f 34/33/33 35/34/34 37/35/35 36/36/36
f 36/36/36 37/35/35 39/37/37 38/38/38
f 38/38/38 39/37/37 41/39/39 40/40/40
f 40/40/40 41/39/39 43/41/41 42/42/42
f 42/42/42 43/41/41 45/43/43 44/44/44
f 44/44/44 45/43/43 47/45/45 46/46/46
f 46/46/46 47/45/45 49/47/47 48/48/48
f 48/48/48 49/47/47 51/49/49 50/50/50
f 50/50/50 51/49/49 53/51/51 52/52/52
f 52/52/52 53/51/51 55/53/53 54/54/54
f 54/54/54 55/53/53 57/55/55 56/56/56
f 56/56/56 57/55/55 59/57/57 58/58/58
f 58/58/58 59/57/57 61/59/59 60/60/60
f 60/60/60 61/59/59 63/61/61 62/62/62
f 62/62/62 63/61/61 65/63/63 64/64/64
f 64/64/64 65/63/63 67/65/65 66/66/66
f 66/66/66 67/65/65 69/67/67 68/68/68
f 68/68/68 69/67/67 71/69/69 70/70/70
f 70/70/70 71/69/69 73/71/71 72/72/72
f 72/72/72 73/71/71 75/73/73 74/74/74
f 74/74/74 75/73/73 77/75/75 76/76/76
f 76/76/76 77/75/75 79/77/77 78/78/78
f 78/78/78 79/77/77 81/79/79 80/80/80
f 80/80/80 81/79/79 83/81/81 82/82/82
f 82/82/82 83/81/81 85/83/83 84/84/84
f 84/84/84 85/83/83 87/85/85 86/86/86
f 86/86/86 87/85/85 89/87/87 88/88/88
f 88/88/88 89/87/87 91/89/89 90/90/90
f 90/90/90 91/89/89 93/91/91 92/92/92
f 92/92/92 93/91/91 95/93/93 94/94/94
f 37/95/35 35/96/34 97/97/95 95/98/93 93/99/91 91/100/89 89/101/87 87/102/85 85/103/83 83/104/81 81/105/79 79/106/77 77/107/75 75/108/73 73/109/71 71/110/69 69/111/67 67/112/65 65/113/63 63/114/61 61/115/59 59/116/57 57/117/55 55/118/53 53/119/51 51/120/49 49/121/47 47/122/45 45/123/43 43/124/41 41/125/39 39/126/37
f 94/94/94 95/93/93 97/127/95 96/128/96
f 96/128/96 97/127/95 35/129/34 34/130/33
f 34/131/33 36/132/36 38/133/38 40/134/40 42/135/42 44/136/44 46/137/46 48/138/48 50/139/50 52/140/52 54/141/54 56/142/56 58/143/58 60/144/60 62/145/62 64/146/64 66/147/66 68/148/68 70/149/70 72/150/72 74/151/74 76/152/76 78/153/78 80/154/80 82/155/82 84/156/84 86/157/86 88/158/88 90/159/90 92/160/92 94/161/94 96/162/96
f 98/163/97 99/164/98 100/165/99 101/166/100 102/167/101 103/168/102 104/169/103 105/170/104 106/171/105 107/172/106 108/173/107 109/174/108 110/175/109 111/176/110 112/177/111 113/178/112 114/179/113 115/180/114 116/181/115 117/182/116 118/183/117 119/184/118 120/185/119 122/186/120 123/187/121 124/188/122 125/189/123 126/190/124 127/191/125 128/192/126 129/193/127 130/194/128
f 131/195/129 132/196/130 134/197/131 133/198/132
f 133/198/132 134/197/131 136/199/133 135/200/134
f 135/200/134 136/199/133 138/201/135 137/202/136
f 137/202/136 138/201/135 140/203/137 139/204/138
f 139/204/138 140/203/137 142/205/139 141/206/140
f 141/206/140 142/205/139 144/207/141 143/208/142
f 143/208/142 144/207/141 146/209/143 145/210/144
f 145/210/144 146/209/143 148/211/145 147/212/146
f 147/212/146 148/211/145 150/213/147 149/214/148
f 149/214/148 150/213/147 152/215/149 151/216/150
f 151/216/150 152/215/149 154/217/151 153/218/152
f 153/218/152 154/217/151 156/219/153 155/220/154
f 155/220/154 156/219/153 158/221/155 157/222/156
f 157/222/156 158/221/155 160/223/157 159/224/158
f 159/224/158 160/223/157 162/225/159 161/226/160
f 161/226/160 162/225/159 164/227/161 163/228/162
f 163/228/162 164/227/161 166/229/163 165/230/164
f 165/230/164 166/229/163 168/231/165 167/232/166
f 167/232/166 168/231/165 170/233/167 169/234/168
f 169/234/168 170/233/167 172/235/169 171/236/170
f 171/236/170 172/235/169 174/237/171 173/238/172
f 173/238/172 174/237/171 176/239/173 175/240/174
f 175/240/174 176/239/173 178/241/175 177/242/176
f 177/242/176 178/241/175 180/243/177 179/244/178
f 179/244/178 180/243/177 182/245/179 181/246/180
f 181/246/180 182/245/179 184/247/181 183/248/182
f 183/248/182 184/247/181 186/249/183 185/250/184
f 185/250/184 186/249/183 188/251/185 187/252/186
f 187/252/186 188/251/185 190/253/187 189/254/188
f 189/254/188 190/253/187 192/255/189 191/256/190
f 134/257/131 132/258/130 194/259/191 192/260/189 190/261/187 188/262/185 186/263/183 184/264/181 182/265/179 180/266/177 178/267/175 176/268/173 174/269/171 172/270/169 170/271/167 168/272/165 166/273/163 164/274/161 162/275/159 160/276/157 158/277/155 156/278/153 154/279/151 152/280/149 150/281/147 148/282/145 146/283/143 144/284/141 142/285/139 140/286/137 138/287/135 136/288/133
f 191/256/190 192/255/189 194/289/191 193/290/192
f 193/290/192 194/289/191 132/291/130 131/292/129
f 131/293/129 133/294/132 135/295/134 137/296/136 139/297/138 141/298/140 143/299/142 145/300/144 147/301/146 149/302/148 151/303/150 153/304/152 155/305/154 157/306/156 159/307/158 161/308/160 163/309/162 165/310/164 167/311/166 169/312/168 171/313/170 173/314/172 175/315/174 177/316/176 179/317/178 181/318/180 183/319/182 185/320/184 187/321/186 189/322/188 191/323/190 193/324/192
f 195/325/193 227/326/194 226/327/195 225/328/196 224/329/197 223/330/198 222/331/199 221/332/200 220/333/201 219/334/202 217/335/203 216/336/204 215/337/205 214/338/206 213/339/207 212/340/208 211/341/209 210/342/210 209/343/211 208/344/212 207/345/213 206/346/214 205/347/215 204/348/216 203/349/217 202/350/218 201/351/219 200/352/220 199/353/221 198/354/222 197/355/223 196/356/224
f 228/357/225 230/358/226 231/359/227 229/360/228
f 230/358/226 232/361/229 233/362/230 231/359/227
f 232/361/229 234/363/231 235/364/232 233/362/230
f 234/363/231 236/365/233 237/366/234 235/364/232
f 236/365/233 238/367/235 239/368/236 237/366/234
f 238/367/235 240/369/237 241/370/238 239/368/236
f 240/369/237 242/371/239 243/372/240 241/370/238
f 242/371/239 244/373/241 245/374/242 243/372/240
f 244/373/241 246/375/243 247/376/244 245/374/242
f 246/375/243 248/377/245 249/378/246 247/376/244
f 248/377/245 250/379/247 251/380/248 249/378/246
f 250/379/247 252/381/249 253/382/250 251/380/248
f 252/381/249 254/383/251 255/384/252 253/382/250
f 254/383/251 256/385/253 257/386/254 255/384/252
f 256/385/253 258/387/255 259/388/256 257/386/254
f 258/387/255 260/389/257 261/390/258 259/388/256
f 260/389/257 262/391/259 263/392/260 261/390/258
f 262/391/259 264/393/261 265/394/262 263/392/260
f 264/393/261 266/395/263 267/396/264 265/394/262
f 266/395/263 268/397/265 269/398/266 267/396/264
f 268/397/265 270/399/267 271/400/268 269/398/266
f 270/399/267 272/401/269 273/402/270 271/400/268
f 272/401/269 274/403/271 275/404/272 273/402/270
f 274/403/271 276/405/273 277/406/274 275/404/272
f 276/405/273 278/407/275 279/408/276 277/406/274
f 278/407/275 280/409/277 281/410/278 279/408/276
f 280/409/277 282/411/279 283/412/280 281/410/278
f 282/411/279 284/413/281 285/414/282 283/412/280
f 284/413/281 286/415/283 287/416/284 285/414/282
f 286/415/283 288/417/285 289/418/286 287/416/284
f 231/419/227 233/420/230 235/421/232 237/422/234 239/423/236 241/424/238 243/425/240 245/426/242 247/427/244 249/428/246 251/429/248 253/430/250 255/431/252 257/432/254 259/433/256 261/434/258 263/435/260 265/436/262 267/437/264 269/438/266 271/439/268 273/440/270 275/441/272 277/442/274 279/443/276 281/444/278 283/445/280 285/446/282 287/447/284 289/448/286 291/449/287 229/450/228
f 288/417/285 290/451/288 291/452/287 289/418/286
f 290/451/288 228/453/225 229/454/228 291/452/287
f 228/455/225 290/456/288 288/457/285 286/458/283 284/459/281 282/460/279 280/461/277 278/462/275 276/463/273 274/464/271 272/465/269 270/466/267 268/467/265 266/468/263 264/469/261 262/470/259 260/471/257 258/472/255 256/473/253 254/474/251 252/475/249 250/476/247 248/477/245 246/478/243 244/479/241 242/480/239 240/481/237 238/482/235 236/483/233 234/484/231 232/485/229 230/486/226
usemtl Material.002
f 1/487/1 24/488/289 2/489/2
f 2/489/2 24/488/289 3/490/3
f 3/490/3 24/488/289 4/491/4
f 4/491/4 24/488/289 5/492/5
f 5/492/5 24/488/289 6/493/6
f 6/493/6 24/488/289 7/494/7
f 7/494/7 24/488/289 8/495/8
f 8/495/8 24/488/289 9/496/9
f 9/496/9 24/488/289 10/497/10
f 10/497/10 24/488/289 11/498/11
f 11/498/11 24/488/289 12/499/12
f 12/499/12 24/488/289 13/500/13
f 13/500/13 24/488/289 14/501/14
f 14/501/14 24/488/289 15/502/15
f 15/502/15 24/488/289 16/503/16
f 16/503/16 24/488/289 17/504/17
f 17/504/17 24/488/289 18/505/18
f 18/505/18 24/488/289 19/506/19
f 19/506/19 24/488/289 20/507/20
f 20/507/20 24/488/289 21/508/21
f 21/508/21 24/488/289 22/509/22
f 22/509/22 24/488/289 23/510/23
f 23/510/23 24/488/289 25/511/24
f 25/511/24 24/488/289 26/512/25
f 26/512/25 24/488/289 27/513/26
f 27/513/26 24/488/289 28/514/27
f 28/514/27 24/488/289 29/515/28
f 29/515/28 24/488/289 30/516/29
f 30/516/29 24/488/289 31/517/30
f 31/517/30 24/488/289 32/518/31
f 32/518/31 24/488/289 33/519/32
f 33/519/32 24/488/289 1/487/1
f 98/520/97 121/521/290 99/522/98
f 99/522/98 121/521/290 100/523/99
f 100/523/99 121/521/290 101/524/100
f 101/524/100 121/521/290 102/525/101
f 102/525/101 121/521/290 103/526/102
f 103/526/102 121/521/290 104/527/103
f 104/527/103 121/521/290 105/528/104
f 105/528/104 121/521/290 106/529/105
f 106/529/105 121/521/290 107/530/106
f 107/530/106 121/521/290 108/531/107
f 108/531/107 121/521/290 109/532/108
f 109/532/108 121/521/290 110/533/109
f 110/533/109 121/521/290 111/534/110
f 111/534/110 121/521/290 112/535/111
f 112/535/111 121/521/290 113/536/112
f 113/536/112 121/521/290 114/537/113
f 114/537/113 121/521/290 115/538/114
f 115/538/114 121/521/290 116/539/115
f 116/539/115 121/521/290 117/540/116
f 117/540/116 121/521/290 118/541/117
f 118/541/117 121/521/290 119/542/118
f 119/542/118 121/521/290 120/543/119
f 120/543/119 121/521/290 122/544/120
f 122/544/120 121/521/290 123/545/121
f 123/545/121 121/521/290 124/546/122
f 124/546/122 121/521/290 125/547/123
f 125/547/123 121/521/290 126/548/124
f 126/548/124 121/521/290 127/549/125
f 127/549/125 121/521/290 128/550/126
f 128/550/126 121/521/290 129/551/127
f 129/551/127 121/521/290 130/552/128
f 130/552/128 121/521/290 98/520/97
f 195/553/193 196/554/224 218/555/291
f 196/554/224 197/556/223 218/555/291
f 197/556/223 198/557/222 218/555/291
f 198/557/222 199/558/221 218/555/291
f 199/558/221 200/559/220 218/555/291
f 200/559/220 201/560/219 218/555/291
f 201/560/219 202/561/218 218/555/291
f 202/561/218 203/562/217 218/555/291
f 203/562/217 204/563/216 218/555/291
f 204/563/216 205/564/215 218/555/291
f 205/564/215 206/565/214 218/555/291
f 206/565/214 207/566/213 218/555/291
f 207/566/213 208/567/212 218/555/291
f 208/567/212 209/568/211 218/555/291
f 209/568/211 210/569/210 218/555/291
f 210/569/210 211/570/209 218/555/291
f 211/570/209 212/571/208 218/555/291
f 212/571/208 213/572/207 218/555/291
f 213/572/207 214/573/206 218/555/291
f 214/573/206 215/574/205 218/555/291
f 215/574/205 216/575/204 218/555/291
f 216/575/204 217/576/203 218/555/291
f 217/576/203 219/577/202 218/555/291
f 219/577/202 220/578/201 218/555/291
f 220/578/201 221/579/200 218/555/291
f 221/579/200 222/580/199 218/555/291
f 222/580/199 223/581/198 218/555/291
f 223/581/198 224/582/197 218/555/291
f 224/582/197 225/583/196 218/555/291
f 225/583/196 226/584/195 218/555/291
f 226/584/195 227/585/194 218/555/291
f 227/585/194 195/553/193 218/555/291
usemtl Material.003
s off
f 292/586/292 294/587/292 295/588/292 293/589/292 297/590/292 296/591/292
f 292/586/293 296/591/293 298/592/293
f 293/589/294 299/593/294 297/594/294
f 296/595/295 297/590/295 299/596/295 298/597/295
f 292/586/293 298/592/293 300/598/293
f 293/589/294 301/599/294 299/593/294
f 298/597/296 299/596/296 301/600/296 300/601/296
f 292/586/293 300/598/293 302/602/293
f 293/589/294 303/603/294 301/599/294
f 300/601/297 301/600/297 303/604/297 302/605/297
f 292/586/293 302/602/293 304/606/293
f 293/589/294 305/607/294 303/603/294
f 302/605/298 303/604/298 305/608/298 304/609/298
f 292/586/293 304/606/293 306/610/293
f 293/589/294 307/611/294 305/607/294
f 304/609/299 305/608/299 307/612/299 306/613/299
f 292/586/293 306/610/293 308/614/293
f 293/589/294 309/615/294 307/611/294
f 306/613/300 307/612/300 309/616/300 308/617/300
f 292/586/293 308/614/293 310/618/293
f 293/589/294 311/619/294 309/615/294
f 308/617/301 309/616/301 311/620/301 310/621/301
f 292/586/293 310/618/293 312/622/293
f 293/589/294 313/623/294 311/619/294
f 310/621/302 311/620/302 313/624/302 312/625/302
f 292/586/293 312/622/293 314/626/293
f 293/589/294 315/627/294 313/623/294
f 312/625/303 313/624/303 315/628/303 314/629/303
f 292/586/293 314/626/293 316/630/293
f 293/589/294 317/631/294 315/627/294
f 314/629/304 315/628/304 317/632/304 316/633/304
f 292/586/293 316/630/293 318/634/293
f 293/589/294 319/635/294 317/631/294
f 316/633/305 317/632/305 319/636/305 318/637/305
f 292/586/293 318/634/293 320/638/293
f 293/589/294 321/639/294 319/635/294
f 318/637/306 319/636/306 321/640/306 320/641/306
f 292/586/293 320/638/293 322/642/293
f 293/589/294 323/643/294 321/639/294
f 320/641/307 321/640/307 323/644/307 322/645/307
f 292/586/293 322/642/293 324/646/293
f 293/589/294 325/647/294 323/643/294
f 322/645/308 323/644/308 325/648/308 324/649/308
f 292/586/293 324/646/293 326/650/293
f 293/589/294 327/651/294 325/647/294
f 324/649/309 325/648/309 327/652/309 326/653/309
f 292/586/293 326/650/293 294/654/293
f 293/589/294 295/588/294 327/651/294
f 326/653/310 327/652/310 295/655/310 294/587/310
